# https://github.com/mikedh/trimesh
mtllib material.mtl

o Apple_M_Apple_0
usemtl M_Apple
v -0.03693697 -0.00307647 0.03682547
v -0.03508225 0.00605844 0.04895806
v -0.03592008 0.00649401 0.04019391
v -0.03234155 -0.01804165 0.05101862
v -0.02944015 -0.02866237 0.05108924
v -0.02599357 -0.03301270 0.05361284
v -0.02154117 -0.02956216 0.05929874
v -0.02635916 -0.01246979 0.06161619
v -0.01894323 -0.01265802 0.06703694
v -0.03261090 -0.00208590 0.05655700
v -0.03205086 0.00527452 0.05621113
v -0.02837273 -0.00576534 0.06119913
v -0.03065303 -0.01090954 0.05741001
v -0.01823382 -0.00525469 0.06886424
v -0.02952422 0.01007152 0.05800063
v -0.02585988 0.01486017 0.05950189
v -0.03242212 0.01107765 0.05261177
v -0.02250883 0.00987065 0.06464696
v -0.02686466 0.02083190 0.05289121
v -0.02262057 0.02217421 0.05649952
v -0.01802276 0.01964201 0.06227861
v -0.02956897 -0.03286950 0.04690893
v -0.02956897 -0.03286950 0.04690893
v -0.03570072 -0.01152718 0.04159811
v -0.03016174 -0.03197476 0.03702160
v -0.02694769 -0.03636283 0.03404810
v -0.02712604 -0.03714965 0.04406177
v -0.02229305 -0.04108847 0.04390326
v -0.02551371 -0.03780583 0.04882624
v -0.02083233 -0.04117189 0.04732865
v -0.02192220 -0.03849187 0.05194694
v -0.02551371 -0.03780583 0.04882624
v -0.02083233 -0.04117189 0.04732865
v -0.03546849 -0.01090151 0.03215649
v -0.03540625 -0.00427785 0.05090442
v -0.03570072 -0.01152718 0.04159811
v -0.03368455 0.01391617 0.03845395
v -0.03384280 0.01172219 0.04758209
v -0.03200065 0.01712255 0.04394700
v -0.02974742 0.01919874 0.04887074
v -0.02930833 0.02155504 0.03803164
v -0.02470526 0.02650944 0.04450703
v -0.01428182 0.00142558 0.07041813
v -0.00983859 0.00080140 0.07190771
v -0.01104567 0.01638293 0.06751893
v -0.00599285 0.00946339 0.07125000
v -0.00571620 0.01822580 0.06765651
v -0.01338286 -0.03168525 0.06228296
v -0.01237501 -0.03912542 0.05607920
v -0.01580314 -0.03546520 0.05924322
v -0.00764848 -0.03586221 0.06080133
v -0.00465323 -0.04063031 0.05423305
v -0.01566769 -0.04042285 0.05127225
v -0.00499508 -0.04088079 0.05146930
v -0.00002158 -0.03942856 0.05784259
v -0.00262073 -0.01316447 0.07123832
v -0.01317425 -0.01573478 0.06823478
v -0.01321845 0.00930771 0.06955924
v -0.01148956 0.02209206 0.06360031
v -0.00653949 0.02456046 0.06287405
v -0.00642108 0.03033902 0.05537481
v -0.01730564 0.02662066 0.05597204
v -0.01759364 -0.04228383 0.04431327
v -0.01340436 -0.04043521 0.04864030
v -0.01484627 -0.04159995 0.04304547
v -0.01367575 -0.03790516 0.03597270
v -0.01484627 -0.04159995 0.04304547
v -0.01698152 -0.03960805 0.03619026
v -0.01061864 -0.03867775 0.04561962
v -0.01340436 -0.04043521 0.04864030
v -0.01282164 -0.04017054 0.04186488
v -0.00518084 -0.04019614 0.04840798
v -0.00603941 -0.03447612 0.04217888
v -0.00783068 -0.03339210 0.03932369
v -0.00585815 -0.03451606 0.03770480
v -0.00484112 -0.03409173 0.03866694
v -0.00850904 -0.03374864 0.03521426
v -0.00730251 -0.03800679 0.04557159
v -0.00393661 -0.03480621 0.04144386
v -0.00460170 -0.03453428 0.04001053
v -0.02178746 0.02697402 0.05070267
v -0.01534641 0.03188515 0.04656474
v -0.01467956 0.03089440 0.05047580
v -0.01922014 0.03036440 0.03580519
v -0.01262379 0.03290838 0.04212310
v -0.00801811 0.03353042 0.04551093
v 0.00310446 0.03060732 0.05303376
v -0.00607566 0.03164399 0.03591794
v -0.03693697 -0.00307647 0.03682547
v -0.03545760 0.00139290 0.02646364
v -0.03437339 0.01120837 0.02997760
v -0.03579561 0.00557291 0.02998295
v -0.02816769 -0.03131071 0.02814153
v -0.03028512 -0.02889417 0.03198532
v -0.02406194 -0.03739887 0.02897262
v -0.02344300 -0.03931585 0.03617534
v -0.01962698 -0.03973380 0.02869346
v -0.01794636 -0.03940228 0.02243898
v -0.03320264 -0.01536651 0.02794722
v -0.03305473 -0.00725678 0.02225024
v -0.03579561 0.00557291 0.02998295
v -0.03437339 0.01120837 0.02997760
v -0.03246125 0.00958954 0.02219834
v -0.02988574 0.01970540 0.02836493
v -0.02988574 0.01970540 0.02836493
v -0.02970007 0.01597636 0.02191792
v -0.02291394 0.02729429 0.02834271
v -0.02291394 0.02729429 0.02834271
v -0.02483306 0.02298753 0.02238581
v -0.02379596 -0.03246377 0.02126115
v -0.01995008 -0.03383367 0.01796197
v -0.03000546 -0.01325157 0.01966805
v -0.02226808 -0.01577464 0.01096375
v -0.02531606 -0.01838768 0.01550011
v -0.03190508 0.00246112 0.01894765
v -0.03079745 -0.00396782 0.01754922
v -0.02465069 -0.00702750 0.01013178
v -0.02508631 0.00182222 0.00993720
v -0.01959168 -0.00308717 0.00569979
v -0.01911170 -0.00980523 0.00659135
v -0.02270080 0.02033556 0.01552820
v -0.02571694 0.01097665 0.01301195
v -0.02137303 0.01187126 0.00899508
v -0.01815023 0.00573060 0.00517954
v -0.01725051 -0.04008878 0.03104820
v -0.01371360 -0.03840962 0.03353769
v -0.01106331 -0.03597841 0.03450386
v -0.00632192 -0.03919649 0.02996372
v -0.01371360 -0.03840962 0.03353769
v -0.01278173 -0.04113687 0.02928566
v -0.00759979 -0.04174614 0.02576625
v -0.00691600 -0.03549990 0.03406262
v -0.00684502 -0.03628614 0.03233506
v -0.00632192 -0.03919649 0.02996372
v -0.00459251 -0.03616686 0.03468584
v -0.00521498 -0.03615071 0.03377929
v -0.01627906 0.02983733 0.02311036
v -0.01206464 0.03165153 0.02534316
v -0.01032976 0.02973270 0.01736458
v -0.00659263 0.03140970 0.03109070
v -0.00678878 0.03165066 0.02281391
v -0.01241398 -0.03676288 0.01571203
v -0.00988034 -0.03090993 0.01087317
v -0.01447774 -0.04123629 0.02378970
v -0.00981631 -0.03965847 0.01773182
v -0.00574591 -0.04192205 0.02168483
v -0.00394381 -0.03625613 0.01322530
v -0.01241398 -0.03676288 0.01571203
v -0.00988034 -0.03090993 0.01087317
v -0.01329592 -0.01560056 0.00556416
v -0.01867012 0.02567780 0.01716441
v -0.01398361 0.02393510 0.01128945
v -0.01735144 0.01999260 0.01034340
v -0.01379814 0.02793751 0.01624909
v -0.01188540 0.01870996 0.00660435
v -0.00859388 0.02474666 0.00984750
v -0.00515428 -0.02618025 0.00733073
v -0.01462799 -0.00130695 0.00302925
v -0.01519116 0.01484566 0.00604006
v -0.01207808 0.00625814 0.00246314
v -0.00633212 0.01053619 0.00176122
v 0.00616865 -0.01236651 0.07155950
v -0.00033988 -0.00278398 0.07290346
v 0.01039224 -0.00269859 0.07224101
v -0.00056215 0.00524428 0.07248173
v 0.00139890 0.01182968 0.07100363
v 0.00077864 0.01908908 0.06754757
v 0.00896041 0.00574757 0.07159852
v 0.00792458 0.01457022 0.06924272
v 0.00416311 -0.02062165 0.06926300
v 0.00090763 -0.03364480 0.06297341
v 0.00158748 -0.04250000 0.05122133
v -0.00002158 -0.03942856 0.05784259
v -0.00465323 -0.04063031 0.05423305
v 0.00612185 -0.03801712 0.05794669
v 0.00090763 -0.03364480 0.06297341
v 0.00717841 -0.02914693 0.06431294
v 0.00416311 -0.02062165 0.06926300
v 0.01151249 -0.03270222 0.05896818
v 0.00439359 0.02443420 0.06330139
v -0.00351817 0.02769072 0.05959033
v 0.00662120 0.02776993 0.05875171
v -0.00339341 -0.03599013 0.04019928
v -0.00294200 -0.03797623 0.04333767
v -0.00148669 -0.04068356 0.04529451
v -0.00264722 -0.03453696 0.03822392
v -0.00148948 -0.03549819 0.04033525
v -0.00240482 -0.03538993 0.03961900
v -0.00162973 -0.03520194 0.03743896
v -0.00080418 -0.03596959 0.03932287
v 0.00276396 -0.04000462 0.04271795
v 0.00100618 -0.03701904 0.03986526
v -0.00005802 -0.03485716 0.03779984
v 0.00010076 -0.03432066 0.03472113
v -0.00021185 -0.04227156 0.04831725
v 0.00276396 -0.04000462 0.04271795
v 0.00598383 -0.04118891 0.04438039
v 0.00902276 -0.04056746 0.04633365
v 0.00548743 -0.04103575 0.03969703
v 0.00837417 -0.04226072 0.03515041
v 0.00354877 0.03087503 0.04856548
v 0.00140303 0.02959321 0.04139562
v -0.00404601 0.03239210 0.04024155
v 0.00540461 0.02854497 0.04385812
v 0.00548549 0.02422573 0.04041838
v 0.00899949 0.02864776 0.04617027
v 0.00752967 0.01744930 0.03818508
v 0.00433044 0.01906027 0.03840621
v 0.01115062 0.02893042 0.05035763
v 0.01300556 -0.01742226 0.06828487
v 0.01218729 -0.01186503 0.07054048
v 0.01761926 -0.00147563 0.06957008
v 0.01039224 -0.00269859 0.07224101
v 0.01450594 0.00745585 0.06995357
v 0.01368024 0.01723105 0.06660679
v 0.00849058 0.02059020 0.06604356
v 0.00968254 -0.03910548 0.05210708
v 0.01499608 -0.03593450 0.04915473
v 0.02161335 -0.02080731 0.05818921
v 0.01513722 -0.02121328 0.06505137
v 0.01971729 -0.01013570 0.06685373
v 0.02470605 -0.01129994 0.06126237
v 0.02396356 0.00078361 0.06459495
v 0.02815310 -0.00189880 0.05944914
v 0.01368024 0.01723105 0.06660679
v 0.02088305 0.01369094 0.06402744
v 0.01658207 0.02129113 0.06201848
v 0.02079465 0.00770622 0.06668554
v 0.02711060 0.01165794 0.05805702
v 0.02375069 0.01752212 0.05846044
v 0.01250196 0.02450625 0.06107068
v 0.01156933 0.02798359 0.05576313
v 0.01813382 0.02483400 0.05564487
v 0.01774654 0.02594589 0.05238585
v 0.02411981 0.02084383 0.05309420
v 0.01383863 -0.04117002 0.03506545
v 0.01591409 -0.03916915 0.03906935
v 0.02083207 -0.03286981 0.03986433
v 0.01936877 -0.03644019 0.03424950
v 0.01263543 0.02345668 0.04046477
v 0.00919417 0.02015860 0.03899707
v 0.00967050 0.02488650 0.04178961
v 0.00752967 0.01744930 0.03818508
v 0.01234687 0.02189759 0.03816127
v 0.00711746 0.01453594 0.03526817
v 0.00899949 0.02864776 0.04617027
v 0.01550594 0.02531715 0.04327009
v 0.01115062 0.02893042 0.05035763
v 0.02148048 0.02412363 0.04454270
v 0.01674217 0.02437497 0.04015296
v 0.02415965 0.02257283 0.04659863
v 0.01959344 0.02462449 0.03658319
v 0.02668008 0.02321605 0.03761619
v 0.02891723 -0.01441824 0.05206398
v 0.03126288 -0.00803387 0.05257397
v 0.03122942 0.00262759 0.05506077
v 0.03509324 -0.00029532 0.04642124
v 0.03510772 -0.00839058 0.03887091
v 0.03661278 -0.00332598 0.03625904
v 0.03693697 0.00275051 0.03448304
v 0.03049444 0.01633699 0.04755412
v 0.03280115 0.00836230 0.05013343
v 0.03481823 0.00953170 0.04375760
v 0.03172599 0.01748640 0.04177562
v -0.00348649 -0.03493258 0.03651941
v -0.00384596 -0.03650585 0.03238659
v -0.00197475 -0.04166391 0.02758120
v -0.00195948 -0.03906529 0.03086655
v -0.00632192 -0.03919649 0.02996372
v -0.00759979 -0.04174614 0.02576625
v -0.00322434 -0.03526706 0.03516140
v -0.00267119 -0.03412030 0.03460222
v -0.00302491 -0.03493514 0.03368190
v -0.00157339 -0.03469117 0.03354495
v 0.00347130 -0.03998929 0.02722297
v 0.00114100 -0.03678033 0.03161090
v -0.00080920 -0.04208589 0.02282155
v 0.00641583 -0.04021685 0.02314277
v 0.00114100 -0.03678033 0.03161090
v 0.00260248 -0.03790309 0.03324717
v 0.00471008 -0.03948013 0.03000949
v 0.00260248 -0.03790309 0.03324717
v 0.00542533 -0.04143578 0.03652179
v 0.00100618 -0.03701904 0.03986526
v 0.00717120 -0.04055978 0.02649018
v 0.00837417 -0.04226072 0.03515041
v 0.00542533 -0.04143578 0.03652179
v 0.00221067 0.01617564 0.03475463
v 0.00257162 0.01582973 0.03633220
v 0.00276213 0.01479801 0.03599874
v 0.00138432 0.01920284 0.03546871
v 0.00374573 0.01660483 0.03501467
v 0.00344348 0.01718636 0.03391172
v 0.00188324 0.01773591 0.03403610
v 0.00484532 0.01464146 0.03602153
v 0.00374573 0.01660483 0.03501467
v 0.00484532 0.01464146 0.03602153
v 0.00531994 0.01631975 0.03528669
v 0.00401988 0.01693806 0.03319189
v 0.00344348 0.01718636 0.03391172
v 0.00465548 0.01756142 0.03495155
v 0.00401988 0.01693806 0.03319189
v 0.00484532 0.01464146 0.03602153
v 0.00711746 0.01453594 0.03526817
v 0.00577905 0.01445438 0.03478749
v 0.00484532 0.01464146 0.03602153
v 0.00639693 0.01453876 0.03680580
v 0.00623952 0.01600638 0.03430534
v 0.00531994 0.01631975 0.03528669
v 0.00704153 0.01439708 0.03419627
v 0.00704153 0.01439708 0.03419627
v 0.00711746 0.01453594 0.03526817
v 0.00808923 0.01590392 0.03435058
v -0.00607566 0.03164399 0.03591794
v -0.00259969 0.02948203 0.03166485
v -0.00017060 0.03044381 0.02376581
v -0.00270733 0.03046097 0.01862889
v -0.00023849 0.02606849 0.03362783
v 0.00098136 0.02649514 0.03103900
v 0.00022680 0.02594652 0.03611071
v 0.00112106 0.02166099 0.03363033
v 0.00323979 0.01978340 0.03205047
v 0.00722593 0.02593698 0.02400312
v 0.00475037 0.01966519 0.03338285
v 0.00477678 0.01912117 0.03195655
v 0.00477678 0.01912117 0.03195655
v 0.00633178 0.02314723 0.02836657
v 0.00581346 0.01976651 0.03080970
v 0.00528729 0.02015887 0.03234201
v 0.00581346 0.01976651 0.03080970
v 0.00615684 0.02201455 0.03334941
v 0.00659176 0.02020080 0.03162429
v 0.00712650 0.02287006 0.03091282
v 0.00617546 0.02358410 0.03232247
v 0.00631810 0.01744697 0.03154611
v 0.00704461 0.02545027 0.03078872
v 0.00681328 0.02016205 0.03376577
v 0.00651175 0.01711584 0.03275382
v 0.00681328 0.02016205 0.03376577
v 0.00778590 0.02414311 0.03276947
v 0.00776269 0.02212661 0.03146475
v 0.00778590 0.02414311 0.03276947
v 0.00938488 0.02559187 0.03070293
v 0.00866305 0.02803532 0.03136862
v 0.00631810 0.01744697 0.03154611
v 0.00941594 0.01922548 0.03100804
v 0.00924527 0.02280809 0.02723770
v 0.00633178 0.02314723 0.02836657
v 0.00722593 0.02593698 0.02400312
v 0.01048355 0.02984147 0.03104329
v 0.01048355 0.02984147 0.03104329
v 0.01235301 0.03087646 0.02910175
v -0.00092490 -0.04095088 0.01882063
v -0.00981631 -0.03965847 0.01773182
v 0.00576432 -0.02157424 0.00556738
v -0.00515428 -0.02618025 0.00733073
v 0.00440035 0.02528699 0.01135020
v -0.00235426 0.02786763 0.01316002
v 0.00440035 0.02528699 0.01135020
v 0.00742543 0.02644083 0.01774902
v 0.00943674 0.02479389 0.01453250
v -0.00394621 -0.01740257 0.00319025
v 0.00574969 -0.01032501 0.00110668
v -0.00844685 -0.01116842 0.00203654
v -0.00674213 -0.00306818 0.00034625
v 0.00058834 -0.00713106 0.00028454
v 0.00375397 0.00309944 0.00000000
v 0.00038508 0.01151768 0.00152153
v -0.00104001 0.01721183 0.00374635
v 0.00799930 0.01286940 0.00283814
v 0.00936842 0.01806110 0.00596270
v 0.01073516 0.00485450 0.00151899
v 0.01224838 -0.04061633 0.02834896
v 0.01557821 -0.03863585 0.02758033
v 0.01653413 -0.03538052 0.02361054
v 0.00808516 -0.03756756 0.01885638
v 0.02045003 -0.03403712 0.02889499
v 0.01936877 -0.03644019 0.03424950
v 0.01207800 0.03047573 0.03020467
v 0.01057551 0.03206008 0.02984997
v 0.01130721 0.03131498 0.02861413
v 0.01000524 0.01854405 0.03318390
v 0.01231056 0.02221625 0.02859397
v 0.01486714 0.02351413 0.02563239
v 0.01510461 0.02282897 0.03236713
v 0.01510461 0.02282897 0.03236713
v 0.01980537 0.02312883 0.02492292
v 0.01959344 0.02462449 0.03658319
v 0.02519681 0.02321074 0.03109377
v 0.02668008 0.02321605 0.03761619
v 0.01320018 0.03516043 0.02830627
v 0.01522169 0.03681338 0.02942307
v 0.01417211 0.03359164 0.02929529
v 0.01447895 0.03499470 0.02768759
v 0.01649721 0.03667565 0.02902530
v 0.01522169 0.03681338 0.02942307
v 0.01505917 0.03828653 0.02861304
v 0.01644953 0.03606356 0.02794905
v 0.01560498 0.03752633 0.02704507
v 0.01860776 0.03797667 0.02659767
v 0.01592752 0.03969922 0.02774924
v 0.01796854 0.03894805 0.02598568
v 0.01831387 0.04149632 0.02969052
v 0.01936840 0.04064622 0.02954308
v 0.01778931 0.04073799 0.02631040
v 0.01934678 0.03866923 0.02901503
v 0.01920936 0.04250000 0.02878829
v 0.01964409 0.03806745 0.02756710
v 0.01988017 0.03959673 0.02636633
v 0.01175247 -0.03181647 0.01533762
v 0.02055483 -0.02218786 0.01433975
v 0.01550551 -0.02446217 0.01187913
v 0.02605656 -0.02162570 0.02094689
v 0.00411754 -0.03453486 0.01358168
v 0.01051127 -0.01845261 0.00512570
v 0.01673484 -0.01622448 0.00720953
v 0.02420911 -0.01342165 0.01194126
v 0.01863423 -0.01051630 0.00626555
v 0.02221469 -0.00431353 0.00728564
v 0.01992082 0.01994317 0.01553023
v 0.02700334 0.00840190 0.01314100
v 0.02014115 0.01448399 0.00979694
v 0.01605935 0.02045398 0.01217483
v 0.01105167 0.02452370 0.02309093
v 0.01758603 0.02290419 0.02001227
v 0.01254328 -0.00899412 0.00261424
v 0.01680695 0.00149361 0.00367780
v 0.02175371 0.00578325 0.00734553
v 0.01460038 0.01098678 0.00463027
v 0.03040115 -0.01894050 0.03847363
v 0.03143415 -0.01808088 0.03078172
v 0.02688402 -0.02332519 0.02519868
v 0.03199919 -0.01476159 0.02539846
v 0.03143415 -0.01808088 0.03078172
v 0.03661278 -0.00332598 0.03625904
v 0.03561255 -0.00460681 0.02744521
v 0.03515900 0.00525606 0.02532731
v 0.03362222 0.00052018 0.02095220
v 0.03693697 0.00275051 0.03448304
v 0.03593989 0.00906748 0.03288055
v 0.03312826 0.01622186 0.03405289
v 0.03593989 0.00906748 0.03288055
v 0.03042455 0.01997948 0.03404718
v 0.02873689 0.01837955 0.02471436
v 0.03215869 0.01428340 0.02506894
v 0.03312826 0.01622186 0.03405289
v 0.02880524 -0.01132408 0.01667736
v 0.03236475 -0.00800568 0.02087121
v 0.02984321 -0.00420341 0.01540902
v 0.02764179 0.00255585 0.01226851
v 0.02405973 0.01852692 0.01987942
v 0.03030304 0.01236655 0.02013044
v 0.03288298 0.00826510 0.02140328
v -0.01075156 -0.00799305 0.07100951
v -0.01759364 -0.04228383 0.04431327
v -0.02031393 -0.04012744 0.03701275
v -0.01698152 -0.03960805 0.03619026
v -0.01484627 -0.04159995 0.04304547
v -0.00518084 -0.04019614 0.04840798
v -0.01922014 0.03036440 0.03580519
v -0.01262379 0.03290838 0.04212310
v -0.00164837 0.02286662 0.00756859
v -0.00844685 -0.01116842 0.00203654
v -0.00674213 -0.00306818 0.00034625
v -0.00104001 0.01721183 0.00374635
v -0.00251068 0.00485279 0.00005609
v 0.00616865 -0.01236651 0.07155950
v 0.00454898 -0.04057746 0.05509013
v 0.01156933 0.02798359 0.05576313
v 0.01250196 0.02450625 0.06107068
v -0.00499508 -0.04088079 0.05146930
v -0.00518084 -0.04019614 0.04840798
v -0.00148669 -0.04068356 0.04529451
v 0.00100618 -0.03701904 0.03986526
v 0.00639693 0.01453876 0.03680580
v 0.00257162 0.01582973 0.03633220
v -0.00169675 0.02829068 0.03515406
v 0.00022680 0.02594652 0.03611071
v 0.00919417 0.02015860 0.03899707
v 0.00967050 0.02488650 0.04178961
v 0.01450594 0.00745585 0.06995357
v 0.02748015 -0.01970361 0.04807020
v 0.03304287 -0.01034673 0.04562989
v 0.03042455 0.01997948 0.03404718
v -0.00405646 -0.03522744 0.03420340
v -0.00195948 -0.03906529 0.03086655
v -0.00574591 -0.04192205 0.02168483
v 0.00484532 0.01464146 0.03602153
v 0.00747467 0.01670628 0.03259695
v 0.00747467 0.01670628 0.03259695
v -0.00169675 0.02829068 0.03515406
v 0.00581346 0.01976651 0.03080970
v 0.00018132 -0.03895563 0.01634676
v 0.00742543 0.02644083 0.01774902
v -0.00251068 0.00485279 0.00005609
v 0.01052659 -0.00261260 0.00118910
v 0.00038508 0.01151768 0.00152153
v -0.00164837 0.02286662 0.00756859
v 0.01383863 -0.04117002 0.03506545
v 0.01000524 0.01854405 0.03318390
v 0.01831387 0.04149632 0.02969052
v 0.01920936 0.04250000 0.02878829
v 0.02012215 0.04022981 0.02855516
vn -0.99731102 0.03302921 0.06542021
vn -0.95802125 0.15517013 0.24107574
vn -0.98183450 0.18503250 0.04199991
vn -0.90572029 -0.23540133 0.35250103
vn -0.83734242 -0.26543919 0.47791181
vn -0.67969720 -0.44160373 0.58566019
vn -0.53145290 -0.36661905 0.76364146
vn -0.64945178 -0.21037930 0.73072083
vn -0.46410426 -0.22876447 0.85573013
vn -0.82699357 0.01109346 0.56210192
vn -0.82001148 0.13499242 0.55619980
vn -0.68453708 -0.04962838 0.72728674
vn -0.80007023 -0.19530716 0.56722371
vn -0.46920830 -0.06152346 0.88094179
vn -0.74538759 0.26139208 0.61324671
vn -0.64901139 0.41644739 0.63667558
vn -0.85351506 0.33177722 0.40179089
vn -0.55735644 0.23726816 0.79564918
vn -0.71058225 0.56553429 0.41862135
vn -0.55938371 0.60112894 0.57073099
vn -0.44483547 0.52096609 0.72850240
vn -0.85735729 -0.37388471 0.35376363
vn -0.89697886 -0.43728010 0.06492339
vn -0.97408842 -0.22453696 -0.02710901
vn -0.91077282 -0.40405222 -0.08505689
vn -0.73899260 -0.65045654 -0.17548856
vn -0.75084286 -0.65928858 0.03966829
vn -0.43461415 -0.90054348 -0.01148835
vn -0.67435403 -0.72082010 0.16020307
vn -0.22352298 -0.90528743 0.36123696
vn -0.42439821 -0.74243937 0.51833380
vn -0.62869859 -0.63440369 0.44974441
vn -0.40765230 -0.90041267 0.15190995
vn -0.96816087 -0.18926412 -0.16384024
vn -0.95240063 -0.05729745 0.29941616
vn -0.97452576 -0.16390901 0.15307965
vn -0.92045340 0.39082251 -0.00482628
vn -0.92215024 0.33691966 0.19006334
vn -0.86781762 0.48761528 0.09551921
vn -0.80487184 0.53666277 0.25332665
vn -0.79352538 0.60839795 -0.01301533
vn -0.65812089 0.74420932 0.11414629
vn -0.38736138 0.07777708 0.91864133
vn -0.21131964 0.03627745 0.97674355
vn -0.28461382 0.43165961 0.85595850
vn -0.14200586 0.25998987 0.95511235
vn -0.11919414 0.49309773 0.86176992
vn -0.25464761 -0.42012887 0.87100306
vn -0.16896270 -0.84628063 0.50523331
vn -0.33239321 -0.60346484 0.72480683
vn -0.11159494 -0.62349976 0.77381821
vn -0.07345056 -0.95003261 0.30338599
vn -0.09593236 -0.95282111 0.28797380
vn -0.01979586 -0.99923860 -0.03362067
vn -0.05896614 -0.76077501 0.64633147
vn -0.10397674 -0.24888206 0.96293643
vn -0.26935906 -0.30102967 0.91478240
vn -0.34257078 0.25498754 0.90422708
vn -0.28235039 0.61664473 0.73486566
vn -0.14179356 0.69295436 0.70690087
vn -0.08970220 0.88375236 0.45927691
vn -0.38600985 0.73771282 0.55387381
vn 0.14125010 -0.97000316 0.19784408
vn 0.10013248 -0.99343525 0.05531622
vn 0.29243121 -0.94846127 0.12208689
vn 0.57414769 -0.81438834 -0.08441598
vn 0.51319529 -0.84475447 -0.15172499
vn 0.43524496 -0.87303187 -0.21994815
vn 0.38004325 -0.84684493 -0.37204946
vn 0.34919826 -0.91118470 -0.21863903
vn 0.58076987 -0.78087236 -0.23009718
vn -0.19098950 -0.81396354 -0.54862224
vn -0.08369111 -0.83876015 -0.53803086
vn 0.21446111 -0.96615812 -0.14333499
vn -0.19688131 -0.90514850 0.37675450
vn -0.25067724 -0.96731902 0.03814234
vn 0.10308187 -0.89212382 0.43987410
vn -0.02798373 -0.74794922 -0.66316579
vn -0.62181612 -0.73779472 -0.26268549
vn -0.56113666 -0.82321408 -0.08627989
vn -0.55945465 0.75628010 0.33919154
vn -0.35467729 0.91991652 0.16720529
vn -0.29639930 0.87998967 0.37116793
vn -0.54410605 0.83901438 0.00186289
vn -0.19995859 0.97941065 -0.02777308
vn 0.00352619 0.99685981 0.07910805
vn 0.15161125 0.95732946 0.24603727
vn 0.29124135 0.90481662 -0.31062092
vn -0.98870227 -0.09191123 -0.11840669
vn -0.95583320 0.02257934 -0.29304106
vn -0.93688060 0.34657213 -0.04628718
vn -0.98087205 0.19243344 -0.02931531
vn -0.83557455 -0.41829854 -0.35614816
vn -0.92479246 -0.31219691 -0.21746722
vn -0.63042181 -0.72117811 -0.28717673
vn -0.43692386 -0.88986141 -0.13131723
vn -0.34039359 -0.93648483 -0.08442965
vn -0.47464095 -0.78227646 -0.40343463
vn -0.91459932 -0.26087426 -0.30895420
vn -0.89816875 -0.15659300 -0.41081812
vn -0.96156018 0.14162320 -0.23525494
vn -0.90728806 0.31472741 -0.27888176
vn -0.87227488 0.25420567 -0.41775113
vn -0.81718374 0.57195535 -0.07125874
vn -0.80046919 0.52584600 -0.28763702
vn -0.80590497 0.42697870 -0.41012970
vn -0.68580342 0.72568918 -0.05521670
vn -0.56368143 0.79195783 -0.23466155
vn -0.68851384 0.63278969 -0.35429636
vn -0.72755628 -0.45738085 -0.51133611
vn -0.55829477 -0.50250439 -0.66014869
vn -0.82782919 -0.25183145 -0.50127812
vn -0.60507020 -0.31392778 -0.73166891
vn -0.74432260 -0.29713499 -0.59807580
vn -0.85349490 0.06737421 -0.51672737
vn -0.82911562 -0.09476020 -0.55098801
vn -0.70241611 -0.15180407 -0.69538992
vn -0.70602296 0.05898772 -0.70572802
vn -0.53261038 -0.06474030 -0.84388084
vn -0.50279768 -0.22476128 -0.83467171
vn -0.65692710 0.51155432 -0.55385825
vn -0.73734496 0.27378476 -0.61754702
vn -0.61227232 0.29078126 -0.73523389
vn -0.50863041 0.13481644 -0.85036441
vn -0.03806803 -0.99087587 0.12928974
vn 0.49445606 -0.78564558 0.37185243
vn 0.48237188 -0.74342815 0.46328388
vn 0.20098655 -0.84329684 0.49845245
vn 0.21667483 -0.89785711 0.38328139
vn 0.00417388 -0.94597488 0.32421305
vn 0.01589070 -0.98531490 0.17000597
vn -0.18267790 -0.86020927 0.47609747
vn 0.08389754 -0.78286148 0.61651367
vn 0.07200773 -0.61089612 0.78842933
vn 0.24226561 -0.97009702 0.01480360
vn 0.01033598 -0.97098972 0.23889774
vn -0.40721474 0.87505889 -0.26162585
vn -0.15880844 0.97819903 -0.13381533
vn -0.17211431 0.89126383 -0.41955387
vn 0.23294676 0.97248315 -0.00351262
vn 0.03425688 0.99097329 -0.12960864
vn -0.40566018 -0.60523416 -0.68493170
vn -0.40834595 -0.39408837 -0.82337595
vn -0.23496689 -0.95567305 -0.17742485
vn -0.26227555 -0.84332772 -0.46905212
vn -0.12259335 -0.97384718 -0.19129178
vn -0.01532280 -0.63105855 -0.77558386
vn -0.18625530 -0.62138829 -0.76104241
vn -0.15529996 -0.53719507 -0.82903762
vn -0.39639154 -0.34040337 -0.85264254
vn -0.53669536 0.70263736 -0.46718179
vn -0.38606798 0.64178912 -0.66261470
vn -0.51736559 0.50094784 -0.69381850
vn -0.35031255 0.79816166 -0.49012150
vn -0.28025414 0.47500484 -0.83416306
vn -0.16759178 0.68648351 -0.70756864
vn -0.29160006 -0.37157848 -0.88141865
vn -0.39865404 -0.03782170 -0.91632116
vn -0.41711581 0.34646086 -0.84022573
vn -0.32990736 0.14816604 -0.93231323
vn -0.18890135 0.27741952 -0.94199506
vn 0.00748467 -0.17899294 0.98382189
vn -0.02760505 -0.04228220 0.99872427
vn 0.10244982 0.01840622 0.99456787
vn -0.01120170 0.13197329 0.99118998
vn 0.02531750 0.32050038 0.94690999
vn 0.00053783 0.52537707 0.85086935
vn 0.16176435 0.17257488 0.97162246
vn 0.15766598 0.37245148 0.91456073
vn -0.08979915 -0.34748884 0.93337432
vn -0.07379537 -0.50889479 0.85765980
vn 0.05645820 -0.98620519 0.15560138
vn 0.06240332 -0.82317714 0.56434495
vn -0.15904437 -0.95202167 0.26145674
vn 0.36162149 -0.69879051 0.61718856
vn 0.19832363 -0.57995073 0.79014232
vn 0.30163721 -0.50704212 0.80741766
vn 0.21579525 -0.39401828 0.89341032
vn 0.56863924 -0.58369569 0.57961086
vn 0.06886087 0.70696648 0.70388677
vn -0.03976512 0.80070702 0.59773490
vn 0.14434583 0.85049366 0.50579127
vn -0.38773279 -0.83831176 -0.38327101
vn -0.37199089 -0.68118499 -0.63056307
vn -0.42398322 -0.66908550 -0.61037924
vn -0.37313100 -0.91876071 -0.12904269
vn -0.20365209 -0.92984176 -0.30646390
vn -0.04146229 -0.92963644 -0.36613791
vn -0.06353866 -0.99005352 -0.12552637
vn -0.31331747 -0.91719528 -0.24614016
vn -0.36085662 -0.68053110 -0.63769893
vn -0.58287677 -0.72602643 -0.36488396
vn -0.31632775 -0.87420241 -0.36838417
vn -0.46487246 -0.87810900 0.11321740
vn -0.16715393 -0.96825350 -0.18586211
vn -0.35645870 -0.88557391 -0.29781881
vn 0.07213355 -0.99050983 -0.11699159
vn 0.29289852 -0.94792615 0.12508585
vn -0.38079807 -0.92351598 0.04594628
vn 0.02825489 -0.98956924 0.14125999
vn 0.27213165 0.95869528 -0.08275093
vn 0.54259128 0.72400604 -0.42592248
vn 0.28658496 0.93009016 -0.22978546
vn 0.36438661 0.77604929 -0.51475227
vn 0.39449862 0.45526189 -0.79819011
vn 0.29259197 0.87901441 -0.37646195
vn 0.08493694 0.35410347 -0.93134121
vn 0.37223550 0.28718432 -0.88259045
vn 0.26140308 0.96502926 0.01967133
vn 0.38469406 -0.36393499 0.84826989
vn 0.32171446 -0.22351615 0.92007627
vn 0.48542008 -0.02040651 0.87404286
vn 0.31757527 -0.05390304 0.94669975
vn 0.23021591 0.23987800 0.94311144
vn 0.25607506 0.45768967 0.85143745
vn 0.17200461 0.57470262 0.80008207
vn 0.50649945 -0.79679721 0.32950344
vn 0.69085942 -0.63557664 0.34460935
vn 0.71880469 -0.49180415 0.49137410
vn 0.54548178 -0.45362543 0.70475074
vn 0.60442445 -0.23027742 0.76265549
vn 0.74617623 -0.29029927 0.59912216
vn 0.71558357 0.01459495 0.69837465
vn 0.80216209 -0.08058188 0.59164393
vn 0.44130846 0.45023995 0.77622860
vn 0.59388647 0.38064329 0.70880854
vn 0.47144942 0.60956392 0.63731254
vn 0.59675673 0.20597795 0.77553497
vn 0.78072124 0.29367156 0.55157171
vn 0.68213183 0.50892982 0.52505867
vn 0.39725035 0.72821346 0.55847768
vn 0.39478324 0.87220872 0.28878738
vn 0.52257912 0.76949294 0.36713986
vn 0.47675601 0.86939605 0.12982382
vn 0.66151944 0.67388093 0.32905397
vn 0.42464066 -0.89553743 0.13301516
vn 0.61333609 -0.76538083 0.19496416
vn 0.78773206 -0.57373577 0.22428880
vn 0.76611456 -0.62947736 0.12971789
vn -0.16343232 0.77495012 -0.61052615
vn -0.42492487 0.55521637 -0.71496408
vn 0.02778283 0.69869745 -0.71487761
vn -0.59698085 0.59112194 -0.54239167
vn -0.53702645 0.78083801 -0.31920933
vn -0.60077873 0.76066804 -0.24586388
vn 0.23577938 0.88422342 -0.40318361
vn 0.13922044 0.89701829 -0.41949476
vn 0.35837194 0.93186974 -0.05646538
vn 0.33217431 0.94321471 0.00249942
vn -0.12674672 0.97715363 -0.17060494
vn 0.52457082 0.83431048 0.16956259
vn -0.05296553 0.99779644 -0.03996134
vn 0.52608494 0.84062671 0.12876865
vn 0.82217270 -0.41368892 0.39101602
vn 0.87294085 -0.23427278 0.42789079
vn 0.85916795 0.05399160 0.50883725
vn 0.95566121 -0.04899086 0.29036452
vn 0.94837740 -0.30033102 0.10189005
vn 0.98239241 -0.13886172 0.12499029
vn 0.98711177 0.08605549 0.13492519
vn 0.79611726 0.50267301 0.33692306
vn 0.88574240 0.23295936 0.40148517
vn 0.94260898 0.25241616 0.21857354
vn 0.80636566 0.56344115 0.17974566
vn -0.04233680 -0.93807931 0.34382380
vn -0.01260214 -0.70730055 0.70680062
vn 0.07714781 -0.91688019 0.39163622
vn 0.14478673 -0.75454228 0.64008026
vn -0.13987399 -0.80420950 0.57765245
vn -0.07134963 -0.96168571 0.26470705
vn 0.49672871 -0.85834965 -0.12843858
vn 0.46864299 -0.88331646 0.01121474
vn 0.37199991 -0.76291773 0.52874626
vn 0.01668783 -0.76242266 0.64686413
vn 0.05873243 -0.94353885 0.32601371
vn -0.16591525 -0.88050383 0.44405534
vn 0.12971690 -0.98911761 -0.06942530
vn 0.23152641 -0.94441343 -0.23340692
vn -0.32798714 -0.70930626 0.62394637
vn -0.80577666 -0.58880948 0.06346157
vn -0.48140861 -0.87405508 0.06537174
vn -0.68411876 -0.72565236 -0.07355389
vn -0.58484981 -0.79469726 -0.16250220
vn -0.73673672 -0.67040949 -0.08814830
vn -0.10342471 -0.99185535 -0.07433905
vn -0.14933758 -0.97170225 -0.18301099
vn -0.37334885 -0.91948180 0.12314165
vn 0.57453772 0.64997514 0.49743214
vn 0.84591884 0.31100325 -0.43324161
vn 0.42190394 0.89828737 -0.12278791
vn 0.97106269 0.19636168 -0.13593876
vn -0.21719722 0.66144134 0.71785843
vn 0.17827349 0.92372733 0.33903743
vn 0.77714318 0.37983134 0.50177349
vn 0.05085449 0.76940074 0.63673882
vn -0.34677535 0.46585004 0.81408267
vn -0.08045299 0.41879208 0.90451120
vn -0.04215670 0.33580413 0.94098799
vn -0.76522664 0.64168208 -0.05169417
vn -0.25844063 0.96489294 -0.04679805
vn -0.35933160 0.46987601 0.80628614
vn 0.41869895 0.60521102 0.67706042
vn 0.73082440 0.48596914 0.47930126
vn -0.01111916 0.99049513 -0.13709765
vn 0.49266817 0.72470814 0.48174287
vn 0.05416786 0.99825416 0.02354730
vn -0.47395822 0.85166924 -0.22365846
vn 0.79821956 0.12311487 0.58965096
vn 0.74832653 0.00371075 0.66332016
vn 0.43099531 0.71637161 0.54868458
vn -0.81703880 0.55054616 0.17130830
vn -0.81855176 0.57433405 -0.01064945
vn -0.76732196 0.59668967 0.23490094
vn 0.29668160 0.95417549 -0.03910450
vn 0.56420184 0.80536907 0.18181570
vn 0.36865045 0.92819896 0.05043340
vn 0.15896789 0.94606482 -0.28229518
vn 0.86460660 0.48388854 0.13530453
vn 0.67004529 0.55657153 0.49118982
vn 0.90731093 0.40153432 -0.12472797
vn 0.89355528 0.25835441 0.36716747
vn 0.53884820 0.34017475 0.77066450
vn 0.55888866 0.78537463 0.26613937
vn -0.88822139 0.42724424 0.16889379
vn -0.87702328 0.41764849 -0.23748665
vn 0.29013050 0.56370201 0.77334619
vn 0.59894790 0.49999806 0.62551047
vn 0.36804699 0.54121698 0.75605926
vn -0.80249250 0.47642202 -0.35920447
vn 0.18013145 0.59557686 -0.78284153
vn -0.49673312 0.37109741 0.78456543
vn 0.62110142 -0.04573892 -0.78239439
vn -0.12415632 -0.22485421 -0.96645010
vn -0.83910866 0.42774934 0.33604637
vn 0.96579686 0.18417990 -0.18252176
vn -0.81770124 0.27251747 -0.50704923
vn 0.97646592 -0.20897911 0.05331082
vn 0.90400152 0.35445168 0.23905075
vn 0.15193466 0.27388714 0.94968505
vn -0.31794789 0.40015294 0.85952706
vn 0.83862837 -0.39065482 -0.37959356
vn 0.88057182 -0.25623992 0.39866574
vn 0.86599157 -0.48711524 -0.11303686
vn -0.59811117 0.48964938 0.63443401
vn -0.06005485 0.63842353 0.76733878
vn -0.39992656 0.73301662 0.55022303
vn 0.13603990 0.78180033 0.60850751
vn 0.37085856 0.58578208 0.72064089
vn 0.37585227 0.86310586 0.33731788
vn 0.56393761 -0.19922801 0.80142534
vn -0.31163660 0.44953568 0.83713816
vn 0.64651164 -0.55839789 -0.51982161
vn 0.11523181 -0.88233128 -0.45630378
vn -0.11174595 -0.75805165 -0.64255003
vn 0.15750983 -0.46166161 -0.87296003
vn -0.00728978 -0.47645104 -0.87917079
vn 0.22986048 0.85144061 -0.47139478
vn 0.06886222 0.84303383 -0.53343412
vn 0.27221782 0.75703562 -0.59396509
vn 0.32434970 0.93789832 -0.12306104
vn 0.35489646 0.86895507 -0.34491388
vn -0.10757164 -0.35829551 -0.92739025
vn 0.13388163 -0.23000534 -0.96393633
vn -0.12473311 -0.24177157 -0.96228279
vn -0.05930505 -0.09435772 -0.99377036
vn 0.00175412 -0.13916787 -0.99026725
vn 0.09418692 0.07558763 -0.99268088
vn 0.09557710 0.28621407 -0.95338687
vn 0.12063186 0.49524904 -0.86033502
vn 0.21696111 0.35112425 -0.91084556
vn 0.29241105 0.56596747 -0.77082851
vn 0.28675122 0.14564181 -0.94686968
vn 0.29107919 -0.91497813 -0.27944219
vn 0.55698227 -0.77020628 -0.31072984
vn 0.59940519 -0.64531024 -0.47359066
vn 0.38420512 -0.75317707 -0.53395761
vn 0.76042254 -0.60720093 -0.23035753
vn 0.72182847 -0.68121962 -0.12207986
vn 0.77311642 -0.36874650 0.51605912
vn -0.81848716 0.55761901 0.13834668
vn -0.31128741 -0.04857543 -0.94907354
vn -0.61443174 0.70084912 0.36233155
vn -0.28165825 0.88132345 0.37939111
vn 0.05670388 0.98791319 0.14426436
vn -0.49977550 0.85401294 -0.14452109
vn -0.32605696 0.94317281 0.06412410
vn 0.24218733 0.95159561 -0.18923819
vn 0.02499044 0.99473686 -0.09936828
vn 0.38220168 0.90295181 -0.19646859
vn 0.38900917 0.91690420 -0.08921071
vn -0.67461222 0.33289443 -0.65884721
vn 0.29120617 -0.18819923 0.93796589
vn 0.74279845 -0.41462841 0.52567456
vn -0.03764160 -0.27415873 -0.96094750
vn 0.47326860 -0.51408856 0.71535291
vn -0.41828636 0.40433483 0.81335716
vn -0.83747634 0.50625684 0.20576050
vn 0.62590776 -0.77708628 -0.06615425
vn -0.50879007 0.10489132 -0.85447673
vn 0.32819072 -0.61376855 -0.71803832
vn -0.78696295 0.55734094 -0.26468925
vn -0.12898587 -0.12429168 -0.98382632
vn 0.25067248 0.14495036 0.95715866
vn 0.52369974 0.04855688 0.85051797
vn -0.27655628 0.58143661 -0.76514580
vn 0.58894830 -0.44227558 0.67641127
vn 0.78990301 0.39971758 0.46505816
vn 0.77216140 -0.63263106 -0.05953757
vn 0.72796181 0.05595237 -0.68333077
vn 0.45923625 -0.59651637 -0.65823270
vn 0.62329697 -0.50222403 -0.59939295
vn 0.47841063 -0.53428576 -0.69689454
vn 0.74504838 -0.49217500 -0.45018517
vn 0.27167812 -0.60453316 -0.74881951
vn 0.30966312 -0.42070303 -0.85271197
vn 0.49731894 -0.38877604 -0.77558176
vn 0.68276156 -0.33356578 -0.65005425
vn 0.53226726 -0.23981447 -0.81189937
vn 0.61684807 -0.10441568 -0.78012552
vn 0.57133345 0.70606011 -0.41839839
vn 0.71627694 0.32566736 -0.61716133
vn 0.58135032 0.47662197 -0.65944166
vn 0.44645178 0.71448282 -0.53869760
vn 0.15897554 0.93185055 0.32616151
vn 0.38839178 0.90067991 -0.19474991
vn 0.36268488 -0.19736902 -0.91077173
vn 0.46471179 0.04655327 -0.88423738
vn 0.59179424 0.18167706 -0.78534898
vn 0.42388289 0.32463131 -0.84553995
vn 0.86457783 -0.48427030 0.13411729
vn 0.88363777 -0.44408366 -0.14823626
vn 0.79724813 -0.53660436 -0.27649806
vn 0.88384874 -0.37663584 -0.27741099
vn 0.88555905 -0.46197650 0.04860944
vn 0.97996020 -0.18013123 -0.08503379
vn 0.96292032 -0.16810187 -0.21101237
vn 0.94796778 0.13328370 -0.28912375
vn 0.89260057 -0.00457429 -0.45082513
vn 0.98853994 0.01200380 -0.15048156
vn 0.96013336 0.26543501 0.08768233
vn 0.88566702 0.45815447 0.07542157
vn 0.94740256 0.25472687 -0.19375916
vn 0.67634527 0.70842315 -0.20172685
vn 0.61285545 0.68840306 -0.38795544
vn 0.82368646 0.46283645 -0.32760195
vn 0.84658299 0.49406966 -0.19797075
vn 0.78467058 -0.31145375 -0.53599314
vn 0.87527576 -0.22639621 -0.42736062
vn 0.79706212 -0.11926169 -0.59200391
vn 0.75070158 0.06538480 -0.65739787
vn 0.57698469 0.68650775 -0.44248817
vn 0.70863831 0.46075342 -0.53435759
vn 0.85769202 0.24089878 -0.45423801
vn -0.22921477 -0.16167860 0.95985448
vn -0.09893243 -0.97859292 -0.18046684
vn -0.09452347 -0.98173295 -0.16512338
vn 0.19305252 -0.97899419 -0.06558276
vn 0.09514355 -0.94759562 -0.30497581
vn 0.02215433 -0.97536511 -0.21948140
vn -0.33952638 0.93504630 -0.10203065
vn -0.09453233 0.99261429 -0.07602970
vn -0.03855160 0.65641461 -0.75341465
vn -0.36332240 -0.23399313 -0.90180045
vn -0.30406924 -0.01981074 -0.95244392
vn -0.13770524 0.44195565 -0.88640424
vn -0.17729734 0.15294014 -0.97220109
vn 0.18169392 -0.24594439 0.95210224
vn 0.26843411 -0.87260817 0.40804180
vn 0.23658430 0.91044903 0.33927930
vn 0.23411045 0.73201066 0.63980676
vn -0.29040052 -0.95690122 0.00275701
vn -0.37929003 -0.89842408 -0.22129901
vn -0.22784054 -0.89825284 -0.37580650
vn -0.66097357 -0.73016446 -0.17312945
vn 0.22835369 0.49134216 -0.84049835
vn 0.41366981 0.37999186 -0.82733516
vn 0.62708992 0.63941118 -0.44487254
vn 0.70840188 0.39184242 -0.58704880
vn 0.03979536 0.36178320 -0.93141250
vn 0.22535285 0.60136726 -0.76653344
vn 0.41968794 0.19753476 0.88591312
vn 0.80079091 -0.51923024 0.29855297
vn 0.90913890 -0.33191141 0.25159746
vn 0.76008902 0.64487198 0.08003009
vn 0.51878298 -0.85432573 -0.03149231
vn -0.00405394 -0.56416197 0.82565419
vn -0.03564987 -0.97743453 -0.20820863
vn 0.32765321 0.77006560 -0.54739597
vn 0.38724708 0.66643010 0.63711115
vn -0.47199093 0.66134742 0.58296154
vn 0.75237412 0.65873199 0.00231465
vn 0.69071435 0.35099486 0.63223120
vn 0.17135753 -0.74708843 -0.64225810
vn 0.40464259 0.90168101 -0.15243274
vn 0.01129042 0.07224426 -0.99732306
vn 0.26903434 -0.04783143 -0.96194214
vn -0.07814591 0.30287083 -0.94982234
vn 0.15592420 0.61560498 -0.77247534
vn 0.41305144 -0.90088486 -0.13339778
vn -0.76233296 0.64288240 -0.07450287
vn -0.68321505 0.69043972 0.23771873
vn -0.39610479 0.88020904 -0.26140588
vn 0.97127686 0.06252289 0.22959126
vt 0.74080342 0.36136675
vt 0.67429650 0.29957134
vt 0.67845207 0.34897232
vt 0.79637939 0.24220920
vt 0.85019404 0.20787811
vt 0.86440635 0.17605484
vt 0.82943839 0.14615846
vt 0.74249429 0.19145352
vt 0.72678792 0.14555442
vt 0.70474690 0.24858391
vt 0.66872972 0.25903755
vt 0.71248007 0.21219707
vt 0.74572462 0.22483271
vt 0.68737191 0.15184557
vt 0.64148873 0.25183874
vt 0.61275262 0.24246275
vt 0.64351535 0.28253162
vt 0.62771612 0.20690453
vt 0.58728021 0.27818280
vt 0.57272714 0.25387150
vt 0.57467818 0.21560794
vt 0.88552237 0.21664780
vt 0.27550712 0.91714841
vt 0.30151564 0.78266037
vt 0.22684528 0.88398206
vt 0.19709736 0.90286469
vt 0.24551532 0.93416727
vt 0.22569020 0.96514386
vt 0.26565132 0.95742404
vt 0.93008167 0.14988357
vt 0.89666712 0.15033442
vt 0.90540075 0.17875427
vt 0.23914036 0.98287189
vt 0.25025463 0.75998920
vt 0.72597367 0.27692699
vt 0.78527725 0.31446862
vt 0.63294744 0.36096764
vt 0.64414704 0.30983907
vt 0.61331016 0.32915688
vt 0.59988403 0.30132604
vt 0.58129191 0.35962856
vt 0.54970717 0.31711167
vt 0.64758062 0.14491928
vt 0.64084089 0.12113911
vt 0.57268268 0.16944271
vt 0.59078008 0.12490743
vt 0.54935491 0.15224761
vt 0.82811069 0.09561110
vt 0.88469553 0.08953786
vt 0.85619760 0.10843867
vt 0.85155725 0.06051761
vt 0.90220016 0.04390383
vt 0.91147858 0.11341619
vt 0.91882735 0.04809433
vt 0.88023525 0.01326311
vt 0.69986773 0.05433011
vt 0.73340154 0.11043435
vt 0.60947520 0.15832210
vt 0.54737902 0.19335032
vt 0.52086222 0.18254477
vt 0.48564363 0.21895498
vt 0.53896505 0.24604100
vt 0.95350659 0.13336176
vt 0.92949915 0.10181737
vt 0.96351022 0.11660123
vt 0.01411918 0.09478760
vt 0.04514858 0.05464762
vt 0.00188081 0.07507199
vt 0.07481977 0.07727522
vt 0.08332299 0.04937720
vt 0.04639727 0.07185018
vt 0.11108249 0.09501201
vt 0.06603400 0.11642492
vt 0.05011307 0.11754882
vt 0.04874501 0.13109672
vt 0.05632427 0.13193345
vt 0.03363294 0.12421668
vt 0.08477027 0.09650618
vt 0.07024270 0.12563920
vt 0.06291942 0.12845254
vt 0.54572475 0.28064770
vt 0.49744153 0.28679234
vt 0.50592399 0.26594907
vt 0.49738908 0.35722440
vt 0.46995255 0.30260241
vt 0.45805094 0.27021027
vt 0.43670583 0.19277740
vt 0.41261092 0.30857545
vt 0.29134196 0.72342038
vt 0.23722780 0.68292654
vt 0.65016645 0.41405928
vt 0.68811655 0.41211587
vt 0.18050197 0.86273050
vt 0.20744188 0.85694039
vt 0.16402909 0.90005469
vt 0.19317938 0.93175536
vt 0.14449935 0.92124099
vt 0.11271991 0.90256608
vt 0.21666484 0.77714443
vt 0.19996592 0.72444952
vt 0.26227674 0.66208446
vt 0.26370719 0.62616330
vt 0.21605699 0.63200384
vt 0.58592504 0.42153662
vt 0.24798051 0.56842911
vt 0.21189657 0.59321344
vt 0.51742816 0.41096473
vt 0.22802018 0.50865984
vt 0.20325108 0.54594344
vt 0.13583836 0.85810506
vt 0.10704947 0.86198223
vt 0.17212906 0.75283319
vt 0.10595359 0.75368667
vt 0.13270612 0.77427286
vt 0.19251794 0.66845417
vt 0.17592789 0.70072210
vt 0.12157006 0.70626450
vt 0.13227998 0.66016293
vt 0.09040730 0.67801046
vt 0.08339799 0.71480310
vt 0.16444412 0.56168890
vt 0.15606590 0.61473924
vt 0.12638624 0.60381055
vt 0.09323768 0.62974191
vt 0.14536051 0.94148242
vt 0.00097656 0.10287303
vt 0.01985786 0.11494553
vt 0.09594322 0.98684263
vt 0.14330608 0.97007012
vt 0.11791492 0.95269072
vt 0.08082445 0.95944339
vt 0.02881588 0.13590020
vt 0.02022184 0.14128578
vt 0.00097656 0.15274847
vt 0.03804863 0.14571607
vt 0.03215050 0.14599377
vt 0.18086380 0.48888218
vt 0.17642097 0.46069133
vt 0.13672596 0.48292363
vt 0.18122610 0.41458255
vt 0.14666675 0.44795829
vt 0.06314936 0.88397312
vt 0.03446590 0.84365183
vt 0.10288799 0.92362368
vt 0.05868751 0.91049951
vt 0.05563753 0.94821697
vt 0.76473898 0.90264672
vt 0.79729283 0.94520205
vt 0.81402534 0.89755380
vt 0.04672017 0.74484861
vt 0.16173071 0.52537143
vt 0.12138185 0.52867937
vt 0.12562014 0.55591798
vt 0.14313433 0.50347441
vt 0.09000833 0.55168962
vt 0.09699135 0.51117945
vt 0.00106702 0.81144172
vt 0.06177233 0.66194558
vt 0.09614408 0.57855713
vt 0.05882129 0.61685884
vt 0.03656685 0.58213198
vt 0.67709017 0.00341374
vt 0.63676536 0.06439602
vt 0.60560811 0.00420284
vt 0.59616411 0.08704495
vt 0.55798876 0.09797734
vt 0.52394652 0.12756610
vt 0.56359106 0.04055762
vt 0.52053964 0.07747698
vt 0.73534238 0.00097656
vt 0.82986540 0.00876945
vt 0.37520728 0.33750826
vt 0.41775000 0.34187895
vt 0.40363207 0.30820799
vt 0.40721166 0.37701184
vt 0.45617923 0.37074208
vt 0.45421407 0.41726255
vt 0.50989312 0.44183087
vt 0.41044131 0.41925079
vt 0.48103374 0.13746685
vt 0.49255824 0.18833268
vt 0.44760451 0.15116304
vt 0.07101279 0.13426864
vt 0.09013283 0.12610978
vt 0.11307334 0.12605321
vt 0.06069718 0.14312220
vt 0.07500032 0.14349306
vt 0.06938858 0.14109206
vt 0.06066442 0.15107906
vt 0.07287028 0.14995456
vt 0.11124495 0.15864730
vt 0.08304298 0.15822613
vt 0.06574707 0.15704513
vt 0.05347125 0.16681093
vt 0.36271331 0.32363915
vt 0.32464281 0.32976884
vt 0.33032304 0.35215920
vt 0.33764642 0.37278289
vt 0.30233389 0.34290820
vt 0.27135336 0.35526538
vt 0.41642123 0.21068376
vt 0.39381689 0.25260723
vt 0.42048490 0.27975965
vt 0.38357162 0.22333819
vt 0.35104942 0.24019116
vt 0.37971804 0.19603729
vt 0.30339485 0.24374068
vt 0.31959566 0.25903696
vt 0.38989750 0.16791183
vt 0.48166156 0.48944837
vt 0.50766182 0.51197374
vt 0.51007599 0.57824576
vt 0.54691988 0.55139434
vt 0.53259116 0.01645988
vt 0.47957915 0.06122869
vt 0.48598346 0.10063696
vt 0.36970845 0.38519233
vt 0.34966946 0.41869712
vt 0.40741140 0.50504661
vt 0.45283020 0.48048824
vt 0.47229877 0.54375196
vt 0.43315905 0.55505377
vt 0.47489786 0.60768950
vt 0.43666077 0.60875595
vt 0.55939049 0.68144083
vt 0.51100159 0.67109954
vt 0.53638697 0.71487343
vt 0.50860780 0.63464254
vt 0.46302524 0.67724878
vt 0.48807251 0.70440388
vt 0.55830878 0.73756242
vt 0.54923534 0.77577990
vt 0.51411384 0.75141442
vt 0.50624806 0.76974910
vt 0.47368920 0.73620617
vt 0.26525700 0.38843167
vt 0.28865179 0.40722668
vt 0.29459941 0.45450360
vt 0.25871244 0.43369830
vt 0.48015663 0.84878671
vt 0.48554078 0.87790179
vt 0.50097781 0.85133362
vt 0.48765576 0.89595652
vt 0.47015274 0.86291814
vt 0.47724402 0.91579664
vt 0.52684307 0.83200824
vt 0.48104578 0.82062912
vt 0.53334492 0.80493176
vt 0.45715788 0.79052943
vt 0.46124598 0.83016580
vt 0.45110780 0.76878625
vt 0.43400210 0.83318603
vt 0.40652218 0.80157948
vt 0.37672180 0.55910838
vt 0.38712153 0.59423405
vt 0.42017463 0.64221275
vt 0.36688939 0.64807761
vt 0.31162462 0.61860865
vt 0.30442026 0.65340662
vt 0.30858758 0.69258332
vt 0.42088574 0.72715020
vt 0.40765062 0.68161976
vt 0.37721628 0.70357883
vt 0.39551553 0.75022250
vt 0.05069366 0.14506727
vt 0.02771901 0.15754116
vt 0.69011790 0.96313989
vt 0.67122352 0.97834522
vt 0.69205970 0.99577117
vt 0.72017372 0.98186934
vt 0.04535642 0.15031981
vt 0.04635418 0.15719026
vt 0.04012230 0.15731370
vt 0.04438683 0.16390413
vt 0.66663677 0.93669444
vt 0.64984787 0.97064638
vt 0.70653242 0.93933755
vt 0.67531133 0.90593511
vt 0.04000841 0.18550956
vt 0.05564944 0.19283056
vt 0.64638799 0.94115740
vt 0.63635164 0.96542835
vt 0.60557038 0.95369160
vt 0.60905677 0.99535811
vt 0.65593058 0.91389197
vt 0.60382116 0.93405724
vt 0.28307101 0.33939743
vt 0.14017959 0.30606389
vt 0.14667939 0.29925513
vt 0.14131232 0.29777980
vt 0.15083659 0.32028300
vt 0.13130453 0.30208355
vt 0.13059776 0.31057066
vt 0.13941355 0.31572372
vt 0.13824052 0.28871548
vt 0.06738618 0.37785697
vt 0.08044638 0.38607717
vt 0.07705010 0.37472749
vt 0.05635978 0.37073380
vt 0.06005791 0.37513626
vt 0.06909104 0.36923498
vt 0.12502360 0.31204343
vt 0.00134884 0.35423023
vt 0.00532188 0.36459351
vt 0.00703617 0.35844326
vt 0.48750082 0.92371494
vt 0.48631588 0.91437155
vt 0.01447004 0.35524464
vt 0.00958165 0.34968877
vt 0.01058188 0.36354262
vt 0.75042653 0.36762851
vt 0.74450755 0.36520147
vt 0.74401909 0.37677187
vt 0.20167203 0.39430219
vt 0.16620156 0.39213198
vt 0.12395366 0.41785401
vt 0.11405147 0.44808578
vt 0.16031110 0.36436415
vt 0.14398913 0.37321657
vt 0.17242339 0.35514802
vt 0.14746802 0.33835077
vt 0.12874667 0.33095884
vt 0.08797709 0.38227296
vt 0.06093100 0.35367268
vt 0.05178536 0.35554987
vt 0.11947747 0.32686466
vt 0.10574797 0.35669714
vt 0.11181170 0.33307791
vt 0.05415630 0.34779513
vt 0.04397647 0.35081726
vt 0.06604806 0.33530074
vt 0.04359575 0.34195369
vt 0.04955730 0.32272655
vt 0.06217933 0.32413799
vt 0.03257107 0.35624284
vt 0.05760758 0.30998039
vt 0.02985246 0.33773446
vt 0.02554765 0.35523653
vt 0.07461722 0.34517789
vt 0.07087319 0.31866300
vt 0.04365501 0.32521719
vt 0.03475443 0.31505966
vt 0.04546731 0.30219179
vt 0.06574874 0.29491949
vt 0.76346564 0.38745397
vt 0.75141346 0.40589082
vt 0.76967496 0.43450248
vt 0.78488964 0.42108077
vt 0.79665655 0.45122540
vt 0.03615343 0.27847278
vt 0.07095226 0.28110075
vt 0.04798726 0.26617247
vt 0.72388142 0.92316449
vt 0.77046043 0.95187503
vt 0.77269262 0.79349923
vt 0.81157547 0.85112637
vt 0.04866092 0.45271361
vt 0.08878659 0.47009903
vt 0.84563512 0.51635718
vt 0.81341290 0.48521250
vt 0.80912745 0.51039338
vt 0.83310854 0.79684269
vt 0.80393559 0.73592049
vt 0.87530774 0.77725381
vt 0.88742119 0.72550821
vt 0.83734947 0.73063803
vt 0.84066725 0.66991270
vt 0.87189305 0.62436134
vt 0.88428116 0.58599162
vt 0.82760441 0.60866553
vt 0.82067305 0.57386100
vt 0.80467093 0.64987433
vt 0.62937981 0.89369136
vt 0.62445247 0.87128460
vt 0.64289570 0.84760541
vt 0.69101703 0.87829447
vt 0.60634208 0.83615839
vt 0.57830995 0.85885179
vt 0.04259405 0.26990503
vt 0.06427789 0.26803577
vt 0.05498607 0.26717234
vt 0.73986524 0.39728403
vt 0.74699467 0.43723232
vt 0.74443477 0.46449548
vt 0.43324423 0.86886024
vt 0.71719956 0.43080115
vt 0.72062570 0.48603487
vt 0.67723662 0.42619056
vt 0.67095309 0.47513539
vt 0.63766932 0.45046711
vt 0.06214167 0.24307227
vt 0.03642548 0.22872114
vt 0.04357597 0.24721301
vt 0.05484577 0.23771852
vt 0.04183961 0.22365135
vt 0.07725570 0.22980839
vt 0.07115929 0.22213715
vt 0.04898967 0.22553217
vt 0.06078126 0.22117209
vt 0.05237302 0.20882010
vt 0.06868143 0.21260375
vt 0.05794486 0.20735246
vt 0.02772751 0.20024544
vt 0.03487910 0.20119870
vt 0.06369808 0.20314384
vt 0.04133299 0.20692563
vt 0.03170771 0.19056910
vt 0.04723401 0.20636398
vt 0.05273795 0.19720215
vt 0.69893420 0.83526784
vt 0.68373173 0.76590252
vt 0.70797557 0.78705913
vt 0.63915968 0.75347281
vt 0.73161566 0.86837769
vt 0.75879306 0.76618516
vt 0.73100358 0.74282068
vt 0.69193155 0.71557152
vt 0.73496336 0.71198404
vt 0.72735345 0.67616618
vt 0.74746573 0.53871703
vt 0.70895296 0.60257655
vt 0.75570613 0.58165562
vt 0.77594703 0.54576522
vt 0.77505982 0.46668279
vt 0.74818307 0.50449419
vt 0.77201265 0.71591079
vt 0.76749790 0.65749335
vt 0.74342626 0.62760091
vt 0.78864509 0.61112690
vt 0.29578969 0.55362153
vt 0.57577723 0.72591603
vt 0.61493033 0.76238370
vt 0.60872507 0.70653814
vt 0.25124803 0.56859756
vt 0.55161613 0.62720674
vt 0.60205454 0.64506489
vt 0.62871164 0.59482419
vt 0.64549339 0.62715578
vt 0.57082337 0.59182650
vt 0.31915107 0.73253006
vt 0.35126647 0.76928586
vt 0.59468794 0.55718648
vt 0.63092500 0.48879677
vt 0.67491764 0.52609420
vt 0.65428722 0.54847181
vt 0.61365139 0.51180881
vt 0.66151679 0.69652545
vt 0.63751948 0.67237455
vt 0.67281765 0.66035622
vt 0.70114332 0.63233042
vt 0.71276802 0.53430945
vt 0.67769516 0.56897068
vt 0.65776736 0.58717632
vt 0.68659407 0.10834742
vt 0.21248186 0.99084860
vt 0.18566708 0.95001835
vt 0.16899416 0.96278358
vt 0.19563501 0.99902344
vt 0.93785173 0.05176479
vt 0.25095919 0.45963562
vt 0.25620553 0.40192741
vt 0.05547800 0.49896127
vt 0.01453551 0.71307635
vt 0.01123788 0.66062379
vt 0.02803490 0.52986097
vt 0.00106702 0.60568225
vt 0.53475320 0.48876208
vt 0.39198413 0.36016035
vt 0.41269004 0.14087588
vt 0.43844202 0.10675812
vt 0.38828081 0.30138046
vt 0.37091371 0.29392552
vt 0.34699339 0.31021696
vt 0.31093729 0.30697745
vt 0.28710985 0.25761759
vt 0.30180120 0.27843297
vt 0.38123614 0.29503626
vt 0.36612868 0.28257442
vt 0.31630158 0.22791493
vt 0.34676614 0.21173549
vt 0.54695922 0.61954463
vt 0.34958002 0.53366989
vt 0.34606448 0.59517312
vt 0.36908269 0.79240793
vt 0.03851191 0.15124035
vt 0.01664560 0.17575842
vt 0.73208213 0.95622635
vt 0.28912950 0.26834476
vt 0.02493181 0.36121058
vt 0.75373566 0.38433057
vt 0.17700000 0.37255752
vt 0.77491969 0.39741969
vt 0.73111343 0.90517092
vt 0.06295700 0.41128975
vt 0.87913716 0.67060864
vt 0.79457927 0.68825209
vt 0.00240815 0.55949569
vt 0.88742119 0.54172564
vt 0.58888286 0.90337229
vt 0.45577896 0.89695632
vt 0.08044638 0.19893336
vt 0.07584408 0.19089246
vt 0.04057457 0.19978899
f 1/1/1 2/2/2 3/3/3
f 4/4/4 5/5/5 6/6/6
f 6/6/6 7/7/7 8/8/8
f 7/7/7 9/9/9 8/8/8
f 10/10/10 11/11/11 2/2/2
f 10/10/10 12/12/12 11/11/11
f 8/8/8 12/12/12 13/13/13
f 12/12/12 9/9/9 14/14/14
f 15/15/15 16/16/16 17/17/17
f 18/18/18 16/16/16 15/15/15
f 19/19/19 16/16/16 20/20/20
f 20/20/20 16/16/16 21/21/21
f 5/5/5 4/4/4 22/22/22
f 23/23/23 24/24/24 25/25/25
f 6/6/6 5/5/5 22/22/22
f 26/26/26 27/27/27 25/25/25
f 28/28/28 29/29/29 27/27/27
f 30/30/30 31/31/31 32/32/32
f 28/28/28 33/33/33 29/29/29
f 24/24/24 34/34/34 25/25/25
f 4/4/4 35/35/35 36/36/36
f 37/37/37 38/38/38 39/39/39
f 38/38/38 40/40/40 39/39/39
f 39/39/39 41/41/41 37/37/37
f 38/38/38 17/17/17 40/40/40
f 39/39/39 40/40/40 42/42/42
f 40/40/40 19/19/19 42/42/42
f 14/14/14 43/43/43 18/18/18
f 44/44/44 43/43/43 14/14/14
f 45/45/45 46/46/46 47/47/47
f 7/7/7 48/48/48 9/9/9
f 49/49/49 50/50/50 31/31/31
f 51/51/51 48/48/48 50/50/50
f 52/52/52 49/49/49 53/53/53
f 53/53/53 54/54/54 52/52/52
f 49/49/49 52/52/52 55/55/55
f 48/48/48 56/56/56 57/57/57
f 45/45/45 18/18/18 58/58/58
f 21/21/21 45/45/45 59/59/59
f 60/60/60 61/61/61 62/62/62
f 30/30/30 53/53/53 31/31/31
f 63/63/63 53/53/53 30/30/30
f 64/64/64 63/63/63 65/65/65
f 66/66/66 67/67/67 68/68/68
f 69/69/69 70/70/70 71/71/71
f 54/54/54 53/53/53 64/64/64
f 72/72/72 70/70/70 69/69/69
f 73/73/73 69/69/69 74/74/74
f 74/74/74 75/75/75 76/76/76
f 77/77/77 75/75/75 74/74/74
f 78/78/78 73/73/73 79/79/79
f 73/73/73 76/76/76 80/80/80
f 81/81/81 82/82/82 42/42/42
f 83/83/83 82/82/82 81/81/81
f 82/82/82 84/84/84 42/42/42
f 84/84/84 82/82/82 85/85/85
f 82/82/82 83/83/83 86/86/86
f 83/83/83 61/61/61 86/86/86
f 61/61/61 87/87/87 86/86/86
f 82/82/82 86/86/86 85/85/85
f 85/85/85 86/86/86 88/88/88
f 24/24/24 89/89/89 34/34/34
f 34/34/34 89/89/89 90/90/90
f 3/3/3 91/91/91 92/92/92
f 93/93/93 25/25/25 94/94/94
f 95/95/95 26/26/26 93/93/93
f 96/96/96 95/95/95 97/97/97
f 98/98/98 97/97/97 95/95/95
f 99/99/99 25/25/25 34/34/34
f 93/93/93 94/94/94 99/99/99
f 100/100/100 34/34/34 90/90/90
f 101/101/101 102/102/102 103/103/103
f 37/37/37 104/104/104 91/91/91
f 105/105/105 106/106/106 102/102/102
f 42/42/42 107/107/107 41/41/41
f 105/105/105 108/108/108 109/109/109
f 107/107/107 42/42/42 84/84/84
f 98/98/98 110/110/110 111/111/111
f 110/110/110 93/93/93 112/112/112
f 113/113/113 111/111/111 114/114/114
f 100/100/100 90/90/90 115/115/115
f 116/116/116 100/100/100 115/115/115
f 112/112/112 116/116/116 117/117/117
f 117/117/117 116/116/116 118/118/118
f 117/117/117 118/118/118 119/119/119
f 120/120/120 113/113/113 117/117/117
f 106/106/106 121/121/121 122/122/122
f 122/122/122 121/121/121 123/123/123
f 124/124/124 119/119/119 118/118/118
f 125/125/125 96/96/96 97/97/97
f 66/66/66 126/126/126 127/127/127
f 128/128/128 129/129/129 130/130/130
f 128/128/128 130/130/130 131/131/131
f 77/77/77 127/127/127 132/132/132
f 133/133/133 127/127/127 134/134/134
f 77/77/77 132/132/132 75/75/75
f 132/132/132 135/135/135 75/75/75
f 136/136/136 132/132/132 133/133/133
f 137/137/137 138/138/138 139/139/139
f 138/138/138 140/140/140 141/141/141
f 142/142/142 98/98/98 111/111/111
f 142/142/142 111/111/111 143/143/143
f 144/144/144 145/145/145 146/146/146
f 147/147/147 148/148/148 149/149/149
f 113/113/113 150/150/150 143/143/143
f 113/113/113 120/120/120 150/150/150
f 151/151/151 108/108/108 137/137/137
f 152/152/152 121/121/121 151/151/151
f 121/121/121 152/152/152 153/153/153
f 154/154/154 152/152/152 151/151/151
f 155/155/155 153/153/153 152/152/152
f 152/152/152 154/154/154 156/156/156
f 139/139/139 156/156/156 154/154/154
f 152/152/152 156/156/156 155/155/155
f 157/157/157 143/143/143 150/150/150
f 158/158/158 119/119/119 124/124/124
f 124/124/124 123/123/123 159/159/159
f 158/158/158 124/124/124 160/160/160
f 160/160/160 124/124/124 159/159/159
f 161/161/161 160/160/160 159/159/159
f 159/159/159 155/155/155 161/161/161
f 56/56/56 162/162/162 163/163/163
f 164/164/164 163/163/163 162/162/162
f 165/165/165 166/166/166 46/46/46
f 47/47/47 166/166/166 167/167/167
f 165/165/165 168/168/168 166/166/166
f 166/166/166 169/169/169 167/167/167
f 170/170/170 48/48/48 171/171/171
f 51/51/51 171/171/171 48/48/48
f 172/172/172 173/173/173 174/174/174
f 173/173/173 175/175/175 176/176/176
f 176/176/176 177/177/177 178/178/178
f 177/177/177 175/175/175 179/179/179
f 60/60/60 47/47/47 167/167/167
f 60/60/60 167/167/167 180/180/180
f 61/61/61 181/181/181 182/182/182
f 181/181/181 180/180/180 182/182/182
f 79/79/79 73/73/73 80/80/80
f 183/183/183 79/79/79 80/80/80
f 183/183/183 80/80/80 76/76/76
f 72/72/72 184/184/184 185/185/185
f 184/184/184 79/79/79 183/183/183
f 183/183/183 76/76/76 186/186/186
f 187/187/187 184/184/184 183/183/183
f 188/188/188 186/186/186 189/189/189
f 187/187/187 188/188/188 190/190/190
f 189/189/189 190/190/190 188/188/188
f 191/191/191 184/184/184 187/187/187
f 192/192/192 187/187/187 190/190/190
f 193/193/193 190/190/190 189/189/189
f 194/194/194 192/192/192 193/193/193
f 195/195/195 196/196/196 197/197/197
f 198/198/198 172/172/172 197/197/197
f 172/172/172 195/195/195 197/197/197
f 197/197/197 199/199/199 198/198/198
f 199/199/199 200/200/200 198/198/198
f 86/86/86 87/87/87 201/201/201
f 202/202/202 88/88/88 203/203/203
f 201/201/201 202/202/202 203/203/203
f 202/202/202 204/204/204 205/205/205
f 201/201/201 206/206/206 204/204/204
f 207/207/207 208/208/208 205/205/205
f 209/209/209 206/206/206 201/201/201
f 201/201/201 203/203/203 86/86/86
f 178/178/178 210/210/210 211/211/211
f 211/211/211 212/212/212 213/213/213
f 168/168/168 214/214/214 169/169/169
f 169/169/169 215/215/215 216/216/216
f 179/179/179 175/175/175 217/217/217
f 179/179/179 217/217/217 218/218/218
f 219/219/219 179/179/179 218/218/218
f 210/210/210 220/220/220 221/221/221
f 220/220/220 219/219/219 222/222/222
f 223/223/223 221/221/221 224/224/224
f 225/225/225 226/226/226 227/227/227
f 226/226/226 228/228/228 229/229/229
f 226/226/226 229/229/229 230/230/230
f 225/225/225 227/227/227 231/231/231
f 232/232/232 233/233/233 234/234/234
f 226/226/226 230/230/230 227/227/227
f 230/230/230 235/235/235 233/233/233
f 198/198/198 200/200/200 236/236/236
f 217/217/217 198/198/198 237/237/237
f 217/217/217 237/237/237 218/218/218
f 237/237/237 198/198/198 236/236/236
f 238/238/238 237/237/237 239/239/239
f 240/240/240 241/241/241 242/242/242
f 243/243/243 244/244/244 245/245/245
f 242/242/242 246/246/246 247/247/247
f 241/241/241 240/240/240 244/244/244
f 240/240/240 242/242/242 247/247/247
f 248/248/248 232/232/232 234/234/234
f 248/248/248 234/234/234 249/249/249
f 248/248/248 249/249/249 246/246/246
f 247/247/247 250/250/250 240/240/240
f 234/234/234 233/233/233 251/251/251
f 252/252/252 249/249/249 253/253/253
f 222/222/222 224/224/224 221/221/221
f 222/222/222 254/254/254 255/255/255
f 256/256/256 224/224/224 255/255/255
f 257/257/257 258/258/258 259/259/259
f 257/257/257 259/259/259 260/260/260
f 261/261/261 229/229/229 262/262/262
f 261/261/261 263/263/263 264/264/264
f 262/262/262 257/257/257 263/263/263
f 249/249/249 251/251/251 253/253/253
f 235/235/235 261/261/261 264/264/264
f 76/76/76 75/75/75 265/265/265
f 266/266/266 136/136/136 133/133/133
f 267/267/267 268/268/268 269/269/269
f 267/267/267 269/269/269 270/270/270
f 193/193/193 189/189/189 271/271/271
f 272/272/272 273/273/273 274/274/274
f 194/194/194 272/272/272 274/274/274
f 193/193/193 272/272/272 194/194/194
f 268/268/268 275/275/275 276/276/276
f 267/267/267 277/277/277 278/278/278
f 279/279/279 280/280/280 194/194/194
f 192/192/192 194/194/194 280/280/280
f 281/281/281 282/282/282 276/276/276
f 283/283/283 284/284/284 282/282/282
f 285/285/285 281/281/281 275/275/275
f 285/285/285 275/275/275 278/278/278
f 286/286/286 281/281/281 285/285/285
f 200/200/200 199/199/199 287/287/287
f 288/288/288 289/289/289 290/290/290
f 291/291/291 289/289/289 288/288/288
f 290/290/290 292/292/292 288/288/288
f 288/288/288 293/293/293 294/294/294
f 290/290/290 295/295/295 292/292/292
f 295/295/295 290/290/290 289/289/289
f 296/296/296 297/297/297 298/298/298
f 299/299/299 300/300/300 301/301/301
f 293/293/293 302/302/302 294/294/294
f 303/303/303 304/304/304 305/305/305
f 306/306/306 307/307/307 245/245/245
f 305/305/305 308/308/308 309/309/309
f 305/305/305 310/310/310 308/308/308
f 305/305/305 304/304/304 310/310/310
f 311/311/311 312/312/312 313/313/313
f 314/314/314 315/315/315 140/140/140
f 141/141/141 316/316/316 317/317/317
f 315/315/315 318/318/318 319/319/319
f 291/291/291 320/320/320 289/289/289
f 321/321/321 320/320/320 294/294/294
f 318/318/318 321/321/321 319/319/319
f 294/294/294 302/302/302 322/322/322
f 316/316/316 315/315/315 323/323/323
f 324/324/324 325/325/325 299/299/299
f 302/302/302 326/326/326 322/322/322
f 315/315/315 327/327/327 323/323/323
f 326/326/326 328/328/328 322/322/322
f 329/329/329 330/330/330 325/325/325
f 324/324/324 331/331/331 329/329/329
f 332/332/332 329/329/329 333/333/333
f 329/329/329 331/331/331 334/334/334
f 335/335/335 330/330/330 332/332/332
f 334/334/334 336/336/336 329/329/329
f 328/328/328 327/327/327 322/322/322
f 309/309/309 308/308/308 337/337/337
f 337/337/337 308/308/308 338/338/338
f 331/331/331 339/339/339 340/340/340
f 337/337/337 332/332/332 341/341/341
f 331/331/331 340/340/340 334/334/334
f 342/342/342 337/337/337 341/341/341
f 343/343/343 341/341/341 333/333/333
f 334/334/334 344/344/344 336/336/336
f 345/345/345 346/346/346 347/347/347
f 348/348/348 347/347/347 349/349/349
f 343/343/343 350/350/350 342/342/342
f 340/340/340 351/351/351 344/344/344
f 343/343/343 333/333/333 352/352/352
f 353/353/353 354/354/354 147/147/147
f 355/355/355 147/147/147 356/356/356
f 317/317/317 357/357/357 358/358/358
f 359/359/359 360/360/360 361/361/361
f 355/355/355 362/362/362 363/363/363
f 364/364/364 365/365/365 366/366/366
f 366/366/366 362/362/362 364/364/364
f 366/366/366 367/367/367 363/363/363
f 368/368/368 369/369/369 370/370/370
f 371/371/371 370/370/370 369/369/369
f 372/372/372 367/367/367 370/370/370
f 286/286/286 285/285/285 373/373/373
f 374/374/374 373/373/373 278/278/278
f 375/375/375 374/374/374 376/376/376
f 239/239/239 237/237/237 236/236/236
f 374/374/374 375/375/375 377/377/377
f 377/377/377 378/378/378 374/374/374
f 379/379/379 350/350/350 343/343/343
f 344/344/344 380/380/380 336/336/336
f 336/336/336 380/380/380 381/381/381
f 382/382/382 383/383/383 346/346/346
f 346/346/346 383/383/383 347/347/347
f 383/383/383 384/384/384 347/347/347
f 250/250/250 252/252/252 385/385/385
f 384/384/384 386/386/386 387/387/387
f 387/387/387 388/388/388 389/389/389
f 388/388/388 390/390/390 389/389/389
f 380/380/380 391/391/391 381/381/381
f 392/392/392 379/379/379 393/393/393
f 393/393/393 379/379/379 352/352/352
f 381/381/381 391/391/391 394/394/394
f 392/392/392 393/393/393 395/395/395
f 396/396/396 397/397/397 380/380/380
f 393/393/393 352/352/352 398/398/398
f 352/352/352 394/394/394 398/398/398
f 399/399/399 394/394/394 391/391/391
f 391/391/391 397/397/397 399/399/399
f 398/398/398 394/394/394 400/400/400
f 399/399/399 401/401/401 402/402/402
f 403/403/403 392/392/392 404/404/404
f 402/402/402 401/401/401 405/405/405
f 392/392/392 395/395/395 406/406/406
f 392/392/392 406/406/406 404/404/404
f 400/400/400 399/399/399 402/402/402
f 404/404/404 407/407/407 403/403/403
f 406/406/406 398/398/398 408/408/408
f 409/409/409 402/402/402 405/405/405
f 410/410/410 375/375/375 376/376/376
f 411/411/411 410/410/410 412/412/412
f 375/375/375 411/411/411 413/413/413
f 410/410/410 414/414/414 415/415/415
f 412/412/412 415/415/415 416/416/416
f 417/417/417 418/418/418 419/419/419
f 420/420/420 421/421/421 422/422/422
f 361/361/361 423/423/423 359/359/359
f 360/360/360 424/424/424 384/384/384
f 360/360/360 384/384/384 425/425/425
f 371/371/371 423/423/423 422/422/422
f 426/426/426 416/416/416 415/415/415
f 415/415/415 363/363/363 426/426/426
f 419/419/419 427/427/427 428/428/428
f 429/429/429 370/370/370 371/371/371
f 429/429/429 372/372/372 370/370/370
f 428/428/428 427/427/427 429/429/429
f 430/430/430 238/238/238 239/239/239
f 431/431/431 377/377/377 432/432/432
f 378/378/378 377/377/377 431/431/431
f 432/432/432 413/413/413 433/433/433
f 258/258/258 430/430/430 434/434/434
f 435/435/435 431/431/431 436/436/436
f 437/437/437 436/436/436 438/438/438
f 439/439/439 436/436/436 437/437/437
f 435/435/435 436/436/436 439/439/439
f 263/263/263 440/440/440 441/441/441
f 442/442/442 439/439/439 437/437/437
f 443/443/443 444/444/444 389/389/389
f 390/390/390 443/443/443 389/389/389
f 444/444/444 443/443/443 445/445/445
f 443/443/443 446/446/446 445/445/445
f 447/447/447 413/413/413 417/417/417
f 433/433/433 413/413/413 447/447/447
f 433/433/433 447/447/447 448/448/448
f 449/449/449 417/417/417 419/419/419
f 449/449/449 419/419/419 450/450/450
f 438/438/438 448/448/448 449/449/449
f 451/451/451 444/444/444 452/452/452
f 453/453/453 421/421/421 452/452/452
f 450/450/450 421/421/421 453/453/453
f 452/452/452 445/445/445 453/453/453
f 453/453/453 437/437/437 438/438/438
f 36/36/36 35/35/35 1/1/1
f 1/1/1 3/3/3 92/92/92
f 1/1/1 35/35/35 2/2/2
f 6/6/6 32/32/32 31/31/31
f 6/6/6 31/31/31 50/50/50
f 6/6/6 50/50/50 7/7/7
f 6/6/6 13/13/13 4/4/4
f 6/6/6 8/8/8 13/13/13
f 35/35/35 10/10/10 2/2/2
f 13/13/13 35/35/35 4/4/4
f 13/13/13 10/10/10 35/35/35
f 13/13/13 12/12/12 10/10/10
f 11/11/11 12/12/12 18/18/18
f 8/8/8 9/9/9 12/12/12
f 18/18/18 12/12/12 14/14/14
f 11/11/11 15/15/15 17/17/17
f 40/40/40 17/17/17 19/19/19
f 17/17/17 16/16/16 19/19/19
f 11/11/11 18/18/18 15/15/15
f 81/81/81 19/19/19 20/20/20
f 81/81/81 20/20/20 62/62/62
f 25/25/25 27/27/27 23/23/23
f 32/32/32 6/6/6 22/22/22
f 29/29/29 23/23/23 27/27/27
f 28/28/28 27/27/27 26/26/26
f 96/96/96 28/28/28 26/26/26
f 22/22/22 4/4/4 36/36/36
f 3/3/3 2/2/2 38/38/38
f 37/37/37 3/3/3 38/38/38
f 2/2/2 11/11/11 17/17/17
f 38/38/38 2/2/2 17/17/17
f 39/39/39 42/42/42 41/41/41
f 42/42/42 19/19/19 81/81/81
f 57/57/57 56/56/56 454/454/454
f 454/454/454 9/9/9 57/57/57
f 9/9/9 454/454/454 14/14/14
f 14/14/14 454/454/454 44/44/44
f 56/56/56 163/163/163 454/454/454
f 44/44/44 454/454/454 163/163/163
f 43/43/43 58/58/58 18/18/18
f 58/58/58 43/43/43 44/44/44
f 46/46/46 58/58/58 44/44/44
f 45/45/45 58/58/58 46/46/46
f 7/7/7 50/50/50 48/48/48
f 31/31/31 53/53/53 49/49/49
f 49/49/49 51/51/51 50/50/50
f 51/51/51 49/49/49 55/55/55
f 48/48/48 57/57/57 9/9/9
f 48/48/48 170/170/170 56/56/56
f 18/18/18 21/21/21 16/16/16
f 45/45/45 21/21/21 18/18/18
f 20/20/20 21/21/21 62/62/62
f 81/81/81 62/62/62 83/83/83
f 59/59/59 62/62/62 21/21/21
f 62/62/62 61/61/61 83/83/83
f 62/62/62 59/59/59 60/60/60
f 59/59/59 45/45/45 47/47/47
f 59/59/59 47/47/47 60/60/60
f 61/61/61 60/60/60 181/181/181
f 455/455/455 28/28/28 456/456/456
f 456/456/456 28/28/28 96/96/96
f 28/28/28 455/455/455 33/33/33
f 457/457/457 455/455/455 456/456/456
f 457/457/457 458/458/458 455/455/455
f 64/64/64 53/53/53 63/63/63
f 71/71/71 67/67/67 66/66/66
f 71/71/71 70/70/70 67/67/67
f 74/74/74 69/69/69 71/71/71
f 64/64/64 459/459/459 54/54/54
f 74/74/74 71/71/71 66/66/66
f 78/78/78 69/69/69 73/73/73
f 72/72/72 69/69/69 78/78/78
f 76/76/76 73/73/73 74/74/74
f 86/86/86 203/203/203 88/88/88
f 89/89/89 101/101/101 90/90/90
f 93/93/93 26/26/26 25/25/25
f 110/110/110 95/95/95 93/93/93
f 95/95/95 96/96/96 26/26/26
f 98/98/98 95/95/95 110/110/110
f 99/99/99 94/94/94 25/25/25
f 112/112/112 99/99/99 100/100/100
f 93/93/93 99/99/99 112/112/112
f 99/99/99 34/34/34 100/100/100
f 91/91/91 3/3/3 37/37/37
f 90/90/90 101/101/101 103/103/103
f 103/103/103 115/115/115 90/90/90
f 102/102/102 106/106/106 103/103/103
f 37/37/37 41/41/41 104/104/104
f 41/41/41 107/107/107 104/104/104
f 105/105/105 109/109/109 106/106/106
f 111/111/111 110/110/110 114/114/114
f 114/114/114 110/110/110 112/112/112
f 117/117/117 114/114/114 112/112/112
f 113/113/113 114/114/114 117/117/117
f 112/112/112 100/100/100 116/116/116
f 118/118/118 116/116/116 115/115/115
f 122/122/122 115/115/115 103/103/103
f 118/118/118 115/115/115 122/122/122
f 106/106/106 122/122/122 103/103/103
f 123/123/123 118/118/118 122/122/122
f 153/153/153 123/123/123 121/121/121
f 124/124/124 118/118/118 123/123/123
f 106/106/106 109/109/109 121/121/121
f 121/121/121 109/109/109 151/151/151
f 109/109/109 108/108/108 151/151/151
f 125/125/125 456/456/456 96/96/96
f 144/144/144 97/97/97 98/98/98
f 125/125/125 457/457/457 456/456/456
f 97/97/97 144/144/144 125/125/125
f 129/129/129 457/457/457 125/125/125
f 66/66/66 68/68/68 126/126/126
f 130/130/130 125/125/125 144/144/144
f 125/125/125 130/130/130 129/129/129
f 131/131/131 130/130/130 144/144/144
f 134/134/134 127/127/127 126/126/126
f 77/77/77 66/66/66 127/127/127
f 74/74/74 66/66/66 77/77/77
f 146/146/146 131/131/131 144/144/144
f 132/132/132 127/127/127 133/133/133
f 136/136/136 135/135/135 132/132/132
f 137/137/137 108/108/108 460/460/460
f 137/137/137 460/460/460 138/138/138
f 460/460/460 461/461/461 138/138/138
f 461/461/461 314/314/314 140/140/140
f 138/138/138 461/461/461 140/140/140
f 144/144/144 98/98/98 145/145/145
f 145/145/145 98/98/98 142/142/142
f 147/147/147 354/354/354 148/148/148
f 356/356/356 147/147/147 149/149/149
f 143/143/143 111/111/111 113/113/113
f 153/153/153 159/159/159 123/123/123
f 151/151/151 137/137/137 154/154/154
f 155/155/155 159/159/159 153/153/153
f 154/154/154 137/137/137 139/139/139
f 139/139/139 138/138/138 141/141/141
f 139/139/139 141/141/141 317/317/317
f 156/156/156 139/139/139 358/358/358
f 462/462/462 156/156/156 358/358/358
f 157/157/157 150/150/150 463/463/463
f 362/362/362 356/356/356 364/364/364
f 120/120/120 117/117/117 119/119/119
f 120/120/120 119/119/119 158/158/158
f 463/463/463 150/150/150 120/120/120
f 120/120/120 158/158/158 463/463/463
f 463/463/463 158/158/158 464/464/464
f 464/464/464 158/158/158 160/160/160
f 465/465/465 161/161/161 155/155/155
f 466/466/466 160/160/160 161/161/161
f 464/464/464 160/160/160 466/466/466
f 465/465/465 155/155/155 156/156/156
f 467/467/467 178/178/178 211/211/211
f 178/178/178 177/177/177 210/210/210
f 56/56/56 170/170/170 162/162/162
f 165/165/165 163/163/163 164/164/164
f 467/467/467 211/211/211 213/213/213
f 46/46/46 44/44/44 165/165/165
f 47/47/47 46/46/46 166/166/166
f 44/44/44 163/163/163 165/165/165
f 165/165/165 164/164/164 168/168/168
f 166/166/166 168/168/168 169/169/169
f 167/167/167 169/169/169 216/216/216
f 51/51/51 55/55/55 171/171/171
f 468/468/468 173/173/173 172/172/172
f 175/175/175 173/173/173 468/468/468
f 177/177/177 176/176/176 175/175/175
f 217/217/217 468/468/468 172/172/172
f 217/217/217 175/175/175 468/468/468
f 60/60/60 180/180/180 181/181/181
f 87/87/87 61/61/61 182/182/182
f 180/180/180 167/167/167 216/216/216
f 87/87/87 182/182/182 469/469/469
f 216/216/216 470/470/470 180/180/180
f 182/182/182 180/180/180 470/470/470
f 184/184/184 72/72/72 78/78/78
f 79/79/79 184/184/184 78/78/78
f 471/471/471 472/472/472 195/195/195
f 195/195/195 472/472/472 473/473/473
f 188/188/188 183/183/183 186/186/186
f 265/265/265 186/186/186 76/76/76
f 172/172/172 174/174/174 471/471/471
f 187/187/187 183/183/183 188/188/188
f 265/265/265 189/189/189 186/186/186
f 195/195/195 172/172/172 471/471/471
f 191/191/191 185/185/185 184/184/184
f 192/192/192 190/190/190 193/193/193
f 195/195/195 473/473/473 196/196/196
f 191/191/191 187/187/187 192/192/192
f 199/199/199 196/196/196 474/474/474
f 474/474/474 287/287/287 199/199/199
f 199/199/199 197/197/197 196/196/196
f 217/217/217 172/172/172 198/198/198
f 208/208/208 475/475/475 476/476/476
f 475/475/475 208/208/208 207/207/207
f 88/88/88 202/202/202 477/477/477
f 202/202/202 478/478/478 477/477/477
f 201/201/201 204/204/204 202/202/202
f 202/202/202 205/205/205 478/478/478
f 478/478/478 205/205/205 476/476/476
f 476/476/476 205/205/205 208/208/208
f 201/201/201 87/87/87 209/209/209
f 479/479/479 207/207/207 205/205/205
f 480/480/480 205/205/205 204/204/204
f 480/480/480 479/479/479 205/205/205
f 213/213/213 212/212/212 481/481/481
f 211/211/211 210/210/210 221/221/221
f 212/212/212 211/211/211 221/221/221
f 212/212/212 223/223/223 228/228/228
f 169/169/169 214/214/214 215/215/215
f 168/168/168 164/164/164 214/214/214
f 481/481/481 212/212/212 228/228/228
f 481/481/481 228/228/228 225/225/225
f 220/220/220 177/177/177 179/179/179
f 177/177/177 220/220/220 210/210/210
f 220/220/220 179/179/179 219/219/219
f 221/221/221 220/220/220 222/222/222
f 212/212/212 221/221/221 223/223/223
f 225/225/225 228/228/228 226/226/226
f 216/216/216 215/215/215 470/470/470
f 469/469/469 182/182/182 470/470/470
f 87/87/87 469/469/469 209/209/209
f 233/233/233 232/232/232 231/231/231
f 231/231/231 227/227/227 233/233/233
f 233/233/233 227/227/227 230/230/230
f 218/218/218 238/238/238 219/219/219
f 238/238/238 218/218/218 237/237/237
f 238/238/238 482/482/482 219/219/219
f 204/204/204 206/206/206 480/480/480
f 243/243/243 241/241/241 244/244/244
f 246/246/246 249/249/249 247/247/247
f 244/244/244 240/240/240 250/250/250
f 250/250/250 247/247/247 249/249/249
f 252/252/252 250/250/250 249/249/249
f 251/251/251 249/249/249 234/234/234
f 251/251/251 233/233/233 235/235/235
f 222/222/222 219/219/219 254/254/254
f 482/482/482 254/254/254 219/219/219
f 256/256/256 223/223/223 224/224/224
f 222/222/222 255/255/255 224/224/224
f 256/256/256 228/228/228 223/223/223
f 229/229/229 228/228/228 256/256/256
f 229/229/229 256/256/256 262/262/262
f 261/261/261 230/230/230 229/229/229
f 235/235/235 230/230/230 261/261/261
f 430/430/430 482/482/482 238/238/238
f 482/482/482 483/483/483 254/254/254
f 430/430/430 483/483/483 482/482/482
f 430/430/430 258/258/258 483/483/483
f 483/483/483 255/255/255 254/254/254
f 257/257/257 256/256/256 255/255/255
f 257/257/257 255/255/255 483/483/483
f 258/258/258 257/257/257 483/483/483
f 261/261/261 262/262/262 263/263/263
f 262/262/262 256/256/256 257/257/257
f 441/441/441 264/264/264 263/263/263
f 263/263/263 257/257/257 260/260/260
f 440/440/440 263/263/263 260/260/260
f 253/253/253 251/251/251 235/235/235
f 264/264/264 253/253/253 235/235/235
f 253/253/253 264/264/264 484/484/484
f 441/441/441 484/484/484 264/264/264
f 265/265/265 75/75/75 135/135/135
f 133/133/133 134/134/134 266/266/266
f 265/265/265 135/135/135 271/271/271
f 271/271/271 135/135/135 485/485/485
f 273/273/273 271/271/271 485/485/485
f 485/485/485 135/135/135 136/136/136
f 485/485/485 136/136/136 266/266/266
f 134/134/134 486/486/486 266/266/266
f 487/487/487 267/267/267 270/270/270
f 272/272/272 271/271/271 273/273/273
f 273/273/273 485/485/485 266/266/266
f 487/487/487 277/277/277 267/267/267
f 266/266/266 486/486/486 273/273/273
f 271/271/271 189/189/189 265/265/265
f 272/272/272 193/193/193 271/271/271
f 279/279/279 274/274/274 273/273/273
f 279/279/279 273/273/273 486/486/486
f 268/268/268 267/267/267 275/275/275
f 274/274/274 279/279/279 194/194/194
f 275/275/275 267/267/267 278/278/278
f 276/276/276 275/275/275 281/281/281
f 283/283/283 282/282/282 281/281/281
f 286/286/286 283/283/283 281/281/281
f 291/291/291 288/288/288 294/294/294
f 288/288/288 292/292/292 293/293/293
f 296/296/296 298/298/298 301/301/301
f 300/300/300 296/296/296 301/301/301
f 488/488/488 476/476/476 475/475/475
f 309/309/309 303/303/303 305/305/305
f 307/307/307 243/243/243 245/245/245
f 310/310/310 338/338/338 308/308/308
f 338/338/338 310/310/310 489/489/489
f 335/335/335 338/338/338 489/489/489
f 490/490/490 311/311/311 313/313/313
f 382/382/382 313/313/313 312/312/312
f 490/490/490 313/313/313 346/346/346
f 141/141/141 140/140/140 316/316/316
f 315/315/315 314/314/314 491/491/491
f 140/140/140 315/315/315 316/316/316
f 491/491/491 318/318/318 315/315/315
f 318/318/318 491/491/491 320/320/320
f 318/318/318 320/320/320 321/321/321
f 294/294/294 320/320/320 291/291/291
f 322/322/322 321/321/321 294/294/294
f 319/319/319 321/321/321 327/327/327
f 315/315/315 319/319/319 327/327/327
f 299/299/299 301/301/301 324/324/324
f 324/324/324 301/301/301 331/331/331
f 325/325/325 324/324/324 329/329/329
f 321/321/321 322/322/322 327/327/327
f 331/331/331 301/301/301 339/339/339
f 301/301/301 298/298/298 339/339/339
f 330/330/330 329/329/329 332/332/332
f 335/335/335 337/337/337 338/338/338
f 337/337/337 335/335/335 332/332/332
f 334/334/334 340/340/340 344/344/344
f 341/341/341 332/332/332 333/333/333
f 336/336/336 333/333/333 329/329/329
f 492/492/492 345/345/345 348/348/348
f 348/348/348 345/345/345 347/347/347
f 345/345/345 490/490/490 346/346/346
f 343/343/343 342/342/342 341/341/341
f 313/313/313 382/382/382 346/346/346
f 487/487/487 354/354/354 353/353/353
f 353/353/353 277/277/277 487/487/487
f 147/147/147 493/493/493 353/353/353
f 414/414/414 147/147/147 355/355/355
f 353/353/353 278/278/278 277/277/277
f 414/414/414 493/493/493 147/147/147
f 493/493/493 376/376/376 353/353/353
f 376/376/376 493/493/493 414/414/414
f 376/376/376 278/278/278 353/353/353
f 410/410/410 376/376/376 414/414/414
f 415/415/415 414/414/414 355/355/355
f 139/139/139 317/317/317 358/358/358
f 462/462/462 358/358/358 357/357/357
f 317/317/317 494/494/494 357/357/357
f 317/317/317 316/316/316 494/494/494
f 494/494/494 316/316/316 323/323/323
f 360/360/360 349/349/349 424/424/424
f 355/355/355 356/356/356 362/362/362
f 415/415/415 355/355/355 363/363/363
f 367/367/367 365/365/365 495/495/495
f 367/367/367 366/366/366 365/365/365
f 366/366/366 363/363/363 362/362/362
f 496/496/496 363/363/363 367/367/367
f 372/372/372 496/496/496 367/367/367
f 497/497/497 161/161/161 465/465/465
f 497/497/497 466/466/466 161/161/161
f 368/368/368 367/367/367 495/495/495
f 367/367/367 368/368/368 370/370/370
f 156/156/156 462/462/462 465/465/465
f 369/369/369 498/498/498 371/371/371
f 359/359/359 371/371/371 498/498/498
f 278/278/278 373/373/373 285/285/285
f 373/373/373 499/499/499 286/286/286
f 374/374/374 499/499/499 373/373/373
f 378/378/378 499/499/499 374/374/374
f 377/377/377 375/375/375 413/413/413
f 432/432/432 377/377/377 413/413/413
f 379/379/379 343/343/343 352/352/352
f 381/381/381 333/333/333 336/336/336
f 349/349/349 347/347/347 424/424/424
f 500/500/500 245/245/245 244/244/244
f 344/344/344 351/351/351 380/380/380
f 352/352/352 333/333/333 381/381/381
f 382/382/382 386/386/386 383/383/383
f 350/350/350 379/379/379 392/392/392
f 500/500/500 244/244/244 385/385/385
f 424/424/424 347/347/347 384/384/384
f 383/383/383 386/386/386 384/384/384
f 385/385/385 244/244/244 250/250/250
f 384/384/384 387/387/387 425/425/425
f 386/386/386 388/388/388 387/387/387
f 351/351/351 396/396/396 380/380/380
f 352/352/352 381/381/381 394/394/394
f 380/380/380 397/397/397 391/391/391
f 395/395/395 393/393/393 398/398/398
f 400/400/400 394/394/394 399/399/399
f 397/397/397 401/401/401 399/399/399
f 501/501/501 397/397/397 396/396/396
f 397/397/397 501/501/501 401/401/401
f 405/405/405 401/401/401 502/502/502
f 401/401/401 501/501/501 502/502/502
f 406/406/406 395/395/395 398/398/398
f 400/400/400 408/408/408 398/398/398
f 409/409/409 405/405/405 502/502/502
f 409/409/409 408/408/408 400/400/400
f 409/409/409 400/400/400 402/402/402
f 503/503/503 404/404/404 406/406/406
f 407/407/407 404/404/404 503/503/503
f 408/408/408 503/503/503 406/406/406
f 407/407/407 503/503/503 409/409/409
f 503/503/503 408/408/408 409/409/409
f 376/376/376 374/374/374 278/278/278
f 411/411/411 375/375/375 410/410/410
f 412/412/412 410/410/410 415/415/415
f 411/411/411 412/412/412 416/416/416
f 417/417/417 411/411/411 416/416/416
f 417/417/417 416/416/416 418/418/418
f 450/450/450 419/419/419 428/428/428
f 420/420/420 451/451/451 421/421/421
f 421/421/421 428/428/428 422/422/422
f 359/359/359 423/423/423 371/371/371
f 360/360/360 425/425/425 361/361/361
f 361/361/361 425/425/425 420/420/420
f 361/361/361 420/420/420 423/423/423
f 420/420/420 425/425/425 387/387/387
f 422/422/422 423/423/423 420/420/420
f 387/387/387 451/451/451 420/420/420
f 426/426/426 418/418/418 416/416/416
f 426/426/426 363/363/363 496/496/496
f 426/426/426 496/496/496 427/427/427
f 372/372/372 427/427/427 496/496/496
f 418/418/418 426/426/426 419/419/419
f 419/419/419 426/426/426 427/427/427
f 422/422/422 429/429/429 371/371/371
f 429/429/429 427/427/427 372/372/372
f 422/422/422 428/428/428 429/429/429
f 434/434/434 430/430/430 239/239/239
f 433/433/433 431/431/431 432/432/432
f 448/448/448 436/436/436 433/433/433
f 259/259/259 258/258/258 434/434/434
f 436/436/436 431/431/431 433/433/433
f 438/438/438 436/436/436 448/448/448
f 452/452/452 444/444/444 445/445/445
f 445/445/445 446/446/446 442/442/442
f 453/453/453 445/445/445 437/437/437
f 437/437/437 445/445/445 442/442/442
f 387/387/387 389/389/389 444/444/444
f 387/387/387 444/444/444 451/451/451
f 417/417/417 413/413/413 411/411/411
f 447/447/447 417/417/417 449/449/449
f 449/449/449 448/448/448 447/447/447
f 449/449/449 450/450/450 438/438/438
f 421/421/421 450/450/450 428/428/428
f 421/421/421 451/451/451 452/452/452
f 450/450/450 453/453/453 438/438/438

