# https://github.com/mikedh/trimesh
mtllib material.mtl

o defaultMaterial
usemtl lambert1
v 0.09527310 0.03969124 0.01294418
v 0.09275796 0.04236777 0.01485479
v 0.09601036 0.03890669 0.01844558
v 0.09813321 0.03664762 0.01360772
v 0.10000000 0.03466105 0.01653495
v 0.10000000 0.03466105 0.02035620
v 0.09813321 0.03664762 0.02328344
v 0.09527310 0.03969124 0.02394697
v 0.09275796 0.04236777 0.02203637
v 0.09176468 0.04342481 0.01844558
v -0.09583923 0.00079578 0.01521577
v -0.09728423 -0.00243210 0.01317393
v -0.09770779 -0.00337827 0.01905314
v -0.09892750 -0.00610266 0.01388305
v -0.10000000 -0.00849847 0.01701130
v -0.10000000 -0.00849847 0.02109497
v -0.09892750 -0.00610266 0.02422320
v -0.09728423 -0.00243210 0.02493232
v -0.09583923 0.00079578 0.02289051
v -0.09526849 0.00207056 0.01905312
v -0.08198274 -0.00604252 0.00898074
v -0.08198274 -0.01476536 0.00394458
v -0.09628479 -0.00334888 0.01372345
v -0.09497483 -0.00042273 0.01557445
v -0.08198274 -0.01476536 0.00394458
v -0.08198274 -0.02468462 0.00569362
v -0.09777445 -0.00667638 0.01436630
v -0.09628479 -0.00334888 0.01372345
v -0.08198274 -0.02468462 0.00569362
v -0.08198274 -0.03115895 0.01340942
v -0.09874670 -0.00884823 0.01720216
v -0.09777445 -0.00667638 0.01436630
v -0.08198274 -0.03115895 0.01340942
v -0.08198274 -0.03115895 0.02348171
v -0.09874670 -0.00884823 0.02090413
v -0.09874670 -0.00884823 0.01720216
v -0.08198274 -0.03115895 0.02348171
v -0.08198274 -0.02468462 0.03119751
v -0.09777445 -0.00667638 0.02373996
v -0.09874670 -0.00884823 0.02090413
v -0.08198274 -0.02468462 0.03119751
v -0.08198274 -0.01476536 0.03294657
v -0.09628479 -0.00334888 0.02438280
v -0.09777445 -0.00667638 0.02373996
v -0.08198274 -0.01476536 0.03294657
v -0.08198274 -0.00604252 0.02791041
v -0.09497483 -0.00042273 0.02253185
v -0.09628479 -0.00334888 0.02438280
v -0.08198274 -0.00604252 0.02791041
v -0.08198272 -0.00259760 0.01844557
v -0.09445743 0.00073292 0.01905312
v -0.09497483 -0.00042273 0.02253185
v -0.08198272 -0.00259760 0.01844557
v -0.08198274 -0.00604252 0.00898074
v -0.09497483 -0.00042273 0.01557445
v -0.09445743 0.00073292 0.01905312
v 0.06012176 -0.00244723 0.00000000
v 0.05831164 0.00590063 0.00640608
v 0.07921695 0.02147416 0.01396953
v 0.08235213 0.01879327 0.01158788
v 0.06218014 -0.01489570 0.00222482
v 0.06012176 -0.00244723 0.00000000
v 0.08235213 0.01879327 0.01158788
v 0.08591733 0.01574461 0.01241502
v 0.06352365 -0.02302089 0.01203950
v 0.06218014 -0.01489570 0.00222482
v 0.08591733 0.01574461 0.01241502
v 0.08824436 0.01375477 0.01606393
v 0.06352365 -0.02302089 0.02485165
v 0.06352365 -0.02302089 0.01203950
v 0.08824436 0.01375477 0.01606393
v 0.08824436 0.01375477 0.02082722
v 0.06218014 -0.01489570 0.03466635
v 0.06352365 -0.02302089 0.02485165
v 0.08824436 0.01375477 0.02082722
v 0.08591733 0.01574461 0.02447613
v 0.06012176 -0.00244723 0.03689115
v 0.06218014 -0.01489570 0.03466635
v 0.08591733 0.01574461 0.02447613
v 0.08235213 0.01879327 0.02530327
v 0.05831164 0.00590063 0.03048507
v 0.06012176 -0.00244723 0.03689115
v 0.08235213 0.01879327 0.02530327
v 0.07921695 0.02147416 0.02292163
v 0.05759677 0.01022395 0.01844557
v 0.05831164 0.00590063 0.03048507
v 0.07921695 0.02147416 0.02292163
v 0.07797875 0.02253296 0.01844558
v 0.05831164 0.00590063 0.00640608
v 0.05759677 0.01022395 0.01844557
v 0.07797875 0.02253296 0.01844558
v 0.07921695 0.02147416 0.01396953
v 0.04262256 -0.00076605 0.00670939
v 0.02820591 -0.00593285 0.00697836
v 0.02752542 -0.00181491 0.01844557
v 0.04192621 0.00344865 0.01844557
v 0.01397465 -0.00993846 0.00724730
v 0.01350994 -0.00590073 0.01844557
v 0.00005274 -0.01310022 0.00751627
v 0.00005289 -0.00912223 0.01844557
v -0.01501368 -0.01513590 0.00778523
v -0.01501366 -0.01125586 0.01844557
v -0.03008004 -0.01536598 0.00805420
v -0.03008021 -0.01158382 0.01844557
v -0.04514646 -0.01421038 0.00832314
v -0.04514674 -0.01052611 0.01844557
v -0.06021285 -0.01261776 0.00859211
v -0.06021328 -0.00903136 0.01844557
v -0.07527925 -0.00836548 0.00886107
v -0.07527984 -0.00487683 0.01844557
v 0.05831164 0.00590063 0.00640608
v 0.06012176 -0.00244723 0.00000000
v 0.04438707 -0.01143728 0.00046469
v 0.04262256 -0.00076605 0.00670939
v 0.06012176 -0.00244723 0.00000000
v 0.06218014 -0.01489570 0.00222482
v 0.04639278 -0.02357260 0.00263347
v 0.04438707 -0.01143728 0.00046469
v 0.06218014 -0.01489570 0.00222482
v 0.06352365 -0.02302089 0.01203950
v 0.04770170 -0.03149345 0.01220089
v 0.04639278 -0.02357260 0.00263347
v 0.06352365 -0.02302089 0.01203950
v 0.06352365 -0.02302089 0.02485165
v 0.04770140 -0.03149362 0.02469025
v 0.04770170 -0.03149345 0.01220089
v 0.06352365 -0.02302089 0.02485165
v 0.06218014 -0.01489570 0.03466635
v 0.04639205 -0.02357302 0.03425765
v 0.04770140 -0.03149362 0.02469025
v 0.06218014 -0.01489570 0.03466635
v 0.06012176 -0.00244723 0.03689115
v 0.04438624 -0.01143775 0.03642643
v 0.04639205 -0.02357302 0.03425765
v 0.06012176 -0.00244723 0.03689115
v 0.05831164 0.00590063 0.03048507
v 0.04262256 -0.00076605 0.03018176
v 0.04438624 -0.01143775 0.03642643
v 0.05831164 0.00590063 0.03048507
v 0.05759677 0.01022395 0.01844557
v 0.04192621 0.00344865 0.01844557
v 0.04262256 -0.00076605 0.03018176
v 0.05759677 0.01022395 0.01844557
v 0.05831164 0.00590063 0.00640608
v -0.08198274 -0.00604252 0.00898074
v -0.08198272 -0.00259760 0.01844557
v -0.07527925 -0.00836548 0.02803008
v -0.07527984 -0.00487683 0.01844557
v -0.08198272 -0.00259760 0.01844557
v -0.08198274 -0.00604252 0.02791041
v -0.07527837 -0.01719895 0.03312993
v -0.07527925 -0.00836548 0.02803008
v -0.08198274 -0.00604252 0.02791041
v -0.08198274 -0.01476536 0.03294657
v -0.07527758 -0.02724393 0.03135879
v -0.07527837 -0.01719895 0.03312993
v -0.08198274 -0.01476536 0.03294657
v -0.08198274 -0.02468462 0.03119751
v -0.07527726 -0.03380028 0.02354539
v -0.07527758 -0.02724393 0.03135879
v -0.08198274 -0.02468462 0.03119751
v -0.08198274 -0.03115895 0.02348171
v -0.07527758 -0.03380015 0.01334574
v -0.07527726 -0.03380028 0.02354539
v -0.08198274 -0.03115895 0.02348171
v -0.08198274 -0.03115895 0.01340942
v -0.07527837 -0.02724363 0.00553237
v -0.07527758 -0.03380015 0.01334574
v -0.08198274 -0.03115895 0.01340942
v -0.08198274 -0.02468462 0.00569362
v -0.07527925 -0.01719863 0.00376125
v -0.07527837 -0.02724363 0.00553237
v -0.08198274 -0.02468462 0.00569362
v -0.08198274 -0.01476536 0.00394458
v -0.07527925 -0.00836548 0.00886107
v -0.07527925 -0.01719863 0.00376125
v -0.08198274 -0.01476536 0.00394458
v -0.08198274 -0.00604252 0.00898074
v -0.06021328 -0.00903136 0.01844557
v -0.06021285 -0.01261776 0.02829904
v -0.04514674 -0.01052611 0.01844557
v -0.04514646 -0.01421039 0.02856801
v -0.03008021 -0.01158382 0.01844557
v -0.03008004 -0.01536598 0.02883695
v -0.01501366 -0.01125586 0.01844557
v -0.01501368 -0.01513590 0.02910592
v 0.00005289 -0.00912223 0.01844557
v 0.00005274 -0.01310022 0.02937488
v 0.01350994 -0.00590073 0.01844557
v 0.01397465 -0.00993846 0.02964385
v 0.02752542 -0.00181491 0.01844557
v 0.02820591 -0.00593285 0.02991279
v -0.06021285 -0.01261776 0.02829904
v -0.06021220 -0.02169884 0.03354200
v -0.04514646 -0.01421039 0.02856801
v -0.04514602 -0.02353934 0.03395406
v -0.03008004 -0.01536598 0.02883695
v -0.03007983 -0.02494274 0.03436612
v -0.01501368 -0.01513590 0.02910592
v -0.01501368 -0.02496054 0.03477818
v 0.00005274 -0.01310022 0.02937488
v 0.00005251 -0.02317273 0.03519025
v 0.01397465 -0.00993846 0.02964385
v 0.01515154 -0.02016224 0.03560231
v 0.02820591 -0.00593285 0.02991279
v 0.02992934 -0.01635973 0.03601437
v -0.06021220 -0.02169884 0.03354200
v -0.06021158 -0.03202549 0.03172115
v -0.04514602 -0.02353934 0.03395406
v -0.04514563 -0.03414783 0.03208350
v -0.03007983 -0.02494274 0.03436612
v -0.03007965 -0.03583308 0.03244585
v -0.01501368 -0.02496054 0.03477818
v -0.01501366 -0.03613270 0.03280822
v 0.00005251 -0.02317273 0.03519025
v 0.00005232 -0.03462678 0.03317058
v 0.01515154 -0.02016224 0.03560231
v 0.01648990 -0.03178825 0.03353293
v 0.02992934 -0.01635973 0.03601437
v 0.03188934 -0.02821666 0.03389528
v -0.06021158 -0.03202549 0.03172115
v -0.06021135 -0.03876572 0.02368851
v -0.04514563 -0.03414783 0.03208350
v -0.04514546 -0.04107201 0.02383161
v -0.03007965 -0.03583308 0.03244585
v -0.03007957 -0.04294121 0.02397472
v -0.01501366 -0.03613270 0.03280822
v -0.01501368 -0.04342481 0.02411782
v 0.00005232 -0.03462678 0.03317058
v 0.00005223 -0.04210287 0.02426092
v 0.01648990 -0.03178825 0.03353293
v 0.01736353 -0.03937661 0.02440404
v 0.03188934 -0.02821666 0.03389528
v 0.03316874 -0.03595564 0.02454713
v -0.06021135 -0.03876572 0.02368851
v -0.06021160 -0.03876569 0.01320264
v -0.04514546 -0.04107201 0.02383161
v -0.04514563 -0.04107199 0.01305952
v -0.03007957 -0.04294121 0.02397472
v -0.03007965 -0.04294121 0.01291642
v -0.01501368 -0.04342481 0.02411782
v -0.01501368 -0.04342481 0.01277331
v 0.00005223 -0.04210287 0.02426092
v 0.00005232 -0.04210287 0.01263021
v 0.01736353 -0.03937661 0.02440404
v 0.01736369 -0.03937657 0.01248711
v 0.03316874 -0.03595564 0.02454713
v 0.03316898 -0.03595559 0.01234399
v -0.06021160 -0.03876569 0.01320264
v -0.06021220 -0.03202541 0.00517000
v -0.04514563 -0.04107199 0.01305952
v -0.04514602 -0.03414776 0.00480765
v -0.03007965 -0.04294121 0.01291642
v -0.03007983 -0.03583306 0.00444527
v -0.01501368 -0.04342481 0.01277331
v -0.01501366 -0.03613270 0.00408292
v 0.00005232 -0.04210287 0.01263021
v 0.00005251 -0.03462676 0.00372055
v 0.01736369 -0.03937657 0.01248711
v 0.01649035 -0.03178817 0.00335820
v 0.03316898 -0.03595559 0.01234399
v 0.03188990 -0.02821649 0.00299583
v -0.06021220 -0.03202541 0.00517000
v -0.06021285 -0.02169876 0.00334917
v -0.04514602 -0.03414776 0.00480765
v -0.04514646 -0.02353930 0.00293711
v -0.03007983 -0.03583306 0.00444527
v -0.03008006 -0.02494274 0.00252505
v -0.01501366 -0.03613270 0.00408292
v -0.01501368 -0.02496054 0.00211296
v 0.00005251 -0.03462676 0.00372055
v 0.00005274 -0.02317269 0.00170090
v 0.01649035 -0.03178817 0.00335820
v 0.01515197 -0.02016212 0.00128884
v 0.03188990 -0.02821649 0.00299583
v 0.02993000 -0.01635952 0.00087676
v -0.06021285 -0.01261776 0.00859211
v -0.06021285 -0.02169876 0.00334917
v -0.04514646 -0.01421038 0.00832314
v -0.04514646 -0.02353930 0.00293711
v -0.03008004 -0.01536598 0.00805420
v -0.03008006 -0.02494274 0.00252505
v -0.01501368 -0.01513590 0.00778523
v -0.01501368 -0.02496054 0.00211296
v 0.00005274 -0.01310022 0.00751627
v 0.00005274 -0.02317269 0.00170090
v 0.01397465 -0.00993846 0.00724730
v 0.01515197 -0.02016212 0.00128884
v 0.02820591 -0.00593285 0.00697836
v 0.02993000 -0.01635952 0.00087676
v 0.08235213 0.01879327 0.01158788
v 0.07921695 0.02147416 0.01396953
v 0.09191706 0.03987667 0.01538865
v 0.09405825 0.03759808 0.01376211
v 0.08591733 0.01574461 0.01241502
v 0.08235213 0.01879327 0.01158788
v 0.09405825 0.03759808 0.01376211
v 0.09649311 0.03500698 0.01432699
v 0.08824436 0.01375477 0.01606393
v 0.08591733 0.01574461 0.01241502
v 0.09649311 0.03500698 0.01432699
v 0.09808236 0.03331576 0.01681901
v 0.08824436 0.01375477 0.02082722
v 0.08824436 0.01375477 0.01606393
v 0.09808236 0.03331576 0.01681901
v 0.09808236 0.03331576 0.02007214
v 0.08591733 0.01574461 0.02447613
v 0.08824436 0.01375477 0.02082722
v 0.09808236 0.03331576 0.02007214
v 0.09649311 0.03500698 0.02256416
v 0.08235213 0.01879327 0.02530327
v 0.08591733 0.01574461 0.02447613
v 0.09649311 0.03500698 0.02256416
v 0.09405825 0.03759808 0.02312904
v 0.07921695 0.02147416 0.02292163
v 0.08235213 0.01879327 0.02530327
v 0.09405825 0.03759808 0.02312904
v 0.09191706 0.03987667 0.02150250
v 0.07797875 0.02253296 0.01844558
v 0.07921695 0.02147416 0.02292163
v 0.09191706 0.03987667 0.02150250
v 0.09107143 0.04077656 0.01844558
v 0.07921695 0.02147416 0.01396953
v 0.07797875 0.02253296 0.01844558
v 0.09107143 0.04077656 0.01844558
v 0.09191706 0.03987667 0.01538865
v 0.09405825 0.03759808 0.01376211
v 0.09191706 0.03987667 0.01538865
v 0.09275796 0.04236777 0.01485479
v 0.09527310 0.03969124 0.01294418
v 0.09649311 0.03500698 0.01432699
v 0.09405825 0.03759808 0.01376211
v 0.09527310 0.03969124 0.01294418
v 0.09813321 0.03664762 0.01360772
v 0.09808236 0.03331576 0.01681901
v 0.09649311 0.03500698 0.01432699
v 0.09813321 0.03664762 0.01360772
v 0.10000000 0.03466105 0.01653495
v 0.09808236 0.03331576 0.02007214
v 0.09808236 0.03331576 0.01681901
v 0.10000000 0.03466105 0.01653495
v 0.10000000 0.03466105 0.02035620
v 0.09649311 0.03500698 0.02256416
v 0.09808236 0.03331576 0.02007214
v 0.10000000 0.03466105 0.02035620
v 0.09813321 0.03664762 0.02328344
v 0.09405825 0.03759808 0.02312904
v 0.09649311 0.03500698 0.02256416
v 0.09813321 0.03664762 0.02328344
v 0.09527310 0.03969124 0.02394697
v 0.09191706 0.03987667 0.02150250
v 0.09405825 0.03759808 0.02312904
v 0.09527310 0.03969124 0.02394697
v 0.09275796 0.04236777 0.02203637
v 0.09107143 0.04077656 0.01844558
v 0.09191706 0.03987667 0.02150250
v 0.09275796 0.04236777 0.02203637
v 0.09176468 0.04342481 0.01844558
v 0.09191706 0.03987667 0.01538865
v 0.09107143 0.04077656 0.01844558
v 0.09176468 0.04342481 0.01844558
v 0.09275796 0.04236777 0.01485479
v -0.09497483 -0.00042273 0.01557445
v -0.09628479 -0.00334888 0.01372345
v -0.09728423 -0.00243210 0.01317393
v -0.09583923 0.00079578 0.01521577
v -0.09628479 -0.00334888 0.01372345
v -0.09777445 -0.00667638 0.01436630
v -0.09892750 -0.00610266 0.01388305
v -0.09728423 -0.00243210 0.01317393
v -0.09777445 -0.00667638 0.01436630
v -0.09874670 -0.00884823 0.01720216
v -0.10000000 -0.00849847 0.01701130
v -0.09892750 -0.00610266 0.01388305
v -0.09874670 -0.00884823 0.01720216
v -0.09874670 -0.00884823 0.02090413
v -0.10000000 -0.00849847 0.02109497
v -0.10000000 -0.00849847 0.01701130
v -0.09874670 -0.00884823 0.02090413
v -0.09777445 -0.00667638 0.02373996
v -0.09892750 -0.00610266 0.02422320
v -0.10000000 -0.00849847 0.02109497
v -0.09777445 -0.00667638 0.02373996
v -0.09628479 -0.00334888 0.02438280
v -0.09728423 -0.00243210 0.02493232
v -0.09892750 -0.00610266 0.02422320
v -0.09628479 -0.00334888 0.02438280
v -0.09497483 -0.00042273 0.02253185
v -0.09583923 0.00079578 0.02289051
v -0.09728423 -0.00243210 0.02493232
v -0.09497483 -0.00042273 0.02253185
v -0.09445743 0.00073292 0.01905312
v -0.09526849 0.00207056 0.01905312
v -0.09583923 0.00079578 0.02289051
v -0.09445743 0.00073292 0.01905312
v -0.09497483 -0.00042273 0.01557445
v -0.09583923 0.00079578 0.01521577
v -0.09526849 0.00207056 0.01905312
vn 0.72873492 0.68479590 -0.00000091
vn 0.72873671 0.68479399 -0.00000316
vn 0.72873541 0.68479537 0.00000003
vn 0.72873448 0.68479636 -0.00000038
vn 0.72873479 0.68479604 -0.00000004
vn 0.72873479 0.68479604 0.00000010
vn 0.72873448 0.68479636 0.00000044
vn 0.72873492 0.68479590 0.00000097
vn 0.72873671 0.68479399 0.00000322
vn 0.72873761 0.68479303 0.00000003
vn -0.91271667 0.40859306 0.00000719
vn -0.91271348 0.40860017 0.00000393
vn -0.91271368 0.40859972 0.00000002
vn -0.91271116 0.40860535 0.00000996
vn -0.91271286 0.40860156 0.00000691
vn -0.91271286 0.40860156 -0.00000687
vn -0.91271116 0.40860535 -0.00000992
vn -0.91271348 0.40860017 -0.00000390
vn -0.91271667 0.40859306 -0.00000715
vn -0.91271480 0.40859722 0.00000002
vn -0.21788131 0.48798906 -0.84521856
vn -0.19713011 0.50352196 -0.84119282
vn -0.10770962 0.56547477 -0.81770222
vn -0.13932064 0.54447915 -0.82712285
vn -0.63034218 -0.13480637 -0.76452337
vn -0.60715625 -0.11087694 -0.78680849
vn -0.45370467 0.03105334 -0.89061089
vn -0.49842659 -0.00785033 -0.86689636
vn -0.77506047 -0.48405339 -0.40616940
vn -0.76834392 -0.47900456 -0.42450236
vn -0.70078169 -0.42976269 -0.56939358
vn -0.71914304 -0.44293514 -0.53538935
vn -0.79946786 -0.60070886 -0.00000003
vn -0.79946786 -0.60070886 -0.00000003
vn -0.79946786 -0.60070886 -0.00000003
vn -0.79946786 -0.60070886 -0.00000003
vn -0.74544717 -0.51061804 0.42845973
vn -0.74454766 -0.50251158 0.43946660
vn -0.72461857 -0.40431723 0.55808199
vn -0.73049033 -0.42670094 0.53320745
vn -0.55263710 -0.14472409 0.82076012
vn -0.54759268 -0.12786843 0.82691712
vn -0.48453961 0.04817945 0.87344153
vn -0.50014289 0.00912849 0.86589477
vn -0.11859290 0.49647286 0.85991303
vn -0.11604066 0.50441390 0.85562911
vn -0.09655866 0.56259859 0.82107202
vn -0.10214919 0.54633169 0.83131656
vn 0.25604627 0.90836723 0.33061955
vn 0.25638373 0.90776326 0.33201394
vn 0.25805237 0.90472761 0.33893499
vn 0.25731306 0.90608275 0.33586312
vn 0.22805110 0.91493069 -0.33300831
vn 0.22734981 0.91481666 -0.33380016
vn 0.22439985 0.91432614 -0.33712373
vn 0.22581135 0.91456303 -0.33553494
vn -0.14045425 0.58341161 -0.79993969
vn -0.13960454 0.58223211 -0.80094715
vn -0.13017558 0.56906245 -0.81192503
vn -0.13210517 0.57176961 -0.80970843
vn 0.47635277 -0.07776059 -0.87580896
vn 0.46830615 -0.06257057 -0.88134799
vn 0.34204578 0.14824395 -0.92791617
vn 0.37007968 0.10515748 -0.92302922
vn 0.75220344 -0.45329915 -0.47823619
vn 0.74986831 -0.44625635 -0.48841865
vn 0.70148251 -0.33407339 -0.62953734
vn 0.71290916 -0.35700801 -0.60357750
vn 0.82992355 -0.55787714 -0.00000002
vn 0.82992355 -0.55787714 -0.00000002
vn 0.82992355 -0.55787714 -0.00000002
vn 0.82992355 -0.55787714 -0.00000002
vn 0.76712713 -0.43861196 0.46811913
vn 0.75961179 -0.43411394 0.48428816
vn 0.67094444 -0.38142494 0.63588409
vn 0.68843941 -0.39177834 0.61037768
vn 0.51178403 -0.06842915 0.85638458
vn 0.48636609 -0.04876031 0.87239352
vn 0.29550232 0.08746199 0.95133001
vn 0.33295996 0.06213235 0.94089172
vn -0.14453164 0.58248705 0.79988714
vn -0.14159428 0.58105602 0.80145178
vn -0.12529501 0.57299366 0.80992557
vn -0.12864818 0.57466908 0.80821104
vn -0.48972716 0.81091958 0.32027604
vn -0.48918849 0.81090479 0.32113556
vn -0.48598255 0.81079989 0.32622769
vn -0.48701870 0.81083694 0.32458627
vn -0.48862176 0.81152609 -0.32042812
vn -0.48862245 0.81125125 -0.32112227
vn -0.48861847 0.80908377 -0.32655083
vn -0.48862152 0.80976744 -0.32484721
vn -0.34795950 0.87558115 -0.33508482
vn -0.29149242 0.89465066 -0.33857401
vn -0.29375605 0.89418999 -0.33783375
vn -0.35002983 0.87481514 -0.33492923
vn -0.23806693 0.91023776 -0.33880872
vn -0.24090810 0.91019126 -0.33692010
vn -0.17354292 0.92502189 -0.33796058
vn -0.17762708 0.92474935 -0.33658174
vn -0.07598245 0.93697615 -0.34103132
vn -0.07727197 0.93688310 -0.34099721
vn 0.02195250 0.93946626 -0.34193748
vn 0.02293385 0.93944552 -0.34193005
vn 0.07892008 0.93676216 -0.34095202
vn 0.07957972 0.93671285 -0.34093415
vn 0.16821796 0.92630328 -0.33714234
vn 0.17547557 0.92511305 -0.33671081
vn 0.27566929 0.90328230 -0.32876667
vn 0.27941581 0.90226498 -0.32839720
vn -0.25095156 0.55447846 -0.79345885
vn -0.26321593 0.51525278 -0.81561752
vn -0.22723175 0.46359288 -0.85641542
vn -0.23367228 0.48061553 -0.84522540
vn 0.06526188 -0.16509241 -0.98411655
vn 0.06526197 -0.16509198 -0.98411662
vn 0.04482894 -0.16856733 -0.98467021
vn 0.05046283 -0.16761714 -0.98455980
vn 0.36433596 -0.69223772 -0.62294963
vn 0.36433575 -0.69223820 -0.62294923
vn 0.28550458 -0.71866451 -0.63404137
vn 0.30058279 -0.71405114 -0.63228233
vn 0.47207069 -0.88156070 -0.00000004
vn 0.47207085 -0.88156061 -0.00000028
vn 0.38511801 -0.92286733 -0.00000332
vn 0.38512223 -0.92286557 -0.00000156
vn 0.36433563 -0.69223852 0.62294894
vn 0.36433602 -0.69223864 0.62294857
vn 0.30057945 -0.71405297 0.63228186
vn 0.28550621 -0.71866724 0.63403755
vn 0.06526106 -0.16509118 0.98411681
vn 0.06526132 -0.16509135 0.98411676
vn 0.05046175 -0.16761707 0.98455987
vn 0.04482803 -0.16856876 0.98467001
vn -0.32596171 0.53004592 0.78281561
vn -0.28327867 0.50656615 0.81433650
vn -0.20184766 0.46958942 0.85950178
vn -0.21608892 0.48123822 0.84953832
vn -0.37420623 0.86548965 0.33301257
vn -0.37420450 0.86548957 0.33301470
vn -0.35003030 0.87481381 0.33493221
vn -0.34796097 0.87558173 0.33508177
vn -0.37420266 0.86549110 -0.33301280
vn -0.37420385 0.86548987 -0.33301466
vn 0.30436685 0.89510851 -0.32579377
vn 0.30436936 0.89510833 -0.32579190
vn 0.27566657 0.90328267 0.32876794
vn 0.27941341 0.90226583 0.32839689
vn 0.30437068 0.89510733 0.32579343
vn 0.30436852 0.89510857 0.32579205
vn 0.13737691 0.49525894 0.85781477
vn 0.14294588 0.49486657 0.85713100
vn 0.15587717 0.49388959 0.85543871
vn 0.15587754 0.49388929 0.85543881
vn -0.08291186 -0.17305077 0.98141686
vn -0.08515079 -0.17301905 0.98123073
vn -0.08960559 -0.17295189 0.98084580
vn -0.08960650 -0.17295110 0.98084586
vn -0.26934296 -0.73773415 0.61903368
vn -0.27506011 -0.73649565 0.61799361
vn -0.29422732 -0.73213562 0.61433519
vn -0.29422712 -0.73213577 0.61433510
vn -0.33974587 -0.94051727 -0.00000168
vn -0.33974419 -0.94051788 -0.00000021
vn -0.36649754 -0.93041902 -0.00000004
vn -0.36649700 -0.93041923 -0.00000045
vn -0.27506421 -0.73649351 -0.61799432
vn -0.26934655 -0.73773388 -0.61903243
vn -0.29422647 -0.73213577 -0.61433542
vn -0.29422631 -0.73213574 -0.61433552
vn -0.08515010 -0.17301664 -0.98123122
vn -0.08291286 -0.17305001 -0.98141691
vn -0.08960419 -0.17295001 -0.98084626
vn -0.08960326 -0.17294953 -0.98084643
vn 0.14294596 0.49486528 -0.85713173
vn 0.13738174 0.49525970 -0.85781355
vn 0.15587959 0.49388948 -0.85543833
vn 0.15587783 0.49388876 -0.85543906
vn 0.17547740 0.92511335 0.33670903
vn 0.16821925 0.92630244 0.33714401
vn 0.07958005 0.93671283 0.34093413
vn 0.07892039 0.93676208 0.34095217
vn 0.02293351 0.93944554 0.34193002
vn 0.02195215 0.93946619 0.34193768
vn -0.07727124 0.93688304 0.34099753
vn -0.07598176 0.93697625 0.34103121
vn -0.17618030 0.92455161 0.33788285
vn -0.17238392 0.92562507 0.33690061
vn -0.24122332 0.90945016 0.33869118
vn -0.23875063 0.91073762 0.33697942
vn -0.29436053 0.89376677 0.33842700
vn -0.29224712 0.89466647 0.33788095
vn 0.08570515 0.49816408 0.86283670
vn 0.07551605 0.49857458 0.86355122
vn 0.03052718 0.49976703 0.86562175
vn 0.02963120 0.49978033 0.86564520
vn 0.00040411 0.50000118 0.86602463
vn -0.00091925 0.50000064 0.86602455
vn -0.05396112 0.49927215 0.86476327
vn -0.05220971 0.49931862 0.86484395
vn -0.10555948 0.49551121 0.86216346
vn -0.10100423 0.49744441 0.86159573
vn -0.13955855 0.48561056 0.86296338
vn -0.13649418 0.48864637 0.86173897
vn -0.16987920 0.47664879 0.86252361
vn -0.16695883 0.47820051 0.86223490
vn -0.06515493 -0.17328138 0.98271481
vn -0.06112046 -0.17332498 0.98296630
vn -0.04574091 -0.17346775 0.98377676
vn -0.04538816 -0.17347045 0.98379262
vn -0.03530620 -0.17354112 0.98419355
vn -0.03478539 -0.17354435 0.98421153
vn -0.01633249 -0.17362562 0.98467629
vn -0.01702893 -0.17362368 0.98466483
vn 0.00161665 -0.17380106 0.98477946
vn 0.00032181 -0.17364899 0.98480756
vn 0.01279758 -0.17376790 0.98470348
vn 0.01228307 -0.17371384 0.98471957
vn 0.02415046 -0.17201165 0.98479884
vn 0.02315188 -0.17220707 0.98478866
vn -0.19170851 -0.75183623 0.63086459
vn -0.18075601 -0.75342583 0.63219995
vn -0.11197635 -0.76122702 0.63874464
vn -0.11097963 -0.76131250 0.63881672
vn -0.06621748 -0.76436303 0.64137696
vn -0.06472879 -0.76443779 0.64143982
vn 0.01642813 -0.76594136 0.64270051
vn 0.01442341 -0.76596493 0.64272054
vn 0.09001548 -0.76242001 0.64079087
vn 0.08634378 -0.76318403 0.64038651
vn 0.13820339 -0.75466331 0.64139155
vn 0.13580759 -0.75595095 0.64038618
vn 0.19101849 -0.74310436 0.64133286
vn 0.18770339 -0.74424668 0.64098699
vn -0.23249800 -0.97259687 0.00000229
vn -0.23250132 -0.97259608 0.00000095
vn -0.13715031 -0.99055025 0.00000058
vn -0.13715073 -0.99055019 0.00000038
vn -0.07740993 -0.99699935 0.00000041
vn -0.07741034 -0.99699932 0.00000036
vn 0.02807316 -0.99960587 0.00000010
vn 0.02807310 -0.99960587 -0.00000000
vn 0.12175084 -0.99256070 0.00000054
vn 0.12175133 -0.99256064 0.00000079
vn 0.18378302 -0.98296684 -0.00000046
vn 0.18378379 -0.98296669 -0.00000006
vn 0.25299532 -0.96746750 -0.00000092
vn 0.25299770 -0.96746688 0.00000077
vn -0.18075590 -0.75342828 -0.63219707
vn -0.19171163 -0.75183664 -0.63086316
vn -0.11097987 -0.76131141 -0.63881798
vn -0.11197677 -0.76122560 -0.63874627
vn -0.06472871 -0.76443799 -0.64143960
vn -0.06621820 -0.76436276 -0.64137720
vn 0.01442303 -0.76596438 -0.64272121
vn 0.01642785 -0.76594067 -0.64270134
vn 0.08704418 -0.76267391 -0.64089923
vn 0.09102880 -0.76286411 -0.64011882
vn 0.13544956 -0.75511675 -0.64144533
vn 0.13832635 -0.75553600 -0.64033677
vn 0.18693645 -0.74398915 -0.64150987
vn 0.19050109 -0.74360506 -0.64090627
vn -0.06112076 -0.17332398 -0.98296645
vn -0.06515537 -0.17327917 -0.98271517
vn -0.04538791 -0.17346909 -0.98379287
vn -0.04574041 -0.17346649 -0.98377700
vn -0.03478559 -0.17354188 -0.98421196
vn -0.03530667 -0.17353855 -0.98419399
vn -0.01702848 -0.17362316 -0.98466493
vn -0.01633218 -0.17362503 -0.98467640
vn 0.00020573 -0.17377490 -0.98478538
vn 0.00140750 -0.17364735 -0.98480689
vn 0.01248753 -0.17380447 -0.98470100
vn 0.01295630 -0.17364823 -0.98472251
vn 0.02311389 -0.17218062 -0.98479418
vn 0.02413090 -0.17204041 -0.98479429
vn 0.08570197 0.49816134 -0.86283860
vn 0.07551761 0.49857285 -0.86355208
vn 0.03052810 0.49976617 -0.86562221
vn 0.02963276 0.49977944 -0.86564566
vn 0.00040326 0.49999979 -0.86602543
vn -0.00091943 0.49999997 -0.86602493
vn -0.05396096 0.49927197 -0.86476339
vn -0.05220975 0.49931875 -0.86484387
vn -0.10809078 0.49707166 -0.86095072
vn -0.10247044 0.49593545 -0.86229220
vn -0.13949832 0.48803590 -0.86160384
vn -0.13508488 0.48641297 -0.86322332
vn -0.16911880 0.47764053 -0.86212433
vn -0.16564674 0.47754330 -0.86285199
vn -0.37344173 0.33259540 -0.86598012
vn -0.37093815 0.33026569 -0.86794554
vn -0.34627467 0.30732718 -0.88636553
vn -0.34947851 0.31030573 -0.88406738
vn 0.21075838 -0.01870229 -0.97735926
vn 0.21057419 -0.01853439 -0.97740216
vn 0.20882310 -0.01693881 -0.97780672
vn 0.20904884 -0.01714445 -0.97775490
vn 0.70407601 -0.32983187 -0.62887830
vn 0.70273082 -0.32832713 -0.63116614
vn 0.68955577 -0.31380414 -0.65271724
vn 0.69137357 -0.31578574 -0.64983225
vn 0.89337430 -0.44931321 -0.00000002
vn 0.89337430 -0.44931321 -0.00000002
vn 0.89337430 -0.44931321 -0.00000002
vn 0.89337430 -0.44931321 -0.00000002
vn 0.70663313 -0.32561305 0.62820837
vn 0.70453888 -0.32501720 0.63086352
vn 0.68559227 -0.31956223 0.65409725
vn 0.68873687 -0.32047537 0.65033611
vn 0.21103003 -0.01837051 0.97730694
vn 0.21074897 -0.01826195 0.97736962
vn 0.20839980 -0.01735477 0.97788974
vn 0.20880208 -0.01751008 0.97780115
vn -0.37781000 0.32752153 0.86601920
vn -0.37385656 0.32613132 0.86825666
vn -0.33953556 0.31388136 0.88667587
vn -0.34532007 0.31596838 0.88369567
vn -0.76376081 0.54811929 0.34093207
vn -0.76260707 0.54803759 0.34363536
vn -0.75143819 0.54703786 0.36890408
vn -0.75318807 0.54721830 0.36504776
vn -0.76118657 0.55161734 -0.34104737
vn -0.76067079 0.55075643 -0.34358013
vn -0.75526676 0.54202349 -0.36848699
vn -0.75603996 0.54324386 -0.36508859
vn -0.58766578 0.02506206 -0.80871554
vn -0.58766583 0.02506106 -0.80871554
vn -0.58766586 0.02506053 -0.80871553
vn -0.58766581 0.02506145 -0.80871554
vn -0.10746150 -0.30712583 -0.94558223
vn -0.10746169 -0.30712670 -0.94558192
vn -0.10746178 -0.30712712 -0.94558178
vn -0.10746161 -0.30712631 -0.94558206
vn 0.35744716 -0.65093399 -0.66971373
vn 0.35744659 -0.65093504 -0.66971300
vn 0.35744631 -0.65093557 -0.66971263
vn 0.35744683 -0.65093460 -0.66971330
vn 0.57430455 -0.81864173 -0.00000004
vn 0.57430455 -0.81864173 -0.00000004
vn 0.57430455 -0.81864173 -0.00000004
vn 0.57430455 -0.81864173 -0.00000004
vn 0.35744552 -0.65093521 0.66971341
vn 0.35744697 -0.65093483 0.66971300
vn 0.35744771 -0.65093464 0.66971279
vn 0.35744640 -0.65093498 0.66971317
vn -0.10746253 -0.30712679 0.94558180
vn -0.10746145 -0.30712657 0.94558199
vn -0.10746091 -0.30712646 0.94558209
vn -0.10746188 -0.30712666 0.94558192
vn -0.58766659 0.02506082 0.80871499
vn -0.58766567 0.02506122 0.80871564
vn -0.58766516 0.02506145 0.80871601
vn -0.58766599 0.02506108 0.80871542
vn -0.91530569 0.23960807 0.32373364
vn -0.91530891 0.23960319 0.32372814
vn -0.91531093 0.23960013 0.32372469
vn -0.91530802 0.23960454 0.32372966
vn -0.91530904 0.23959804 -0.32373158
vn -0.91530845 0.23960463 -0.32372838
vn -0.91530808 0.23960872 -0.32372640
vn -0.91530862 0.23960269 -0.32372933
vn 0.61140505 0.20906971 -0.76319966
vn 0.61140731 0.20906890 -0.76319807
vn 0.61140795 0.20906866 -0.76319762
vn 0.61140583 0.20906943 -0.76319911
vn 0.24453867 -0.28833023 -0.92577887
vn 0.24453835 -0.28833022 -0.92577896
vn 0.24453826 -0.28833021 -0.92577898
vn 0.24453856 -0.28833023 -0.92577890
vn -0.11862403 -0.76826323 -0.62904685
vn -0.11861112 -0.76826408 -0.62904826
vn -0.11860790 -0.76826429 -0.62904861
vn -0.11862010 -0.76826349 -0.62904728
vn -0.26880341 -0.96319506 -0.00000004
vn -0.26880341 -0.96319506 -0.00000004
vn -0.26880341 -0.96319506 -0.00000004
vn -0.26880341 -0.96319506 -0.00000004
vn -0.11861702 -0.76826308 0.62904837
vn -0.11862627 -0.76825809 0.62905271
vn -0.11862835 -0.76825697 0.62905369
vn -0.11861947 -0.76826176 0.62904952
vn 0.24452933 -0.28832184 0.92578395
vn 0.24453682 -0.28832878 0.92577981
vn 0.24453857 -0.28833041 0.92577884
vn 0.24453136 -0.28832372 0.92578283
vn 0.61140283 0.20905898 0.76320438
vn 0.61139646 0.20906909 0.76320671
vn 0.61139483 0.20907168 0.76320731
vn 0.61140095 0.20906196 0.76320506
vn 0.81916562 0.49668131 0.28683682
vn 0.81916328 0.49668570 0.28683590
vn 0.81916263 0.49668693 0.28683565
vn 0.81916486 0.49668273 0.28683652
vn 0.81916093 0.49668593 -0.28684222
vn 0.81916603 0.49668016 -0.28683765
vn 0.81916752 0.49667847 -0.28683632
vn 0.81916268 0.49668394 -0.28684065
vt 0.95659798 0.51400197
vt 0.93968803 0.48372799
vt 0.91080701 0.52438498
vt 0.95208198 0.54913402
vt 0.92825300 0.57268500
vt 0.89626199 0.57363600
vt 0.87107599 0.55154097
vt 0.86448199 0.51673996
vt 0.87956399 0.48551601
vt 0.90926498 0.47247797
vt 0.95290703 0.35446602
vt 0.91966099 0.33549398
vt 0.91022199 0.39065200
vt 0.88199800 0.34233201
vt 0.85754102 0.37177902
vt 0.85773498 0.41005701
vt 0.88248700 0.43925500
vt 0.92021698 0.44571102
vt 0.95327002 0.42640501
vt 0.96618098 0.39037001
vt 0.21622300 0.22843403
vt 0.26328200 0.22843403
vt 0.26328200 0.03175002
vt 0.21622300 0.03175002
vt 0.26328200 0.22843403
vt 0.31420499 0.22843403
vt 0.31420499 0.03175002
vt 0.26328200 0.03175002
vt 0.31420499 0.22843403
vt 0.36616501 0.22843403
vt 0.36616501 0.03175002
vt 0.31420499 0.03175002
vt 0.36616501 0.22843403
vt 0.41737500 0.22843403
vt 0.41737500 0.03175002
vt 0.36616501 0.03175002
vt 0.41737500 0.22843403
vt 0.47103399 0.22843403
vt 0.47103399 0.03175002
vt 0.41737500 0.03175002
vt 0.47103399 0.22843403
vt 0.53103900 0.22843403
vt 0.53103900 0.03175002
vt 0.47103399 0.03175002
vt 0.02011700 0.22843403
vt 0.06963800 0.22843403
vt 0.06963800 0.03175002
vt 0.02011700 0.03175002
vt 0.06963800 0.22843403
vt 0.13433699 0.22843403
vt 0.13433699 0.03175002
vt 0.06963800 0.03175002
vt 0.13433699 0.22843403
vt 0.21622300 0.22843403
vt 0.21622300 0.03175002
vt 0.13433699 0.03175002
vt 0.49394500 0.98040599
vt 0.53582603 0.98040599
vt 0.53582603 0.77964497
vt 0.49394500 0.77964497
vt 0.94056797 0.98040599
vt 0.98510098 0.95258701
vt 0.98510098 0.77964497
vt 0.94056797 0.77964497
vt 0.89039397 0.98040599
vt 0.94056797 0.98040599
vt 0.94056797 0.77964497
vt 0.89039397 0.77964497
vt 0.83778203 0.98040599
vt 0.89039397 0.98040599
vt 0.89039397 0.77964497
vt 0.83778203 0.77964497
vt 0.78691298 0.98040599
vt 0.83778203 0.98040599
vt 0.83778203 0.77964497
vt 0.78691298 0.77964497
vt 0.74051303 0.98040599
vt 0.78691298 0.98040599
vt 0.78691298 0.77964497
vt 0.74051303 0.77964497
vt 0.69559300 0.98040599
vt 0.74051303 0.98040599
vt 0.74051303 0.77964497
vt 0.69559300 0.77964497
vt 0.61530799 0.98040599
vt 0.69559300 0.98040599
vt 0.69559300 0.77964497
vt 0.61530799 0.77964497
vt 0.53582603 0.98040599
vt 0.61530799 0.98040599
vt 0.61530799 0.77964497
vt 0.53582603 0.77964497
vt 0.23123200 0.91561997
vt 0.23123200 0.84753597
vt 0.17040300 0.84753597
vt 0.17040300 0.91561997
vt 0.23123200 0.77651501
vt 0.17040300 0.77651501
vt 0.23123200 0.70306599
vt 0.17040300 0.70306599
vt 0.23123200 0.63226497
vt 0.17040300 0.63226497
vt 0.23123200 0.56146300
vt 0.17040300 0.56146300
vt 0.23123200 0.49066198
vt 0.17040300 0.49066198
vt 0.23123200 0.41944402
vt 0.17040300 0.41944402
vt 0.23123200 0.34719700
vt 0.17040300 0.34719700
vt 0.23123200 0.98973399
vt 0.28352100 0.98973399
vt 0.28352100 0.91561997
vt 0.23123200 0.91561997
vt 0.28352100 0.98973399
vt 0.34713599 0.98973399
vt 0.34713599 0.91561997
vt 0.28352100 0.91561997
vt 0.34713599 0.98973399
vt 0.39446700 0.98973399
vt 0.39446700 0.91561997
vt 0.34713599 0.91561997
vt 0.39446700 0.98973399
vt 0.44714001 0.98973399
vt 0.44714001 0.91561997
vt 0.39446700 0.91561997
vt 0.44714001 0.98973399
vt 0.48749000 0.98973399
vt 0.48749000 0.91561997
vt 0.44714001 0.91561997
vt 0.00954300 0.98973399
vt 0.06617700 0.98973399
vt 0.06617700 0.91561997
vt 0.00954300 0.91561997
vt 0.06617700 0.98973399
vt 0.11402000 0.98973399
vt 0.11402000 0.91561997
vt 0.06617700 0.91561997
vt 0.11402000 0.98973399
vt 0.17040300 0.98973399
vt 0.17040300 0.91561997
vt 0.11402000 0.91561997
vt 0.17040300 0.98973399
vt 0.23123200 0.98973399
vt 0.23123200 0.31535602
vt 0.17040300 0.31535602
vt 0.11402000 0.34719700
vt 0.17040300 0.34719700
vt 0.17040300 0.31535602
vt 0.11402000 0.31535602
vt 0.06617700 0.34719700
vt 0.11402000 0.34719700
vt 0.11402000 0.31535602
vt 0.06617700 0.31535602
vt 0.00954300 0.34719700
vt 0.06617700 0.34719700
vt 0.06617700 0.31535602
vt 0.00954300 0.31535602
vt 0.44714001 0.34719700
vt 0.48749000 0.34719700
vt 0.48749000 0.31535602
vt 0.44714001 0.31535602
vt 0.39446700 0.34719700
vt 0.44714001 0.34719700
vt 0.44714001 0.31535602
vt 0.39446700 0.31535602
vt 0.34713599 0.34719700
vt 0.39446700 0.34719700
vt 0.39446700 0.31535602
vt 0.34713599 0.31535602
vt 0.28352100 0.34719700
vt 0.34713599 0.34719700
vt 0.34713599 0.31535602
vt 0.28352100 0.31535602
vt 0.23123200 0.34719700
vt 0.28352100 0.34719700
vt 0.28352100 0.31535602
vt 0.23123200 0.31535602
vt 0.17040300 0.41944402
vt 0.11402000 0.41944402
vt 0.17040300 0.49066198
vt 0.11402000 0.49066198
vt 0.17040300 0.56146300
vt 0.11402000 0.56146300
vt 0.17040300 0.63226497
vt 0.11402000 0.63226497
vt 0.17040300 0.70306599
vt 0.11402000 0.70306599
vt 0.17040300 0.77651501
vt 0.11402000 0.77651501
vt 0.17040300 0.84753597
vt 0.11402000 0.84753597
vt 0.11402000 0.41944402
vt 0.06617700 0.41944402
vt 0.11402000 0.49066198
vt 0.06617700 0.49066198
vt 0.11402000 0.56146300
vt 0.06617700 0.56146300
vt 0.11402000 0.63226497
vt 0.06617700 0.63226497
vt 0.11402000 0.70306599
vt 0.06617700 0.70306599
vt 0.11402000 0.77651501
vt 0.06617700 0.77651501
vt 0.11402000 0.84753597
vt 0.06617700 0.84753597
vt 0.06617700 0.41944402
vt 0.00954300 0.41944402
vt 0.06617700 0.49066198
vt 0.00954300 0.49066198
vt 0.06617700 0.56146300
vt 0.00954300 0.56146300
vt 0.06617700 0.63226497
vt 0.00954300 0.63226497
vt 0.06617700 0.70306599
vt 0.00954300 0.70306599
vt 0.06617700 0.77651501
vt 0.00954300 0.77651501
vt 0.06617700 0.84753597
vt 0.00954300 0.84753597
vt 0.48749000 0.41944402
vt 0.44714001 0.41944402
vt 0.48749000 0.49066198
vt 0.44714001 0.49066198
vt 0.48749000 0.56146300
vt 0.44714001 0.56146300
vt 0.48749000 0.63226497
vt 0.44714001 0.63226497
vt 0.48749000 0.70306599
vt 0.44714001 0.70306599
vt 0.48749000 0.77651501
vt 0.44714001 0.77651501
vt 0.48749000 0.84753597
vt 0.44714001 0.84753597
vt 0.44714001 0.41944402
vt 0.39446700 0.41944402
vt 0.44714001 0.49066198
vt 0.39446700 0.49066198
vt 0.44714001 0.56146300
vt 0.39446700 0.56146300
vt 0.44714001 0.63226497
vt 0.39446700 0.63226497
vt 0.44714001 0.70306599
vt 0.39446700 0.70306599
vt 0.44714001 0.77651501
vt 0.39446700 0.77651501
vt 0.44714001 0.84753597
vt 0.39446700 0.84753597
vt 0.39446700 0.41944402
vt 0.34713599 0.41944402
vt 0.39446700 0.49066198
vt 0.34713599 0.49066198
vt 0.39446700 0.56146300
vt 0.34713599 0.56146300
vt 0.39446700 0.63226497
vt 0.34713599 0.63226497
vt 0.39446700 0.70306599
vt 0.34713599 0.70306599
vt 0.39446700 0.77651501
vt 0.34713599 0.77651501
vt 0.39446700 0.84753597
vt 0.34713599 0.84753597
vt 0.34713599 0.41944402
vt 0.28352100 0.41944402
vt 0.34713599 0.49066198
vt 0.28352100 0.49066198
vt 0.34713599 0.56146300
vt 0.28352100 0.56146300
vt 0.34713599 0.63226497
vt 0.28352100 0.63226497
vt 0.34713599 0.70306599
vt 0.28352100 0.70306599
vt 0.34713599 0.77651501
vt 0.28352100 0.77651501
vt 0.34713599 0.84753597
vt 0.28352100 0.84753597
vt 0.23123200 0.41944402
vt 0.28352100 0.41944402
vt 0.23123200 0.49066198
vt 0.28352100 0.49066198
vt 0.23123200 0.56146300
vt 0.28352100 0.56146300
vt 0.23123200 0.63226497
vt 0.28352100 0.63226497
vt 0.23123200 0.70306599
vt 0.28352100 0.70306599
vt 0.23123200 0.77651501
vt 0.28352100 0.77651501
vt 0.23123200 0.84753597
vt 0.28352100 0.84753597
vt 0.83056903 0.26485401
vt 0.87522501 0.26485401
vt 0.87522501 0.01811600
vt 0.83056903 0.01811600
vt 0.78134602 0.26485401
vt 0.83056903 0.26485401
vt 0.83056903 0.01811600
vt 0.78134602 0.01811600
vt 0.73722702 0.26485401
vt 0.78134602 0.26485401
vt 0.78134602 0.01811600
vt 0.73722702 0.01811600
vt 0.68466198 0.26485401
vt 0.73722702 0.26485401
vt 0.73722702 0.01811600
vt 0.68466198 0.01811600
vt 0.64374501 0.26485401
vt 0.68466198 0.26485401
vt 0.68466198 0.01811600
vt 0.64374501 0.01811600
vt 0.59534502 0.26485401
vt 0.64374501 0.26485401
vt 0.64374501 0.01811600
vt 0.59534502 0.01811600
vt 0.55271602 0.26485401
vt 0.59534502 0.26485401
vt 0.59534502 0.01811600
vt 0.55271602 0.01811600
vt 0.92919701 0.26485300
vt 0.97983098 0.26485300
vt 0.97983098 0.01811600
vt 0.92919701 0.01811600
vt 0.87522501 0.26485401
vt 0.92919701 0.26485300
vt 0.92919701 0.01811600
vt 0.87522501 0.01811600
vt 0.13600899 0.29830903
vt 0.19100200 0.29830903
vt 0.19100200 0.25846303
vt 0.13600899 0.25846303
vt 0.06529400 0.29830903
vt 0.13600899 0.29830903
vt 0.13600899 0.25846303
vt 0.06529400 0.25846303
vt 0.01959900 0.29830903
vt 0.06529400 0.29830903
vt 0.06529400 0.25846303
vt 0.01959900 0.25846303
vt 0.48549500 0.29830903
vt 0.55066401 0.29830903
vt 0.55066401 0.25846303
vt 0.48549500 0.25846303
vt 0.43991500 0.29830903
vt 0.48549500 0.29830903
vt 0.48549500 0.25846303
vt 0.43991500 0.25846303
vt 0.36973900 0.29830903
vt 0.43991500 0.29830903
vt 0.43991500 0.25846303
vt 0.36973900 0.25846303
vt 0.31374699 0.29830903
vt 0.36973900 0.29830903
vt 0.36973900 0.25846303
vt 0.31374699 0.25846303
vt 0.25213501 0.29830903
vt 0.31374699 0.29830903
vt 0.31374699 0.25846303
vt 0.25213501 0.25846303
vt 0.19100200 0.29830903
vt 0.25213501 0.29830903
vt 0.25213501 0.25846303
vt 0.19100200 0.25846303
vt 0.62173700 0.62027299
vt 0.57461399 0.62027299
vt 0.57461399 0.63813299
vt 0.62173700 0.63813299
vt 0.57461399 0.62027299
vt 0.52046001 0.62027299
vt 0.52046001 0.63813299
vt 0.57461399 0.63813299
vt 0.97349203 0.62027299
vt 0.92280197 0.62027299
vt 0.92280197 0.63813299
vt 0.97349203 0.63813299
vt 0.92280197 0.62027299
vt 0.87099600 0.62027299
vt 0.87099600 0.63813299
vt 0.92280197 0.63813299
vt 0.87099600 0.62027299
vt 0.81888300 0.62027299
vt 0.81888300 0.63813299
vt 0.87099600 0.63813299
vt 0.81888300 0.62027299
vt 0.76391500 0.62027299
vt 0.76391500 0.63813299
vt 0.81888300 0.63813299
vt 0.76391500 0.62027299
vt 0.71645701 0.62027299
vt 0.71645701 0.63813299
vt 0.76391500 0.63813299
vt 0.71645701 0.62027299
vt 0.66948998 0.62027299
vt 0.66948998 0.63813299
vt 0.71645701 0.63813299
vt 0.66948998 0.62027299
vt 0.62173700 0.62027299
vt 0.62173700 0.63813299
vt 0.66948998 0.63813299
f 1/1/1 2/2/2 3/3/3
f 4/4/4 1/1/1 3/3/3
f 5/5/5 4/4/4 3/3/3
f 6/6/6 5/5/5 3/3/3
f 7/7/7 6/6/6 3/3/3
f 8/8/8 7/7/7 3/3/3
f 9/9/9 8/8/8 3/3/3
f 10/10/10 9/9/9 3/3/3
f 2/2/2 10/10/10 3/3/3
f 11/11/11 12/12/12 13/13/13
f 12/12/12 14/14/14 13/13/13
f 14/14/14 15/15/15 13/13/13
f 15/15/15 16/16/16 13/13/13
f 16/16/16 17/17/17 13/13/13
f 17/17/17 18/18/18 13/13/13
f 18/18/18 19/19/19 13/13/13
f 19/19/19 20/20/20 13/13/13
f 20/20/20 11/11/11 13/13/13
f 24/24/24 21/21/21 22/22/22
f 22/22/22 23/23/23 24/24/24
f 28/28/28 25/25/25 26/26/26
f 26/26/26 27/27/27 28/28/28
f 32/32/32 29/29/29 30/30/30
f 30/30/30 31/31/31 32/32/32
f 36/36/36 33/33/33 34/34/34
f 34/34/34 35/35/35 36/36/36
f 40/40/40 37/37/37 38/38/38
f 38/38/38 39/39/39 40/40/40
f 44/44/44 41/41/41 42/42/42
f 42/42/42 43/43/43 44/44/44
f 48/48/48 45/45/45 46/46/46
f 46/46/46 47/47/47 48/48/48
f 52/52/52 49/49/49 50/50/50
f 50/50/50 51/51/51 52/52/52
f 56/56/56 53/53/53 54/54/54
f 54/54/54 55/55/55 56/56/56
f 60/60/60 57/57/57 58/58/58
f 58/58/58 59/59/59 60/60/60
f 64/64/64 61/61/61 62/62/62
f 62/62/62 63/63/63 64/64/64
f 68/68/68 65/65/65 66/66/66
f 66/66/66 67/67/67 68/68/68
f 72/72/72 69/69/69 70/70/70
f 70/70/70 71/71/71 72/72/72
f 76/76/76 73/73/73 74/74/74
f 74/74/74 75/75/75 76/76/76
f 80/80/80 77/77/77 78/78/78
f 78/78/78 79/79/79 80/80/80
f 84/84/84 81/81/81 82/82/82
f 82/82/82 83/83/83 84/84/84
f 88/88/88 85/85/85 86/86/86
f 86/86/86 87/87/87 88/88/88
f 92/92/92 89/89/89 90/90/90
f 90/90/90 91/91/91 92/92/92
f 96/96/96 93/93/93 94/94/94
f 94/94/94 95/95/95 96/96/96
f 95/95/95 94/94/94 97/97/97
f 97/97/97 98/98/98 95/95/95
f 98/98/98 97/97/97 99/99/99
f 99/99/99 100/100/100 98/98/98
f 100/100/100 99/99/99 101/101/101
f 101/101/101 102/102/102 100/100/100
f 102/102/102 101/101/101 103/103/103
f 103/103/103 104/104/104 102/102/102
f 104/104/104 103/103/103 105/105/105
f 105/105/105 106/106/106 104/104/104
f 106/106/106 105/105/105 107/107/107
f 107/107/107 108/108/108 106/106/106
f 108/108/108 107/107/107 109/109/109
f 109/109/109 110/110/110 108/108/108
f 114/114/114 111/111/111 112/112/112
f 112/112/112 113/113/113 114/114/114
f 118/118/118 115/115/115 116/116/116
f 116/116/116 117/117/117 118/118/118
f 122/122/122 119/119/119 120/120/120
f 120/120/120 121/121/121 122/122/122
f 126/126/126 123/123/123 124/124/124
f 124/124/124 125/125/125 126/126/126
f 130/130/130 127/127/127 128/128/128
f 128/128/128 129/129/129 130/130/130
f 134/134/134 131/131/131 132/132/132
f 132/132/132 133/133/133 134/134/134
f 138/138/138 135/135/135 136/136/136
f 136/136/136 137/137/137 138/138/138
f 142/142/142 139/139/139 140/140/140
f 140/140/140 141/141/141 142/142/142
f 96/96/96 143/143/143 144/144/144
f 144/144/144 93/93/93 96/96/96
f 146/146/146 110/110/110 109/109/109
f 109/109/109 145/145/145 146/146/146
f 150/150/150 147/147/147 148/148/148
f 148/148/148 149/149/149 150/150/150
f 154/154/154 151/151/151 152/152/152
f 152/152/152 153/153/153 154/154/154
f 158/158/158 155/155/155 156/156/156
f 156/156/156 157/157/157 158/158/158
f 162/162/162 159/159/159 160/160/160
f 160/160/160 161/161/161 162/162/162
f 166/166/166 163/163/163 164/164/164
f 164/164/164 165/165/165 166/166/166
f 170/170/170 167/167/167 168/168/168
f 168/168/168 169/169/169 170/170/170
f 174/174/174 171/171/171 172/172/172
f 172/172/172 173/173/173 174/174/174
f 178/178/178 175/175/175 176/176/176
f 176/176/176 177/177/177 178/178/178
f 180/180/180 179/179/179 148/148/148
f 148/148/148 147/147/147 180/180/180
f 182/182/182 181/181/181 179/179/179
f 179/179/179 180/180/180 182/182/182
f 184/184/184 183/183/183 181/181/181
f 181/181/181 182/182/182 184/184/184
f 186/186/186 185/185/185 183/183/183
f 183/183/183 184/184/184 186/186/186
f 188/188/188 187/187/187 185/185/185
f 185/185/185 186/186/186 188/188/188
f 190/190/190 189/189/189 187/187/187
f 187/187/187 188/188/188 190/190/190
f 142/142/142 141/141/141 191/191/191
f 191/191/191 192/192/192 142/142/142
f 192/192/192 191/191/191 189/189/189
f 189/189/189 190/190/190 192/192/192
f 194/194/194 193/193/193 152/152/152
f 152/152/152 151/151/151 194/194/194
f 196/196/196 195/195/195 193/193/193
f 193/193/193 194/194/194 196/196/196
f 198/198/198 197/197/197 195/195/195
f 195/195/195 196/196/196 198/198/198
f 200/200/200 199/199/199 197/197/197
f 197/197/197 198/198/198 200/200/200
f 202/202/202 201/201/201 199/199/199
f 199/199/199 200/200/200 202/202/202
f 204/204/204 203/203/203 201/201/201
f 201/201/201 202/202/202 204/204/204
f 138/138/138 137/137/137 205/205/205
f 205/205/205 206/206/206 138/138/138
f 206/206/206 205/205/205 203/203/203
f 203/203/203 204/204/204 206/206/206
f 208/208/208 207/207/207 156/156/156
f 156/156/156 155/155/155 208/208/208
f 210/210/210 209/209/209 207/207/207
f 207/207/207 208/208/208 210/210/210
f 212/212/212 211/211/211 209/209/209
f 209/209/209 210/210/210 212/212/212
f 214/214/214 213/213/213 211/211/211
f 211/211/211 212/212/212 214/214/214
f 216/216/216 215/215/215 213/213/213
f 213/213/213 214/214/214 216/216/216
f 218/218/218 217/217/217 215/215/215
f 215/215/215 216/216/216 218/218/218
f 134/134/134 133/133/133 219/219/219
f 219/219/219 220/220/220 134/134/134
f 220/220/220 219/219/219 217/217/217
f 217/217/217 218/218/218 220/220/220
f 222/222/222 221/221/221 160/160/160
f 160/160/160 159/159/159 222/222/222
f 224/224/224 223/223/223 221/221/221
f 221/221/221 222/222/222 224/224/224
f 226/226/226 225/225/225 223/223/223
f 223/223/223 224/224/224 226/226/226
f 228/228/228 227/227/227 225/225/225
f 225/225/225 226/226/226 228/228/228
f 230/230/230 229/229/229 227/227/227
f 227/227/227 228/228/228 230/230/230
f 232/232/232 231/231/231 229/229/229
f 229/229/229 230/230/230 232/232/232
f 130/130/130 129/129/129 233/233/233
f 233/233/233 234/234/234 130/130/130
f 234/234/234 233/233/233 231/231/231
f 231/231/231 232/232/232 234/234/234
f 236/236/236 235/235/235 164/164/164
f 164/164/164 163/163/163 236/236/236
f 238/238/238 237/237/237 235/235/235
f 235/235/235 236/236/236 238/238/238
f 240/240/240 239/239/239 237/237/237
f 237/237/237 238/238/238 240/240/240
f 242/242/242 241/241/241 239/239/239
f 239/239/239 240/240/240 242/242/242
f 244/244/244 243/243/243 241/241/241
f 241/241/241 242/242/242 244/244/244
f 246/246/246 245/245/245 243/243/243
f 243/243/243 244/244/244 246/246/246
f 126/126/126 125/125/125 247/247/247
f 247/247/247 248/248/248 126/126/126
f 248/248/248 247/247/247 245/245/245
f 245/245/245 246/246/246 248/248/248
f 250/250/250 249/249/249 168/168/168
f 168/168/168 167/167/167 250/250/250
f 252/252/252 251/251/251 249/249/249
f 249/249/249 250/250/250 252/252/252
f 254/254/254 253/253/253 251/251/251
f 251/251/251 252/252/252 254/254/254
f 256/256/256 255/255/255 253/253/253
f 253/253/253 254/254/254 256/256/256
f 258/258/258 257/257/257 255/255/255
f 255/255/255 256/256/256 258/258/258
f 260/260/260 259/259/259 257/257/257
f 257/257/257 258/258/258 260/260/260
f 122/122/122 121/121/121 261/261/261
f 261/261/261 262/262/262 122/122/122
f 262/262/262 261/261/261 259/259/259
f 259/259/259 260/260/260 262/262/262
f 264/264/264 263/263/263 172/172/172
f 172/172/172 171/171/171 264/264/264
f 266/266/266 265/265/265 263/263/263
f 263/263/263 264/264/264 266/266/266
f 268/268/268 267/267/267 265/265/265
f 265/265/265 266/266/266 268/268/268
f 270/270/270 269/269/269 267/267/267
f 267/267/267 268/268/268 270/270/270
f 272/272/272 271/271/271 269/269/269
f 269/269/269 270/270/270 272/272/272
f 274/274/274 273/273/273 271/271/271
f 271/271/271 272/272/272 274/274/274
f 118/118/118 117/117/117 275/275/275
f 275/275/275 276/276/276 118/118/118
f 276/276/276 275/275/275 273/273/273
f 273/273/273 274/274/274 276/276/276
f 176/176/176 175/175/175 277/277/277
f 277/277/277 278/278/278 176/176/176
f 278/278/278 277/277/277 279/279/279
f 279/279/279 280/280/280 278/278/278
f 280/280/280 279/279/279 281/281/281
f 281/281/281 282/282/282 280/280/280
f 282/282/282 281/281/281 283/283/283
f 283/283/283 284/284/284 282/282/282
f 284/284/284 283/283/283 285/285/285
f 285/285/285 286/286/286 284/284/284
f 286/286/286 285/285/285 287/287/287
f 287/287/287 288/288/288 286/286/286
f 288/288/288 287/287/287 289/289/289
f 289/289/289 290/290/290 288/288/288
f 290/290/290 289/289/289 114/114/114
f 114/114/114 113/113/113 290/290/290
f 294/294/294 291/291/291 292/292/292
f 292/292/292 293/293/293 294/294/294
f 298/298/298 295/295/295 296/296/296
f 296/296/296 297/297/297 298/298/298
f 302/302/302 299/299/299 300/300/300
f 300/300/300 301/301/301 302/302/302
f 306/306/306 303/303/303 304/304/304
f 304/304/304 305/305/305 306/306/306
f 310/310/310 307/307/307 308/308/308
f 308/308/308 309/309/309 310/310/310
f 314/314/314 311/311/311 312/312/312
f 312/312/312 313/313/313 314/314/314
f 318/318/318 315/315/315 316/316/316
f 316/316/316 317/317/317 318/318/318
f 322/322/322 319/319/319 320/320/320
f 320/320/320 321/321/321 322/322/322
f 326/326/326 323/323/323 324/324/324
f 324/324/324 325/325/325 326/326/326
f 330/330/330 327/327/327 328/328/328
f 328/328/328 329/329/329 330/330/330
f 334/334/334 331/331/331 332/332/332
f 332/332/332 333/333/333 334/334/334
f 338/338/338 335/335/335 336/336/336
f 336/336/336 337/337/337 338/338/338
f 342/342/342 339/339/339 340/340/340
f 340/340/340 341/341/341 342/342/342
f 346/346/346 343/343/343 344/344/344
f 344/344/344 345/345/345 346/346/346
f 350/350/350 347/347/347 348/348/348
f 348/348/348 349/349/349 350/350/350
f 354/354/354 351/351/351 352/352/352
f 352/352/352 353/353/353 354/354/354
f 358/358/358 355/355/355 356/356/356
f 356/356/356 357/357/357 358/358/358
f 362/362/362 359/359/359 360/360/360
f 360/360/360 361/361/361 362/362/362
f 366/366/366 363/363/363 364/364/364
f 364/364/364 365/365/365 366/366/366
f 370/370/370 367/367/367 368/368/368
f 368/368/368 369/369/369 370/370/370
f 374/374/374 371/371/371 372/372/372
f 372/372/372 373/373/373 374/374/374
f 378/378/378 375/375/375 376/376/376
f 376/376/376 377/377/377 378/378/378
f 382/382/382 379/379/379 380/380/380
f 380/380/380 381/381/381 382/382/382
f 386/386/386 383/383/383 384/384/384
f 384/384/384 385/385/385 386/386/386
f 390/390/390 387/387/387 388/388/388
f 388/388/388 389/389/389 390/390/390
f 394/394/394 391/391/391 392/392/392
f 392/392/392 393/393/393 394/394/394
f 398/398/398 395/395/395 396/396/396
f 396/396/396 397/397/397 398/398/398

