# Blender 5.1.0
# www.blender.org
mtllib bevel_box.mtl
o bevel_box
v -0.015000 -0.015000 0.005000
v -0.015000 -0.000000 0.020000
v -0.030000 -0.000000 0.005000
v -0.015000 -0.013858 0.010740
v -0.015000 -0.010607 0.015607
v -0.020740 -0.013858 0.005000
v -0.020884 -0.012480 0.010884
v -0.020586 -0.009844 0.014844
v -0.023660 -0.008660 0.013660
v -0.020740 -0.000000 0.018858
v -0.025607 -0.000000 0.015607
v -0.015000 -0.005740 0.018858
v -0.020884 -0.005884 0.017480
v -0.024844 -0.005586 0.014844
v -0.028858 -0.005740 0.005000
v -0.025607 -0.010607 0.005000
v -0.028858 -0.000000 0.010740
v -0.027480 -0.005884 0.010884
v -0.024844 -0.009844 0.010586
v -0.015000 0.000000 0.020000
v -0.015000 0.015000 0.005000
v -0.030000 0.000000 0.005000
v -0.015000 0.005740 0.018858
v -0.015000 0.010607 0.015607
v -0.020740 0.000000 0.018858
v -0.020884 0.005884 0.017480
v -0.020586 0.009844 0.014844
v -0.023660 0.008660 0.013660
v -0.020740 0.013858 0.005000
v -0.025607 0.010607 0.005000
v -0.015000 0.013858 0.010740
v -0.020884 0.012480 0.010884
v -0.024844 0.009844 0.010586
v -0.028858 0.000000 0.010740
v -0.025607 0.000000 0.015607
v -0.028858 0.005740 0.005000
v -0.027480 0.005884 0.010884
v -0.024844 0.005586 0.014844
v -0.015000 -0.015000 -0.005000
v -0.030000 -0.000000 -0.005000
v -0.015000 -0.000000 -0.020000
v -0.020740 -0.013858 -0.005000
v -0.025607 -0.010607 -0.005000
v -0.015000 -0.013858 -0.010740
v -0.020884 -0.012480 -0.010884
v -0.024844 -0.009844 -0.010586
v -0.023660 -0.008660 -0.013660
v -0.028858 -0.000000 -0.010740
v -0.025607 -0.000000 -0.015607
v -0.028858 -0.005740 -0.005000
v -0.027480 -0.005884 -0.010884
v -0.024844 -0.005586 -0.014844
v -0.015000 -0.005740 -0.018858
v -0.015000 -0.010607 -0.015607
v -0.020740 -0.000000 -0.018858
v -0.020884 -0.005884 -0.017480
v -0.020586 -0.009844 -0.014844
v -0.015000 0.015000 -0.005000
v -0.015000 0.000000 -0.020000
v -0.030000 0.000000 -0.005000
v -0.015000 0.013858 -0.010740
v -0.015000 0.010607 -0.015607
v -0.020740 0.013858 -0.005000
v -0.020884 0.012480 -0.010884
v -0.020586 0.009844 -0.014844
v -0.023660 0.008660 -0.013660
v -0.020740 0.000000 -0.018858
v -0.025607 0.000000 -0.015607
v -0.015000 0.005740 -0.018858
v -0.020884 0.005884 -0.017480
v -0.024844 0.005586 -0.014844
v -0.028858 0.005740 -0.005000
v -0.025607 0.010607 -0.005000
v -0.028858 0.000000 -0.010740
v -0.027480 0.005884 -0.010884
v -0.024844 0.009844 -0.010586
v 0.015000 -0.015000 0.005000
v 0.030000 -0.000000 0.005000
v 0.015000 -0.000000 0.020000
v 0.020740 -0.013858 0.005000
v 0.025607 -0.010607 0.005000
v 0.015000 -0.013858 0.010740
v 0.020884 -0.012480 0.010884
v 0.024844 -0.009844 0.010586
v 0.023660 -0.008660 0.013660
v 0.028858 -0.000000 0.010740
v 0.025607 -0.000000 0.015607
v 0.028858 -0.005740 0.005000
v 0.027480 -0.005884 0.010884
v 0.024844 -0.005586 0.014844
v 0.015000 -0.005740 0.018858
v 0.015000 -0.010607 0.015607
v 0.020740 -0.000000 0.018858
v 0.020884 -0.005884 0.017480
v 0.020586 -0.009844 0.014844
v 0.015000 0.015000 0.005000
v 0.015000 0.000000 0.020000
v 0.030000 0.000000 0.005000
v 0.015000 0.013858 0.010740
v 0.015000 0.010607 0.015607
v 0.020740 0.013858 0.005000
v 0.020884 0.012480 0.010884
v 0.020586 0.009844 0.014844
v 0.023660 0.008660 0.013660
v 0.020740 0.000000 0.018858
v 0.025607 0.000000 0.015607
v 0.015000 0.005740 0.018858
v 0.020884 0.005884 0.017480
v 0.024844 0.005586 0.014844
v 0.028858 0.005740 0.005000
v 0.025607 0.010607 0.005000
v 0.028858 0.000000 0.010740
v 0.027480 0.005884 0.010884
v 0.024844 0.009844 0.010586
v 0.015000 -0.015000 -0.005000
v 0.015000 -0.000000 -0.020000
v 0.030000 -0.000000 -0.005000
v 0.015000 -0.013858 -0.010740
v 0.015000 -0.010607 -0.015607
v 0.020740 -0.013858 -0.005000
v 0.020884 -0.012480 -0.010884
v 0.020586 -0.009844 -0.014844
v 0.023660 -0.008660 -0.013660
v 0.020740 -0.000000 -0.018858
v 0.025607 -0.000000 -0.015607
v 0.015000 -0.005740 -0.018858
v 0.020884 -0.005884 -0.017480
v 0.024844 -0.005586 -0.014844
v 0.028858 -0.005740 -0.005000
v 0.025607 -0.010607 -0.005000
v 0.028858 -0.000000 -0.010740
v 0.027480 -0.005884 -0.010884
v 0.024844 -0.009844 -0.010586
v 0.015000 0.015000 -0.005000
v 0.030000 0.000000 -0.005000
v 0.015000 0.000000 -0.020000
v 0.020740 0.013858 -0.005000
v 0.025607 0.010607 -0.005000
v 0.015000 0.013858 -0.010740
v 0.020884 0.012480 -0.010884
v 0.024844 0.009844 -0.010586
v 0.023660 0.008660 -0.013660
v 0.028858 0.000000 -0.010740
v 0.025607 0.000000 -0.015607
v 0.028858 0.005740 -0.005000
v 0.027480 0.005884 -0.010884
v 0.024844 0.005586 -0.014844
v 0.015000 0.005740 -0.018858
v 0.015000 0.010607 -0.015607
v 0.020740 0.000000 -0.018858
v 0.020884 0.005884 -0.017480
v 0.020586 0.009844 -0.014844
vn -0.2049 -0.9571 0.2049
vn -0.1818 -0.8152 0.5500
vn -0.5500 -0.8152 0.1818
vn -0.4931 -0.7167 0.4931
vn -0.2049 -0.2049 0.9571
vn -0.5500 -0.1818 0.8152
vn -0.1818 -0.5500 0.8152
vn -0.4931 -0.4931 0.7167
vn -0.9571 -0.2049 0.2049
vn -0.8152 -0.5500 0.1818
vn -0.8152 -0.1818 0.5500
vn -0.7167 -0.4931 0.4931
vn -0.2049 0.2049 0.9571
vn -0.1818 0.5500 0.8152
vn -0.5500 0.1818 0.8152
vn -0.4931 0.4931 0.7167
vn -0.2049 0.9571 0.2049
vn -0.5500 0.8152 0.1818
vn -0.1818 0.8152 0.5500
vn -0.4931 0.7167 0.4931
vn -0.9571 0.2049 0.2049
vn -0.8152 0.1818 0.5500
vn -0.8152 0.5500 0.1818
vn -0.7167 0.4931 0.4931
vn -0.2049 -0.9571 -0.2049
vn -0.5500 -0.8152 -0.1818
vn -0.1818 -0.8152 -0.5500
vn -0.4931 -0.7167 -0.4931
vn -0.9571 -0.2049 -0.2049
vn -0.8152 -0.1818 -0.5500
vn -0.8152 -0.5500 -0.1818
vn -0.7167 -0.4931 -0.4931
vn -0.2049 -0.2049 -0.9571
vn -0.1818 -0.5500 -0.8152
vn -0.5500 -0.1818 -0.8152
vn -0.4931 -0.4931 -0.7167
vn -0.2049 0.9571 -0.2049
vn -0.1818 0.8152 -0.5500
vn -0.5500 0.8152 -0.1818
vn -0.4931 0.7167 -0.4931
vn -0.2049 0.2049 -0.9571
vn -0.5500 0.1818 -0.8152
vn -0.1818 0.5500 -0.8152
vn -0.4931 0.4931 -0.7167
vn -0.9571 0.2049 -0.2049
vn -0.8152 0.5500 -0.1818
vn -0.8152 0.1818 -0.5500
vn -0.7167 0.4931 -0.4931
vn 0.2049 -0.9571 0.2049
vn 0.5500 -0.8152 0.1818
vn 0.1818 -0.8152 0.5500
vn 0.4931 -0.7167 0.4931
vn 0.9571 -0.2049 0.2049
vn 0.8152 -0.1818 0.5500
vn 0.8152 -0.5500 0.1818
vn 0.7167 -0.4931 0.4931
vn 0.2049 -0.2049 0.9571
vn 0.1818 -0.5500 0.8152
vn 0.5500 -0.1818 0.8152
vn 0.4931 -0.4931 0.7167
vn 0.2049 0.9571 0.2049
vn 0.1818 0.8152 0.5500
vn 0.5500 0.8152 0.1818
vn 0.4931 0.7167 0.4931
vn 0.2049 0.2049 0.9571
vn 0.5500 0.1818 0.8152
vn 0.1818 0.5500 0.8152
vn 0.4931 0.4931 0.7167
vn 0.9571 0.2049 0.2049
vn 0.8152 0.5500 0.1818
vn 0.8152 0.1818 0.5500
vn 0.7167 0.4931 0.4931
vn 0.2049 -0.9571 -0.2049
vn 0.1818 -0.8152 -0.5500
vn 0.5500 -0.8152 -0.1818
vn 0.4931 -0.7167 -0.4931
vn 0.2049 -0.2049 -0.9571
vn 0.5500 -0.1818 -0.8152
vn 0.1818 -0.5500 -0.8152
vn 0.4931 -0.4931 -0.7167
vn 0.9571 -0.2049 -0.2049
vn 0.8152 -0.5500 -0.1818
vn 0.8152 -0.1818 -0.5500
vn 0.7167 -0.4931 -0.4931
vn 0.2049 0.9571 -0.2049
vn 0.5500 0.8152 -0.1818
vn 0.1818 0.8152 -0.5500
vn 0.4931 0.7167 -0.4931
vn 0.9571 0.2049 -0.2049
vn 0.8152 0.1818 -0.5500
vn 0.8152 0.5500 -0.1818
vn 0.7167 0.4931 -0.4931
vn 0.2049 0.2049 -0.9571
vn 0.1818 0.5500 -0.8152
vn 0.5500 0.1818 -0.8152
vn 0.4931 0.4931 -0.7167
vn -0.1951 -0.9808 -0.0000
vn -0.5556 -0.8315 -0.0000
vn -0.8315 -0.5556 -0.0000
vn -0.9808 -0.1951 -0.0000
vn -0.1951 -0.0000 0.9808
vn -0.5556 -0.0000 0.8315
vn -0.8315 -0.0000 0.5556
vn -0.9808 -0.0000 0.1951
vn -0.1951 0.9808 -0.0000
vn -0.5556 0.8315 -0.0000
vn -0.8315 0.5556 -0.0000
vn -0.9808 0.1951 -0.0000
vn -0.1951 -0.0000 -0.9808
vn -0.5556 -0.0000 -0.8315
vn -0.8315 -0.0000 -0.5556
vn -0.9808 -0.0000 -0.1951
vn -0.0000 -0.9808 -0.1951
vn -0.0000 -0.8315 -0.5556
vn -0.0000 -0.5556 -0.8315
vn -0.0000 -0.1951 -0.9808
vn -0.0000 0.9808 -0.1951
vn -0.0000 0.8315 -0.5556
vn -0.0000 0.5556 -0.8315
vn -0.0000 0.1951 -0.9808
vn 0.9808 -0.0000 -0.1951
vn 0.8315 -0.0000 -0.5556
vn 0.5556 -0.0000 -0.8315
vn 0.1951 -0.0000 -0.9808
vn 0.1951 -0.9808 -0.0000
vn 0.5556 -0.8315 -0.0000
vn 0.8315 -0.5556 -0.0000
vn 0.9808 -0.1951 -0.0000
vn 0.1951 0.9808 -0.0000
vn 0.5556 0.8315 -0.0000
vn 0.8315 0.5556 -0.0000
vn 0.9808 0.1951 -0.0000
vn 0.1951 -0.0000 0.9808
vn 0.5556 -0.0000 0.8315
vn 0.8315 -0.0000 0.5556
vn 0.9808 -0.0000 0.1951
vn -0.0000 -0.9808 0.1951
vn -0.0000 -0.8315 0.5556
vn -0.0000 -0.5556 0.8315
vn -0.0000 -0.1951 0.9808
vn -0.0000 0.9808 0.1951
vn -0.0000 0.8315 0.5556
vn -0.0000 0.5556 0.8315
vn -0.0000 0.1951 0.9808
vn -0.0000 -1.0000 -0.0000
vn -1.0000 -0.0000 -0.0000
vn -0.0000 -0.0000 1.0000
vn -0.0000 1.0000 -0.0000
vn -0.0000 -0.0000 -1.0000
vn 1.0000 -0.0000 -0.0000
vt 0.187500 0.656250
vt 0.187500 0.692127
vt 0.162983 0.693026
vt 0.163582 0.656250
vt 0.187500 0.750000
vt 0.164227 0.750000
vt 0.125000 0.691160
vt 0.125000 0.656250
vt 0.151416 0.750000
vt 0.500000 0.937500
vt 0.500000 0.961418
vt 0.450966 0.962017
vt 0.452165 0.937500
vt 0.500000 1.000000
vt 0.453454 1.000000
vt 0.375000 0.960773
vt 0.375000 0.937500
vt 0.427831 1.000000
vt 0.500000 0.093750
vt 0.452165 0.093750
vt 0.450966 0.056974
vt 0.500000 0.057873
vt 0.375000 0.093750
vt 0.375000 0.058840
vt 0.453454 0.000000
vt 0.500000 0.000000
vt 0.375000 0.039623
vt 0.547835 0.937500
vt 0.549034 0.962017
vt 0.500000 0.961418
vt 0.625000 0.937500
vt 0.625000 0.960773
vt 0.546546 1.000000
vt 0.625000 0.973584
vt 0.812500 0.656250
vt 0.836418 0.656250
vt 0.837017 0.693026
vt 0.812500 0.692127
vt 0.875000 0.656250
vt 0.875000 0.691160
vt 0.835773 0.750000
vt 0.812500 0.750000
vt 0.875000 0.710377
vt 0.549034 0.056974
vt 0.547835 0.093750
vt 0.500000 0.000000
vt 0.546546 0.000000
vt 0.625000 0.058840
vt 0.625000 0.093750
vt 0.572169 0.000000
vt 0.187500 0.593750
vt 0.163582 0.593750
vt 0.162983 0.556974
vt 0.187500 0.557873
vt 0.125000 0.593750
vt 0.125000 0.558840
vt 0.164227 0.500000
vt 0.187500 0.500000
vt 0.125000 0.539623
vt 0.500000 0.156250
vt 0.500000 0.192127
vt 0.450966 0.193026
vt 0.452165 0.156250
vt 0.500000 0.250000
vt 0.453454 0.250000
vt 0.375000 0.191160
vt 0.375000 0.156250
vt 0.401416 0.263208
vt 0.500000 0.312500
vt 0.452165 0.312500
vt 0.450966 0.287983
vt 0.500000 0.288582
vt 0.375000 0.312500
vt 0.375000 0.289227
vt 0.812500 0.593750
vt 0.812500 0.557873
vt 0.837017 0.556974
vt 0.836418 0.593750
vt 0.812500 0.500000
vt 0.835773 0.500000
vt 0.875000 0.558840
vt 0.875000 0.593750
vt 0.848584 0.500000
vt 0.500000 0.312500
vt 0.500000 0.288582
vt 0.549034 0.287983
vt 0.547835 0.312500
vt 0.546546 0.250000
vt 0.625000 0.289227
vt 0.625000 0.312500
vt 0.598584 0.230188
vt 0.500000 0.156250
vt 0.547835 0.156250
vt 0.549034 0.193026
vt 0.625000 0.156250
vt 0.625000 0.191160
vt 0.312500 0.656250
vt 0.336418 0.656250
vt 0.337017 0.693026
vt 0.312500 0.692127
vt 0.375000 0.656250
vt 0.375000 0.691160
vt 0.355387 0.769614
vt 0.343750 0.781250
vt 0.392610 0.745597
vt 0.500000 0.656250
vt 0.500000 0.692127
vt 0.450966 0.693026
vt 0.452165 0.656250
vt 0.500000 0.750000
vt 0.453454 0.750000
vt 0.500000 0.812500
vt 0.452165 0.812500
vt 0.450966 0.787983
vt 0.500000 0.788582
vt 0.687500 0.656250
vt 0.687500 0.692127
vt 0.662983 0.693026
vt 0.663582 0.656250
vt 0.656250 0.781250
vt 0.644614 0.769613
vt 0.625000 0.691160
vt 0.625000 0.656250
vt 0.616195 0.736792
vt 0.500000 0.812500
vt 0.500000 0.788582
vt 0.549034 0.787983
vt 0.547835 0.812500
vt 0.546546 0.750000
vt 0.500000 0.656250
vt 0.547835 0.656250
vt 0.549034 0.693026
vt 0.500000 0.692127
vt 0.312500 0.593750
vt 0.312500 0.557873
vt 0.337017 0.556974
vt 0.336418 0.593750
vt 0.343750 0.468750
vt 0.355387 0.480387
vt 0.375000 0.558840
vt 0.375000 0.593750
vt 0.383805 0.513208
vt 0.500000 0.437500
vt 0.500000 0.461418
vt 0.450966 0.462017
vt 0.452165 0.437500
vt 0.500000 0.500000
vt 0.453454 0.500000
vt 0.500000 0.593750
vt 0.452165 0.593750
vt 0.450966 0.556974
vt 0.500000 0.557873
vt 0.687500 0.593750
vt 0.663582 0.593750
vt 0.662983 0.556974
vt 0.687500 0.557873
vt 0.625000 0.593750
vt 0.625000 0.558840
vt 0.644613 0.480387
vt 0.656250 0.468750
vt 0.607390 0.504403
vt 0.500000 0.557873
vt 0.549034 0.556974
vt 0.547835 0.593750
vt 0.546546 0.500000
vt 0.547835 0.437500
vt 0.549034 0.462017
vt 0.500000 0.461418
s 0
f 1/1/1 4/2/1 7/3/1 6/4/1
f 4/2/2 5/5/2 8/6/2 7/3/2
f 6/4/3 7/3/3 19/7/3 16/8/3
f 7/3/4 8/6/4 9/9/4 19/7/4
f 2/10/5 10/11/5 13/12/5 12/13/5
f 10/11/6 11/14/6 14/15/6 13/12/6
f 12/13/7 13/12/7 8/16/7 5/17/7
f 13/12/8 14/15/8 9/18/8 8/16/8
f 3/19/9 15/20/9 18/21/9 17/22/9
f 15/20/10 16/23/10 19/24/10 18/21/10
f 17/22/11 18/21/11 14/25/11 11/26/11
f 18/21/12 19/24/12 9/27/12 14/25/12
f 20/10/13 23/28/13 26/29/13 25/30/13
f 23/28/14 24/31/14 27/32/14 26/29/14
f 25/30/15 26/29/15 38/33/15 35/14/15
f 26/29/16 27/32/16 28/34/16 38/33/16
f 21/35/17 29/36/17 32/37/17 31/38/17
f 29/36/18 30/39/18 33/40/18 32/37/18
f 31/38/19 32/37/19 27/41/19 24/42/19
f 32/37/20 33/40/20 28/43/20 27/41/20
f 22/19/21 34/22/21 37/44/21 36/45/21
f 34/22/22 35/46/22 38/47/22 37/44/22
f 36/45/23 37/44/23 33/48/23 30/49/23
f 37/44/24 38/47/24 28/50/24 33/48/24
f 39/51/25 42/52/25 45/53/25 44/54/25
f 42/52/26 43/55/26 46/56/26 45/53/26
f 44/54/27 45/53/27 57/57/27 54/58/27
f 45/53/28 46/56/28 47/59/28 57/57/28
f 40/60/29 48/61/29 51/62/29 50/63/29
f 48/61/30 49/64/30 52/65/30 51/62/30
f 50/63/31 51/62/31 46/66/31 43/67/31
f 51/62/32 52/65/32 47/68/32 46/66/32
f 41/69/33 53/70/33 56/71/33 55/72/33
f 53/70/34 54/73/34 57/74/34 56/71/34
f 55/72/35 56/71/35 52/65/35 49/64/35
f 56/71/36 57/74/36 47/68/36 52/65/36
f 58/75/37 61/76/37 64/77/37 63/78/37
f 61/76/38 62/79/38 65/80/38 64/77/38
f 63/78/39 64/77/39 76/81/39 73/82/39
f 64/77/40 65/80/40 66/83/40 76/81/40
f 59/84/41 67/85/41 70/86/41 69/87/41
f 67/85/42 68/64/42 71/88/42 70/86/42
f 69/87/43 70/86/43 65/89/43 62/90/43
f 70/86/44 71/88/44 66/91/44 65/89/44
f 60/92/45 72/93/45 75/94/45 74/61/45
f 72/93/46 73/95/46 76/96/46 75/94/46
f 74/61/47 75/94/47 71/88/47 68/64/47
f 75/94/48 76/96/48 66/91/48 71/88/48
f 77/97/49 80/98/49 83/99/49 82/100/49
f 80/98/50 81/101/50 84/102/50 83/99/50
f 82/100/51 83/99/51 95/103/51 92/104/51
f 83/99/52 84/102/52 85/105/52 95/103/52
f 78/106/53 86/107/53 89/108/53 88/109/53
f 86/107/54 87/110/54 90/111/54 89/108/54
f 88/109/55 89/108/55 84/102/55 81/101/55
f 89/108/56 90/111/56 85/105/56 84/102/56
f 79/112/57 91/113/57 94/114/57 93/115/57
f 91/113/58 92/104/58 95/103/58 94/114/58
f 93/115/59 94/114/59 90/111/59 87/110/59
f 94/114/60 95/103/60 85/105/60 90/111/60
f 96/116/61 99/117/61 102/118/61 101/119/61
f 99/117/62 100/120/62 103/121/62 102/118/62
f 101/119/63 102/118/63 114/122/63 111/123/63
f 102/118/64 103/121/64 104/124/64 114/122/64
f 97/125/65 105/126/65 108/127/65 107/128/65
f 105/126/66 106/110/66 109/129/66 108/127/66
f 107/128/67 108/127/67 103/121/67 100/120/67
f 108/127/68 109/129/68 104/124/68 103/121/68
f 98/130/69 110/131/69 113/132/69 112/133/69
f 110/131/70 111/123/70 114/122/70 113/132/70
f 112/133/71 113/132/71 109/129/71 106/110/71
f 113/132/72 114/122/72 104/124/72 109/129/72
f 115/134/73 118/135/73 121/136/73 120/137/73
f 118/135/74 119/138/74 122/139/74 121/136/74
f 120/137/75 121/136/75 133/140/75 130/141/75
f 121/136/76 122/139/76 123/142/76 133/140/76
f 116/143/77 124/144/77 127/145/77 126/146/77
f 124/144/78 125/147/78 128/148/78 127/145/78
f 126/146/79 127/145/79 122/139/79 119/138/79
f 127/145/80 128/148/80 123/142/80 122/139/80
f 117/149/81 129/150/81 132/151/81 131/152/81
f 129/150/82 130/141/82 133/140/82 132/151/82
f 131/152/83 132/151/83 128/148/83 125/147/83
f 132/151/84 133/140/84 123/142/84 128/148/84
f 134/153/85 137/154/85 140/155/85 139/156/85
f 137/154/86 138/157/86 141/158/86 140/155/86
f 139/156/87 140/155/87 152/159/87 149/160/87
f 140/155/88 141/158/88 142/161/88 152/159/88
f 135/149/89 143/162/89 146/163/89 145/164/89
f 143/162/90 144/147/90 147/165/90 146/163/90
f 145/164/91 146/163/91 141/158/91 138/157/91
f 146/163/92 147/165/92 142/161/92 141/158/92
f 136/143/93 148/166/93 151/167/93 150/168/93
f 148/166/94 149/160/94 152/159/94 151/167/94
f 150/168/95 151/167/95 147/165/95 144/147/95
f 151/167/96 152/159/96 142/161/96 147/165/96
f 39/51/97 1/1/97 6/4/97 42/52/97
f 42/52/98 6/4/98 16/8/98 43/55/98
f 43/67/99 16/23/99 15/20/99 50/63/99
f 50/63/100 15/20/100 3/19/100 40/60/100
f 2/10/101 20/10/101 25/30/101 10/11/101
f 10/11/102 25/30/102 35/14/102 11/14/102
f 11/26/103 35/46/103 34/22/103 17/22/103
f 17/22/104 34/22/104 22/19/104 3/19/104
f 21/35/105 58/75/105 63/78/105 29/36/105
f 29/36/106 63/78/106 73/82/106 30/39/106
f 30/49/107 73/95/107 72/93/107 36/45/107
f 36/45/108 72/93/108 60/92/108 22/19/108
f 59/84/109 41/69/109 55/72/109 67/85/109
f 67/85/110 55/72/110 49/64/110 68/64/110
f 68/64/111 49/64/111 48/61/111 74/61/111
f 74/61/112 48/61/112 40/60/112 60/92/112
f 115/134/113 39/51/113 44/54/113 118/135/113
f 118/135/114 44/54/114 54/58/114 119/138/114
f 119/138/115 54/73/115 53/70/115 126/146/115
f 126/146/116 53/70/116 41/69/116 116/143/116
f 58/75/117 134/153/117 139/156/117 61/76/117
f 61/76/118 139/156/118 149/160/118 62/79/118
f 62/90/119 149/160/119 148/166/119 69/87/119
f 69/87/120 148/166/120 136/143/120 59/84/120
f 135/149/121 117/149/121 131/152/121 143/162/121
f 143/162/122 131/152/122 125/147/122 144/147/122
f 144/147/123 125/147/123 124/144/123 150/168/123
f 150/168/124 124/144/124 116/143/124 136/143/124
f 77/97/125 115/134/125 120/137/125 80/98/125
f 80/98/126 120/137/126 130/141/126 81/101/126
f 81/101/127 130/141/127 129/150/127 88/109/127
f 88/109/128 129/150/128 117/149/128 78/106/128
f 134/153/129 96/116/129 101/119/129 137/154/129
f 137/154/130 101/119/130 111/123/130 138/157/130
f 138/157/131 111/123/131 110/131/131 145/164/131
f 145/164/132 110/131/132 98/130/132 135/149/132
f 97/125/133 79/112/133 93/115/133 105/126/133
f 105/126/134 93/115/134 87/110/134 106/110/134
f 106/110/135 87/110/135 86/107/135 112/133/135
f 112/133/136 86/107/136 78/106/136 98/130/136
f 1/1/137 77/97/137 82/100/137 4/2/137
f 4/2/138 82/100/138 92/104/138 5/5/138
f 5/17/139 92/104/139 91/113/139 12/13/139
f 12/13/140 91/113/140 79/112/140 2/10/140
f 96/116/141 21/35/141 31/38/141 99/117/141
f 99/117/142 31/38/142 24/42/142 100/120/142
f 100/120/143 24/31/143 23/28/143 107/128/143
f 107/128/144 23/28/144 20/10/144 97/125/144
f 39/51/145 115/134/145 77/97/145 1/1/145
f 3/19/146 22/19/146 60/92/146 40/60/146
f 79/112/147 97/125/147 20/10/147 2/10/147
f 134/153/148 58/75/148 21/35/148 96/116/148
f 41/69/149 59/84/149 136/143/149 116/143/149
f 117/149/150 135/149/150 98/130/150 78/106/150
