# Blender 5.1.0
# www.blender.org
mtllib l_bracket_col.mtl
o l_bracket
v 0.020000 -0.005000 0.005000
v 0.005000 -0.005000 -0.030000
v 0.020000 0.005000 0.005000
v 0.005000 0.005000 -0.030000
v 0.020000 -0.005000 -0.005000
v 0.005000 -0.005000 -0.070000
v 0.020000 0.005000 -0.005000
v 0.005000 0.005000 -0.070000
v 0.060000 -0.005000 0.005000
v 0.015000 -0.005000 -0.030000
v 0.060000 0.005000 0.005000
v 0.015000 0.005000 -0.030000
v 0.060000 -0.005000 -0.005000
v 0.015000 -0.005000 -0.070000
v 0.060000 0.005000 -0.005000
v 0.015000 0.005000 -0.070000
vn -1.0000 -0.0000 -0.0000
vn -0.0000 -0.0000 -1.0000
vn 1.0000 -0.0000 -0.0000
vn -0.0000 -0.0000 1.0000
vn -0.0000 -1.0000 -0.0000
vn -0.0000 1.0000 -0.0000
vt 0.375000 0.000000
vt 0.625000 0.000000
vt 0.625000 0.250000
vt 0.375000 0.250000
vt 0.625000 0.500000
vt 0.375000 0.500000
vt 0.625000 0.750000
vt 0.375000 0.750000
vt 0.625000 1.000000
vt 0.375000 1.000000
vt 0.125000 0.500000
vt 0.125000 0.750000
vt 0.875000 0.500000
vt 0.875000 0.750000
s 0
usemtl 
f 1/1/1 3/2/1 7/3/1 5/4/1
f 5/4/2 7/3/2 15/5/2 13/6/2
f 13/6/3 15/5/3 11/7/3 9/8/3
f 9/8/4 11/7/4 3/9/4 1/10/4
f 5/11/5 13/6/5 9/8/5 1/12/5
f 15/5/6 7/13/6 3/14/6 11/7/6
f 2/1/1 4/2/1 8/3/1 6/4/1
f 6/4/2 8/3/2 16/5/2 14/6/2
f 14/6/3 16/5/3 12/7/3 10/8/3
f 10/8/4 12/7/4 4/9/4 2/10/4
f 6/11/5 14/6/5 10/8/5 2/12/5
f 16/5/6 8/13/6 4/14/6 12/7/6
o l_bracket_col
v 0.020000 -0.005000 0.001667
v 0.010000 0.000000 -0.030000
v 0.020000 0.005000 -0.001667
v 0.008333 -0.005000 -0.070000
v 0.011667 0.005000 -0.070000
v 0.060000 0.001667 0.005000
v 0.060000 -0.001667 -0.005000
vn -0.1306 -0.3135 -0.9406
vn 0.1306 0.9406 -0.3135
vn 0.9487 -0.3162 -0.0000
vn -0.1306 0.3135 0.9406
vn 0.1306 -0.9406 0.3135
vn -0.9487 0.3162 -0.0000
vt 0.625000 0.166667
vt 0.458333 0.500000
vt 0.375000 0.083333
vt 0.875000 0.583333
vt 0.541667 0.750000
vt 0.708333 0.500000
vt 0.541667 0.750000
vt 0.208333 0.500000
vt 0.625000 1.000000
vt 0.375000 1.000000
vt 0.125000 0.666667
vt 0.500000 0.000000
vt 0.625000 0.416667
vt 0.375000 0.333333
s 0
usemtl 
f 19/15/7 23/16/7 17/17/7
f 19/18/8 22/19/8 23/16/8
f 21/20/9 18/21/9 20/22/9
f 22/19/10 19/23/10 17/24/10
f 23/16/11 22/19/11 17/25/11
f 18/26/12 21/27/12 20/28/12
